<svg xmlns="http://www.w3.org/2000/svg" xmlns:xlink="http://www.w3.org/1999/xlink" viewBox="0 0 195.13 827.19"><defs><clipPath id="a" transform="translate(0.37 0.19)"><rect width="197" height="827" style="fill:none"/></clipPath></defs><title>bg-dots</title><g style="clip-path:url(#a)"><g style="opacity:0.10000000149011612"><path d="M140.91,272.18a3.36,3.36,0,1,0-3.36,3.36h0A3.35,3.35,0,0,0,140.91,272.18Z" transform="translate(0.37 0.19)" style="fill:#dda76d"/><path d="M181.29,272.18a3.36,3.36,0,1,0-3.36,3.36h0A3.35,3.35,0,0,0,181.29,272.18Z" transform="translate(0.37 0.19)" style="fill:#dda76d"/><circle cx="151.38" cy="285.82" r="3.36" style="fill:#dda76d"/><circle cx="124.46" cy="285.82" r="3.36" style="fill:#dda76d"/><circle cx="111" cy="285.82" r="3.36" style="fill:#dda76d"/><circle cx="191.76" cy="285.82" r="3.36" style="fill:#dda76d"/><circle cx="164.85" cy="285.82" r="3.36" style="fill:#dda76d"/><path d="M154.37,299.08a3.36,3.36,0,1,0-3.36,3.36h0A3.35,3.35,0,0,0,154.37,299.08Z" transform="translate(0.37 0.19)" style="fill:#dda76d"/><path d="M127.45,299.08a3.36,3.36,0,1,0-3.36,3.36h0A3.35,3.35,0,0,0,127.45,299.08Z" transform="translate(0.37 0.19)" style="fill:#dda76d"/><path d="M194.75,299.08a3.36,3.36,0,1,0-3.36,3.36h0A3.35,3.35,0,0,0,194.75,299.08Z" transform="translate(0.37 0.19)" style="fill:#dda76d"/><path d="M181.29,299.08a3.36,3.36,0,1,0-3.36,3.36h0A3.35,3.35,0,0,0,181.29,299.08Z" transform="translate(0.37 0.19)" style="fill:#dda76d"/><path d="M167.83,299.08a3.36,3.36,0,1,0-3.36,3.36h0A3.37,3.37,0,0,0,167.83,299.08Z" transform="translate(0.37 0.19)" style="fill:#dda76d"/><circle cx="151.38" cy="312.72" r="3.36" style="fill:#dda76d"/><path d="M140.91,312.53a3.36,3.36,0,1,0-3.36,3.36h0A3.35,3.35,0,0,0,140.91,312.53Z" transform="translate(0.37 0.19)" style="fill:#dda76d"/><circle cx="124.46" cy="312.72" r="3.36" style="fill:#dda76d"/><circle cx="111" cy="312.72" r="3.36" style="fill:#dda76d"/><circle cx="191.76" cy="312.72" r="3.36" style="fill:#dda76d"/><path d="M181.29,312.53a3.36,3.36,0,1,0-3.36,3.36h0A3.35,3.35,0,0,0,181.29,312.53Z" transform="translate(0.37 0.19)" style="fill:#dda76d"/><path d="M154.37,326a3.36,3.36,0,1,0-3.36,3.36h0A3.35,3.35,0,0,0,154.37,326Z" transform="translate(0.37 0.19)" style="fill:#dda76d"/><path d="M140.91,326a3.36,3.36,0,1,0-3.36,3.36h0A3.35,3.35,0,0,0,140.91,326Z" transform="translate(0.37 0.19)" style="fill:#dda76d"/><path d="M114,326a3.36,3.36,0,1,0-3.36,3.36h0A3.35,3.35,0,0,0,114,326Z" transform="translate(0.37 0.19)" style="fill:#dda76d"/><path d="M194.75,326a3.36,3.36,0,1,0-3.36,3.36h0A3.35,3.35,0,0,0,194.75,326Z" transform="translate(0.37 0.19)" style="fill:#dda76d"/><path d="M181.29,393.23a3.36,3.36,0,1,0-3.36,3.36h0A3.35,3.35,0,0,0,181.29,393.23Z" transform="translate(0.37 0.19)" style="fill:#dda76d"/><path d="M167.83,326a3.36,3.36,0,1,0-3.36,3.36h0A3.37,3.37,0,0,0,167.83,326Z" transform="translate(0.37 0.19)" style="fill:#dda76d"/><path d="M140.91,339.43a3.36,3.36,0,1,0-3.36,3.36h0A3.35,3.35,0,0,0,140.91,339.43Z" transform="translate(0.37 0.19)" style="fill:#dda76d"/><circle cx="124.46" cy="339.62" r="3.36" style="fill:#dda76d"/><circle cx="191.76" cy="339.62" r="3.36" style="fill:#dda76d"/><path d="M181.29,339.43a3.36,3.36,0,1,0-3.36,3.36h0A3.35,3.35,0,0,0,181.29,339.43Z" transform="translate(0.37 0.19)" style="fill:#dda76d"/><circle cx="164.85" cy="339.62" r="3.36" style="fill:#dda76d"/><path d="M154.37,352.88a3.36,3.36,0,1,0-3.36,3.36h0A3.35,3.35,0,0,0,154.37,352.88Z" transform="translate(0.37 0.19)" style="fill:#dda76d"/><path d="M140.91,352.88a3.36,3.36,0,1,0-3.36,3.36h0A3.35,3.35,0,0,0,140.91,352.88Z" transform="translate(0.37 0.19)" style="fill:#dda76d"/><path d="M127.45,352.88a3.36,3.36,0,1,0-3.36,3.36h0A3.35,3.35,0,0,0,127.45,352.88Z" transform="translate(0.37 0.19)" style="fill:#dda76d"/><path d="M60.15,312.53a3.36,3.36,0,1,0-3.36,3.36h0A3.35,3.35,0,0,0,60.15,312.53Z" transform="translate(0.37 0.19)" style="fill:#dda76d"/><path d="M46.69,326a3.36,3.36,0,1,0-3.36,3.36h0A3.35,3.35,0,0,0,46.69,326Z" transform="translate(0.37 0.19)" style="fill:#dda76d"/><path d="M60.15,339.43a3.36,3.36,0,1,0-3.36,3.36h0A3.35,3.35,0,0,0,60.15,339.43Z" transform="translate(0.37 0.19)" style="fill:#dda76d"/><path d="M60.15,352.88a3.36,3.36,0,1,0-3.36,3.36h0A3.35,3.35,0,0,0,60.15,352.88Z" transform="translate(0.37 0.19)" style="fill:#dda76d"/><path d="M194.75,352.88a3.36,3.36,0,1,0-3.36,3.36h0A3.35,3.35,0,0,0,194.75,352.88Z" transform="translate(0.37 0.19)" style="fill:#dda76d"/><path d="M167.83,352.88a3.36,3.36,0,1,0-3.36,3.36h0A3.37,3.37,0,0,0,167.83,352.88Z" transform="translate(0.37 0.19)" style="fill:#dda76d"/><path d="M140.91,366.33a3.36,3.36,0,1,0-3.36,3.36h0A3.35,3.35,0,0,0,140.91,366.33Z" transform="translate(0.37 0.19)" style="fill:#dda76d"/><circle cx="111" cy="366.52" r="3.36" style="fill:#dda76d"/><circle cx="191.76" cy="366.52" r="3.36" style="fill:#dda76d"/><path d="M181.29,366.33a3.36,3.36,0,1,0-3.36,3.36h0A3.35,3.35,0,0,0,181.29,366.33Z" transform="translate(0.37 0.19)" style="fill:#dda76d"/><circle cx="164.85" cy="366.52" r="3.36" style="fill:#dda76d"/><circle cx="151.38" cy="366.52" r="3.36" style="fill:#dda76d"/><path d="M154.37,379.78a3.36,3.36,0,1,0-3.36,3.36h0A3.35,3.35,0,0,0,154.37,379.78Z" transform="translate(0.37 0.19)" style="fill:#dda76d"/><path d="M127.45,379.78a3.36,3.36,0,1,0-3.36,3.36h0A3.35,3.35,0,0,0,127.45,379.78Z" transform="translate(0.37 0.19)" style="fill:#dda76d"/><path d="M114,379.78a3.36,3.36,0,1,0-3.36,3.36h0A3.35,3.35,0,0,0,114,379.78Z" transform="translate(0.37 0.19)" style="fill:#dda76d"/><path d="M194.75,379.78a3.36,3.36,0,1,0-3.36,3.36h0A3.35,3.35,0,0,0,194.75,379.78Z" transform="translate(0.37 0.19)" style="fill:#dda76d"/><path d="M167.83,379.78a3.36,3.36,0,1,0-3.36,3.36h0A3.37,3.37,0,0,0,167.83,379.78Z" transform="translate(0.37 0.19)" style="fill:#dda76d"/><circle cx="151.38" cy="393.42" r="3.36" style="fill:#dda76d"/><path d="M140.91,393.23a3.36,3.36,0,1,0-3.36,3.36h0A3.35,3.35,0,0,0,140.91,393.23Z" transform="translate(0.37 0.19)" style="fill:#dda76d"/><circle cx="111" cy="393.42" r="3.36" style="fill:#dda76d"/><circle cx="191.76" cy="393.42" r="3.36" style="fill:#dda76d"/><path d="M154.37,406.68A3.36,3.36,0,1,0,151,410h0A3.36,3.36,0,0,0,154.37,406.68Z" transform="translate(0.37 0.19)" style="fill:#dda76d"/><path d="M127.45,406.68a3.36,3.36,0,1,0-3.36,3.36h0A3.35,3.35,0,0,0,127.45,406.68Z" transform="translate(0.37 0.19)" style="fill:#dda76d"/><path d="M194.75,406.68a3.36,3.36,0,1,0-3.36,3.36h0A3.35,3.35,0,0,0,194.75,406.68Z" transform="translate(0.37 0.19)" style="fill:#dda76d"/><path d="M167.83,406.68a3.36,3.36,0,1,0-3.36,3.36h0A3.37,3.37,0,0,0,167.83,406.68Z" transform="translate(0.37 0.19)" style="fill:#dda76d"/><circle cx="151.38" cy="420.32" r="3.36" style="fill:#dda76d"/><circle cx="124.46" cy="420.32" r="3.36" style="fill:#dda76d"/><circle cx="84.08" cy="285.82" r="3.36" style="fill:#dda76d"/><circle cx="43.7" cy="285.82" r="3.36" style="fill:#dda76d"/><circle cx="70.62" cy="285.82" r="3.36" style="fill:#dda76d"/><path d="M100.53,299.08a3.36,3.36,0,1,0-3.36,3.36h0A3.35,3.35,0,0,0,100.53,299.08Z" transform="translate(0.37 0.19)" style="fill:#dda76d"/><circle cx="84.08" cy="312.72" r="3.36" style="fill:#dda76d"/><path d="M100.53,326a3.36,3.36,0,1,0-3.36,3.36h0A3.35,3.35,0,0,0,100.53,326Z" transform="translate(0.37 0.19)" style="fill:#dda76d"/><path d="M73.61,326a3.36,3.36,0,1,0-3.36,3.36h0A3.35,3.35,0,0,0,73.61,326Z" transform="translate(0.37 0.19)" style="fill:#dda76d"/><path d="M100.53,339.43a3.36,3.36,0,1,0-3.36,3.36h0A3.35,3.35,0,0,0,100.53,339.43Z" transform="translate(0.37 0.19)" style="fill:#dda76d"/><circle cx="84.08" cy="339.62" r="3.36" style="fill:#dda76d"/><path d="M100.53,352.88a3.36,3.36,0,1,0-3.36,3.36h0A3.35,3.35,0,0,0,100.53,352.88Z" transform="translate(0.37 0.19)" style="fill:#dda76d"/><path d="M73.61,352.88a3.36,3.36,0,1,0-3.36,3.36h0A3.35,3.35,0,0,0,73.61,352.88Z" transform="translate(0.37 0.19)" style="fill:#dda76d"/><circle cx="84.08" cy="366.52" r="3.36" style="fill:#dda76d"/><path d="M87.07,379.78a3.36,3.36,0,1,0-3.36,3.36h0A3.35,3.35,0,0,0,87.07,379.78Z" transform="translate(0.37 0.19)" style="fill:#dda76d"/><path d="M60.15,379.78a3.36,3.36,0,1,0-3.36,3.36h0A3.35,3.35,0,0,0,60.15,379.78Z" transform="translate(0.37 0.19)" style="fill:#dda76d"/><path d="M33.26,379.78a3.36,3.36,0,1,0-3.36,3.36h0A3.38,3.38,0,0,0,33.26,379.78Z" transform="translate(0.37 0.19)" style="fill:#dda76d"/><path d="M100.53,393.23a3.36,3.36,0,1,0-3.36,3.36h0A3.35,3.35,0,0,0,100.53,393.23Z" transform="translate(0.37 0.19)" style="fill:#dda76d"/><circle cx="70.62" cy="393.42" r="3.36" style="fill:#dda76d"/><path d="M100.53,406.68a3.36,3.36,0,1,0-3.4,3.32h0A3.36,3.36,0,0,0,100.53,406.68Z" transform="translate(0.37 0.19)" style="fill:#dda76d"/><path d="M87.07,406.68a3.36,3.36,0,1,0-3.4,3.32h0A3.36,3.36,0,0,0,87.07,406.68Z" transform="translate(0.37 0.19)" style="fill:#dda76d"/><path d="M46.69,406.68a3.36,3.36,0,1,0-3.4,3.32h0A3.36,3.36,0,0,0,46.69,406.68Z" transform="translate(0.37 0.19)" style="fill:#dda76d"/><circle cx="164.85" cy="420.32" r="3.36" style="fill:#dda76d"/><path d="M140.91,151.13a3.36,3.36,0,1,0-3.36,3.36,3.35,3.35,0,0,0,3.36-3.36Z" transform="translate(0.37 0.19)" style="fill:#dda76d"/><path d="M127.45,124.23a3.36,3.36,0,1,0-3.36,3.36,3.35,3.35,0,0,0,3.36-3.36Z" transform="translate(0.37 0.19)" style="fill:#dda76d"/><path d="M194.75,124.23a3.36,3.36,0,1,0-3.36,3.36,3.35,3.35,0,0,0,3.36-3.36Z" transform="translate(0.37 0.19)" style="fill:#dda76d"/><path d="M167.83,124.23a3.36,3.36,0,1,0-3.36,3.36h0a3.35,3.35,0,0,0,3.35-3.35Z" transform="translate(0.37 0.19)" style="fill:#dda76d"/><circle cx="151.38" cy="110.97" r="3.36" style="fill:#dda76d"/><path d="M140.91,110.78a3.36,3.36,0,1,0-3.36,3.36,3.35,3.35,0,0,0,3.36-3.36Z" transform="translate(0.37 0.19)" style="fill:#dda76d"/><circle cx="124.46" cy="110.97" r="3.36" style="fill:#dda76d"/><circle cx="111" cy="110.97" r="3.36" style="fill:#dda76d"/><circle cx="191.76" cy="110.97" r="3.36" style="fill:#dda76d"/><path d="M181.29,110.78a3.36,3.36,0,1,0-3.36,3.36,3.35,3.35,0,0,0,3.36-3.36Z" transform="translate(0.37 0.19)" style="fill:#dda76d"/><path d="M154.37,97.33a3.36,3.36,0,1,0-3.36,3.36,3.35,3.35,0,0,0,3.36-3.36Z" transform="translate(0.37 0.19)" style="fill:#dda76d"/><path d="M140.91,97.33a3.36,3.36,0,1,0-3.36,3.36,3.35,3.35,0,0,0,3.36-3.36Z" transform="translate(0.37 0.19)" style="fill:#dda76d"/><path d="M114,97.33a3.36,3.36,0,1,0-3.36,3.36A3.35,3.35,0,0,0,114,97.33Z" transform="translate(0.37 0.19)" style="fill:#dda76d"/><path d="M194.75,97.33a3.36,3.36,0,1,0-3.36,3.36,3.35,3.35,0,0,0,3.36-3.36Z" transform="translate(0.37 0.19)" style="fill:#dda76d"/><path d="M181.29,245.28a3.36,3.36,0,1,0-3.36,3.36,3.35,3.35,0,0,0,3.36-3.36Z" transform="translate(0.37 0.19)" style="fill:#dda76d"/><path d="M167.83,97.33a3.36,3.36,0,1,0-3.36,3.36h0a3.35,3.35,0,0,0,3.35-3.35Z" transform="translate(0.37 0.19)" style="fill:#dda76d"/><path d="M140.91,83.88a3.36,3.36,0,1,0-3.36,3.36,3.35,3.35,0,0,0,3.36-3.36Z" transform="translate(0.37 0.19)" style="fill:#dda76d"/><circle cx="124.46" cy="84.07" r="3.36" style="fill:#dda76d"/><circle cx="191.76" cy="84.07" r="3.36" style="fill:#dda76d"/><path d="M181.29,83.88a3.36,3.36,0,1,0-3.36,3.36,3.35,3.35,0,0,0,3.36-3.36Z" transform="translate(0.37 0.19)" style="fill:#dda76d"/><circle cx="164.85" cy="84.07" r="3.36" style="fill:#dda76d"/><path d="M154.37,70.43A3.36,3.36,0,1,0,151,73.79a3.35,3.35,0,0,0,3.37-3.36Z" transform="translate(0.37 0.19)" style="fill:#dda76d"/><path d="M140.91,70.43a3.36,3.36,0,1,0-3.36,3.36,3.35,3.35,0,0,0,3.36-3.36Z" transform="translate(0.37 0.19)" style="fill:#dda76d"/><path d="M127.45,70.43a3.36,3.36,0,1,0-3.36,3.36,3.35,3.35,0,0,0,3.36-3.36Z" transform="translate(0.37 0.19)" style="fill:#dda76d"/><path d="M60.15,110.78a3.36,3.36,0,1,0-3.36,3.36,3.35,3.35,0,0,0,3.36-3.36Z" transform="translate(0.37 0.19)" style="fill:#dda76d"/><path d="M46.69,97.33a3.36,3.36,0,1,0-3.36,3.36,3.35,3.35,0,0,0,3.36-3.36Z" transform="translate(0.37 0.19)" style="fill:#dda76d"/><path d="M60.15,83.88a3.36,3.36,0,1,0-3.36,3.36,3.35,3.35,0,0,0,3.36-3.36Z" transform="translate(0.37 0.19)" style="fill:#dda76d"/><path d="M60.15,70.43a3.36,3.36,0,1,0-3.36,3.36,3.35,3.35,0,0,0,3.36-3.36Z" transform="translate(0.37 0.19)" style="fill:#dda76d"/><path d="M194.75,70.43a3.36,3.36,0,1,0-3.36,3.36,3.35,3.35,0,0,0,3.36-3.36Z" transform="translate(0.37 0.19)" style="fill:#dda76d"/><path d="M181.29,70.43a3.36,3.36,0,1,0-3.36,3.36,3.35,3.35,0,0,0,3.36-3.36Z" transform="translate(0.37 0.19)" style="fill:#dda76d"/><path d="M167.83,70.43a3.36,3.36,0,1,0-3.36,3.36h0a3.35,3.35,0,0,0,3.35-3.35Z" transform="translate(0.37 0.19)" style="fill:#dda76d"/><path d="M140.91,57a3.36,3.36,0,1,0-3.36,3.36A3.35,3.35,0,0,0,140.91,57Z" transform="translate(0.37 0.19)" style="fill:#dda76d"/><circle cx="111" cy="57.17" r="3.36" style="fill:#dda76d"/><circle cx="191.76" cy="57.17" r="3.36" style="fill:#dda76d"/><path d="M181.29,57a3.36,3.36,0,1,0-3.36,3.36A3.35,3.35,0,0,0,181.29,57Z" transform="translate(0.37 0.19)" style="fill:#dda76d"/><circle cx="164.85" cy="57.17" r="3.36" style="fill:#dda76d"/><circle cx="151.38" cy="57.17" r="3.36" style="fill:#dda76d"/><path d="M154.37,43.53A3.36,3.36,0,1,0,151,46.89a3.35,3.35,0,0,0,3.37-3.36Z" transform="translate(0.37 0.19)" style="fill:#dda76d"/><path d="M127.45,43.53a3.36,3.36,0,1,0-3.36,3.36,3.35,3.35,0,0,0,3.36-3.36Z" transform="translate(0.37 0.19)" style="fill:#dda76d"/><path d="M114,43.53a3.36,3.36,0,1,0-3.36,3.36A3.35,3.35,0,0,0,114,43.53Z" transform="translate(0.37 0.19)" style="fill:#dda76d"/><path d="M194.75,43.53a3.36,3.36,0,1,0-3.36,3.36,3.35,3.35,0,0,0,3.36-3.36Z" transform="translate(0.37 0.19)" style="fill:#dda76d"/><path d="M167.83,43.53a3.36,3.36,0,1,0-3.36,3.36h0a3.35,3.35,0,0,0,3.35-3.35Z" transform="translate(0.37 0.19)" style="fill:#dda76d"/><circle cx="151.38" cy="30.27" r="3.36" style="fill:#dda76d"/><path d="M140.91,30.08a3.36,3.36,0,1,0-3.37,3.35h0a3.35,3.35,0,0,0,3.36-3.34Z" transform="translate(0.37 0.19)" style="fill:#dda76d"/><circle cx="111" cy="30.27" r="3.36" style="fill:#dda76d"/><circle cx="191.76" cy="30.27" r="3.36" style="fill:#dda76d"/><circle cx="178.3" cy="30.27" r="3.36" style="fill:#dda76d"/><path d="M154.37,16.63A3.36,3.36,0,1,0,151,20a3.35,3.35,0,0,0,3.37-3.37Z" transform="translate(0.37 0.19)" style="fill:#dda76d"/><path d="M127.45,16.63A3.36,3.36,0,1,0,124.09,20a3.35,3.35,0,0,0,3.36-3.37Z" transform="translate(0.37 0.19)" style="fill:#dda76d"/><path d="M194.75,16.63A3.36,3.36,0,1,0,191.39,20a3.35,3.35,0,0,0,3.36-3.37Z" transform="translate(0.37 0.19)" style="fill:#dda76d"/><path d="M167.83,16.63A3.36,3.36,0,1,0,164.48,20a3.35,3.35,0,0,0,3.35-3.37Z" transform="translate(0.37 0.19)" style="fill:#dda76d"/><circle cx="151.38" cy="3.37" r="3.36" style="fill:#dda76d"/><circle cx="124.46" cy="3.37" r="3.36" style="fill:#dda76d"/><path d="M73.61,151.13a3.36,3.36,0,1,0-3.36,3.36,3.35,3.35,0,0,0,3.36-3.36Z" transform="translate(0.37 0.19)" style="fill:#dda76d"/><circle cx="84.08" cy="110.97" r="3.36" style="fill:#dda76d"/><path d="M100.53,97.33a3.36,3.36,0,1,0-3.36,3.36,3.35,3.35,0,0,0,3.36-3.36Z" transform="translate(0.37 0.19)" style="fill:#dda76d"/><path d="M73.61,97.33a3.36,3.36,0,1,0-3.36,3.36,3.35,3.35,0,0,0,3.36-3.36Z" transform="translate(0.37 0.19)" style="fill:#dda76d"/><path d="M100.53,83.88a3.36,3.36,0,1,0-3.36,3.36,3.35,3.35,0,0,0,3.36-3.36Z" transform="translate(0.37 0.19)" style="fill:#dda76d"/><circle cx="84.08" cy="84.07" r="3.36" style="fill:#dda76d"/><path d="M100.53,70.43a3.36,3.36,0,1,0-3.36,3.36,3.35,3.35,0,0,0,3.36-3.36Z" transform="translate(0.37 0.19)" style="fill:#dda76d"/><path d="M73.61,70.43a3.36,3.36,0,1,0-3.36,3.36,3.35,3.35,0,0,0,3.36-3.36Z" transform="translate(0.37 0.19)" style="fill:#dda76d"/><circle cx="84.08" cy="57.17" r="3.36" style="fill:#dda76d"/><path d="M87.07,43.53a3.36,3.36,0,1,0-3.36,3.36,3.35,3.35,0,0,0,3.36-3.36Z" transform="translate(0.37 0.19)" style="fill:#dda76d"/><path d="M60.15,43.53a3.36,3.36,0,1,0-3.36,3.36,3.35,3.35,0,0,0,3.36-3.36Z" transform="translate(0.37 0.19)" style="fill:#dda76d"/><path d="M33.26,43.53a3.36,3.36,0,1,0-3.36,3.36,3.35,3.35,0,0,0,3.36-3.36Z" transform="translate(0.37 0.19)" style="fill:#dda76d"/><path d="M100.53,30.08a3.36,3.36,0,1,0-3.37,3.35h0a3.35,3.35,0,0,0,3.36-3.34Z" transform="translate(0.37 0.19)" style="fill:#dda76d"/><circle cx="70.62" cy="30.27" r="3.36" style="fill:#dda76d"/><path d="M100.53,16.63A3.36,3.36,0,1,0,97.17,20a3.35,3.35,0,0,0,3.36-3.37Z" transform="translate(0.37 0.19)" style="fill:#dda76d"/><path d="M87.07,16.63A3.36,3.36,0,1,0,83.71,20a3.35,3.35,0,0,0,3.36-3.37Z" transform="translate(0.37 0.19)" style="fill:#dda76d"/><path d="M46.69,16.63A3.36,3.36,0,1,0,43.33,20a3.35,3.35,0,0,0,3.36-3.37Z" transform="translate(0.37 0.19)" style="fill:#dda76d"/><path d="M100.53,3.18a3.36,3.36,0,1,0-3.37,3.35h0a3.35,3.35,0,0,0,3.36-3.34Z" transform="translate(0.37 0.19)" style="fill:#dda76d"/><circle cx="70.62" cy="3.37" r="3.36" style="fill:#dda76d"/><circle cx="164.85" cy="3.37" r="3.36" style="fill:#dda76d"/><circle cx="178.3" cy="3.37" r="3.36" style="fill:#dda76d"/><path d="M140.91,124.23a3.36,3.36,0,1,0-3.36,3.36,3.35,3.35,0,0,0,3.36-3.36Z" transform="translate(0.37 0.19)" style="fill:#dda76d"/><path d="M181.29,124.23h0a3.36,3.36,0,0,0-2.68-3.29,3.41,3.41,0,0,0-1.35,0,3.36,3.36,0,0,0-2.68,3.29h0a3.36,3.36,0,0,0,6.71,0Z" transform="translate(0.37 0.19)" style="fill:#dda76d"/><path d="M154.37,137.68h0a3.36,3.36,0,1,0-6.71-.37,2.28,2.28,0,0,0,0,.37h0a3.36,3.36,0,1,0,6.71.37A2.28,2.28,0,0,0,154.37,137.68Z" transform="translate(0.37 0.19)" style="fill:#dda76d"/><path d="M127.45,137.68h0a3.36,3.36,0,1,0-6.71-.37,2.28,2.28,0,0,0,0,.37h0a3.36,3.36,0,0,0,6.71.37A2.28,2.28,0,0,0,127.45,137.68Z" transform="translate(0.37 0.19)" style="fill:#dda76d"/><path d="M114,137.68h0a3.36,3.36,0,1,0-6.71-.37,2.28,2.28,0,0,0,0,.37h0a3.36,3.36,0,0,0,6.71.37A2.28,2.28,0,0,0,114,137.68Z" transform="translate(0.37 0.19)" style="fill:#dda76d"/><path d="M194.75,137.68h0a3.36,3.36,0,1,0-6.71-.37,2.28,2.28,0,0,0,0,.37h0a3.36,3.36,0,0,0,6.71.37A2.28,2.28,0,0,0,194.75,137.68Z" transform="translate(0.37 0.19)" style="fill:#dda76d"/><path d="M167.83,137.68h0a3.36,3.36,0,1,0-6.71-.37,2.28,2.28,0,0,0,0,.37h0a3.36,3.36,0,0,0,6.71.37A2.28,2.28,0,0,0,167.83,137.68Z" transform="translate(0.37 0.19)" style="fill:#dda76d"/><path d="M154.37,151.13a3.36,3.36,0,1,0-3.36,3.36,3.35,3.35,0,0,0,3.36-3.36Z" transform="translate(0.37 0.19)" style="fill:#dda76d"/><path d="M127.45,151.13a3.36,3.36,0,1,0-3.36,3.36,3.35,3.35,0,0,0,3.36-3.36Z" transform="translate(0.37 0.19)" style="fill:#dda76d"/><path d="M194.75,151.13a3.36,3.36,0,1,0-3.36,3.36,3.35,3.35,0,0,0,3.36-3.36Z" transform="translate(0.37 0.19)" style="fill:#dda76d"/><path d="M181.29,151.13h0a3.36,3.36,0,0,0-2.68-3.29,3.41,3.41,0,0,0-1.35,0,3.36,3.36,0,0,0-2.68,3.29h0a3.36,3.36,0,0,0,6.71,0Z" transform="translate(0.37 0.19)" style="fill:#dda76d"/><path d="M167.83,151.13a3.36,3.36,0,1,0-3.36,3.36h0a3.35,3.35,0,0,0,3.35-3.35Z" transform="translate(0.37 0.19)" style="fill:#dda76d"/><circle cx="151.38" cy="164.77" r="3.36" style="fill:#dda76d"/><path d="M140.91,164.58a3.36,3.36,0,1,0-3.36,3.36,3.35,3.35,0,0,0,3.36-3.36Z" transform="translate(0.37 0.19)" style="fill:#dda76d"/><circle cx="124.46" cy="164.77" r="3.36" style="fill:#dda76d"/><circle cx="111" cy="164.77" r="3.36" style="fill:#dda76d"/><circle cx="191.76" cy="164.77" r="3.36" style="fill:#dda76d"/><path d="M181.29,164.58a3.36,3.36,0,1,0-3.36,3.36,3.35,3.35,0,0,0,3.36-3.36Z" transform="translate(0.37 0.19)" style="fill:#dda76d"/><path d="M154.37,178a3.36,3.36,0,1,0-3.36,3.36,3.35,3.35,0,0,0,3.36-3.36Z" transform="translate(0.37 0.19)" style="fill:#dda76d"/><path d="M140.91,178a3.36,3.36,0,1,0-3.36,3.36,3.35,3.35,0,0,0,3.36-3.36Z" transform="translate(0.37 0.19)" style="fill:#dda76d"/><path d="M114,178a3.36,3.36,0,1,0-3.36,3.36A3.35,3.35,0,0,0,114,178Z" transform="translate(0.37 0.19)" style="fill:#dda76d"/><path d="M194.75,178a3.36,3.36,0,1,0-3.36,3.36,3.35,3.35,0,0,0,3.36-3.36Z" transform="translate(0.37 0.19)" style="fill:#dda76d"/><path d="M167.83,178a3.36,3.36,0,1,0-3.36,3.36h0a3.35,3.35,0,0,0,3.35-3.35Z" transform="translate(0.37 0.19)" style="fill:#dda76d"/><path d="M140.91,191.48a3.36,3.36,0,1,0-3.36,3.36,3.35,3.35,0,0,0,3.36-3.36Z" transform="translate(0.37 0.19)" style="fill:#dda76d"/><circle cx="124.46" cy="191.67" r="3.36" style="fill:#dda76d"/><circle cx="191.76" cy="191.67" r="3.36" style="fill:#dda76d"/><path d="M181.29,191.48a3.36,3.36,0,1,0-3.36,3.36,3.35,3.35,0,0,0,3.36-3.36Z" transform="translate(0.37 0.19)" style="fill:#dda76d"/><circle cx="164.85" cy="191.67" r="3.36" style="fill:#dda76d"/><path d="M154.37,204.93a3.36,3.36,0,1,0-3.36,3.36,3.35,3.35,0,0,0,3.36-3.36Z" transform="translate(0.37 0.19)" style="fill:#dda76d"/><path d="M140.91,204.93a3.36,3.36,0,1,0-3.36,3.36,3.35,3.35,0,0,0,3.36-3.36Z" transform="translate(0.37 0.19)" style="fill:#dda76d"/><path d="M127.45,204.93a3.36,3.36,0,1,0-3.36,3.36,3.35,3.35,0,0,0,3.36-3.36Z" transform="translate(0.37 0.19)" style="fill:#dda76d"/><path d="M60.15,164.58a3.36,3.36,0,1,0-3.36,3.36,3.35,3.35,0,0,0,3.36-3.36Z" transform="translate(0.37 0.19)" style="fill:#dda76d"/><path d="M46.69,178a3.36,3.36,0,1,0-3.36,3.36A3.35,3.35,0,0,0,46.69,178Z" transform="translate(0.37 0.19)" style="fill:#dda76d"/><path d="M60.15,191.48a3.36,3.36,0,1,0-3.36,3.36,3.35,3.35,0,0,0,3.36-3.36Z" transform="translate(0.37 0.19)" style="fill:#dda76d"/><path d="M194.75,204.93a3.36,3.36,0,1,0-3.36,3.36,3.35,3.35,0,0,0,3.36-3.36Z" transform="translate(0.37 0.19)" style="fill:#dda76d"/><path d="M181.29,204.93a3.36,3.36,0,1,0-3.36,3.36,3.35,3.35,0,0,0,3.36-3.36Z" transform="translate(0.37 0.19)" style="fill:#dda76d"/><path d="M140.91,218.38a3.36,3.36,0,1,0-3.36,3.36,3.35,3.35,0,0,0,3.36-3.36Z" transform="translate(0.37 0.19)" style="fill:#dda76d"/><circle cx="111" cy="218.57" r="3.36" style="fill:#dda76d"/><circle cx="191.76" cy="218.57" r="3.36" style="fill:#dda76d"/><path d="M181.29,218.38a3.36,3.36,0,1,0-3.36,3.36,3.35,3.35,0,0,0,3.36-3.36Z" transform="translate(0.37 0.19)" style="fill:#dda76d"/><circle cx="164.85" cy="218.57" r="3.36" style="fill:#dda76d"/><circle cx="151.38" cy="218.57" r="3.36" style="fill:#dda76d"/><path d="M154.37,231.83a3.36,3.36,0,1,0-3.36,3.36,3.35,3.35,0,0,0,3.36-3.36Z" transform="translate(0.37 0.19)" style="fill:#dda76d"/><path d="M127.45,231.83a3.36,3.36,0,1,0-3.36,3.36,3.35,3.35,0,0,0,3.36-3.36Z" transform="translate(0.37 0.19)" style="fill:#dda76d"/><path d="M114,231.83a3.36,3.36,0,1,0-3.36,3.36,3.35,3.35,0,0,0,3.36-3.36Z" transform="translate(0.37 0.19)" style="fill:#dda76d"/><path d="M194.75,231.83a3.36,3.36,0,1,0-3.36,3.36,3.35,3.35,0,0,0,3.36-3.36Z" transform="translate(0.37 0.19)" style="fill:#dda76d"/><path d="M167.83,231.83a3.36,3.36,0,1,0-3.36,3.36h0a3.35,3.35,0,0,0,3.35-3.35Z" transform="translate(0.37 0.19)" style="fill:#dda76d"/><circle cx="151.38" cy="245.47" r="3.36" style="fill:#dda76d"/><path d="M140.91,245.28a3.36,3.36,0,1,0-3.36,3.36,3.35,3.35,0,0,0,3.36-3.36Z" transform="translate(0.37 0.19)" style="fill:#dda76d"/><circle cx="111" cy="245.47" r="3.36" style="fill:#dda76d"/><circle cx="191.76" cy="245.47" r="3.36" style="fill:#dda76d"/><path d="M154.37,258.73a3.36,3.36,0,1,0-3.36,3.36h0A3.35,3.35,0,0,0,154.37,258.73Z" transform="translate(0.37 0.19)" style="fill:#dda76d"/><path d="M127.45,258.73a3.36,3.36,0,1,0-3.36,3.36h0A3.35,3.35,0,0,0,127.45,258.73Z" transform="translate(0.37 0.19)" style="fill:#dda76d"/><path d="M194.75,258.73a3.36,3.36,0,1,0-3.36,3.36h0A3.35,3.35,0,0,0,194.75,258.73Z" transform="translate(0.37 0.19)" style="fill:#dda76d"/><path d="M167.83,258.73a3.36,3.36,0,1,0-3.36,3.36h0A3.37,3.37,0,0,0,167.83,258.73Z" transform="translate(0.37 0.19)" style="fill:#dda76d"/><circle cx="124.46" cy="272.37" r="3.36" style="fill:#dda76d"/><path d="M100.53,124.23h0a3.36,3.36,0,0,0-2.68-3.29,3.41,3.41,0,0,0-1.35,0,3.37,3.37,0,0,0-2.69,3.29h0a3.36,3.36,0,0,0,6.72,0Z" transform="translate(0.37 0.19)" style="fill:#dda76d"/><path d="M73.61,124.23a3.36,3.36,0,1,0-3.36,3.36,3.35,3.35,0,0,0,3.36-3.36Z" transform="translate(0.37 0.19)" style="fill:#dda76d"/><path d="M87.07,137.68h0a3.36,3.36,0,1,0-6.71-.37,2.28,2.28,0,0,0,0,.37h0a3.36,3.36,0,0,0,6.71.37A2.28,2.28,0,0,0,87.07,137.68Z" transform="translate(0.37 0.19)" style="fill:#dda76d"/><path d="M46.69,137.68h0a3.36,3.36,0,1,0-6.71-.37,2.28,2.28,0,0,0,0,.37h0a3.36,3.36,0,0,0,6.71.37A2.28,2.28,0,0,0,46.69,137.68Z" transform="translate(0.37 0.19)" style="fill:#dda76d"/><path d="M73.61,137.68h0a3.36,3.36,0,1,0-6.71-.37,2.28,2.28,0,0,0,0,.37h0a3.36,3.36,0,0,0,6.71.37A2.28,2.28,0,0,0,73.61,137.68Z" transform="translate(0.37 0.19)" style="fill:#dda76d"/><path d="M100.53,151.13h0a3.36,3.36,0,0,0-2.68-3.29,3.41,3.41,0,0,0-1.35,0,3.37,3.37,0,0,0-2.69,3.29h0a3.36,3.36,0,0,0,6.72,0Z" transform="translate(0.37 0.19)" style="fill:#dda76d"/><circle cx="84.08" cy="164.77" r="3.36" style="fill:#dda76d"/><path d="M100.53,178a3.36,3.36,0,1,0-3.36,3.36,3.35,3.35,0,0,0,3.36-3.36Z" transform="translate(0.37 0.19)" style="fill:#dda76d"/><path d="M73.61,178a3.36,3.36,0,1,0-3.36,3.36A3.35,3.35,0,0,0,73.61,178Z" transform="translate(0.37 0.19)" style="fill:#dda76d"/><path d="M100.53,191.48a3.36,3.36,0,1,0-3.36,3.36,3.35,3.35,0,0,0,3.36-3.36Z" transform="translate(0.37 0.19)" style="fill:#dda76d"/><circle cx="84.08" cy="191.67" r="3.36" style="fill:#dda76d"/><path d="M100.53,204.93a3.36,3.36,0,1,0-3.36,3.36,3.35,3.35,0,0,0,3.36-3.36Z" transform="translate(0.37 0.19)" style="fill:#dda76d"/><path d="M73.61,204.93a3.36,3.36,0,1,0-3.36,3.36,3.35,3.35,0,0,0,3.36-3.36Z" transform="translate(0.37 0.19)" style="fill:#dda76d"/><circle cx="84.08" cy="218.57" r="3.36" style="fill:#dda76d"/><path d="M87.07,231.83a3.36,3.36,0,1,0-3.36,3.36,3.35,3.35,0,0,0,3.36-3.36Z" transform="translate(0.37 0.19)" style="fill:#dda76d"/><path d="M60.15,231.83a3.36,3.36,0,1,0-3.36,3.36,3.35,3.35,0,0,0,3.36-3.36Z" transform="translate(0.37 0.19)" style="fill:#dda76d"/><path d="M33.26,231.83a3.36,3.36,0,1,0-3.36,3.36,3.35,3.35,0,0,0,3.36-3.36Z" transform="translate(0.37 0.19)" style="fill:#dda76d"/><path d="M100.53,245.28a3.36,3.36,0,1,0-3.36,3.36,3.35,3.35,0,0,0,3.36-3.36Z" transform="translate(0.37 0.19)" style="fill:#dda76d"/><circle cx="70.62" cy="245.47" r="3.36" style="fill:#dda76d"/><path d="M100.53,258.73a3.36,3.36,0,1,0-3.36,3.36h0A3.35,3.35,0,0,0,100.53,258.73Z" transform="translate(0.37 0.19)" style="fill:#dda76d"/><path d="M87.07,258.73a3.36,3.36,0,1,0-3.36,3.36h0A3.35,3.35,0,0,0,87.07,258.73Z" transform="translate(0.37 0.19)" style="fill:#dda76d"/><path d="M46.69,258.73a3.36,3.36,0,1,0-3.36,3.36h0A3.35,3.35,0,0,0,46.69,258.73Z" transform="translate(0.37 0.19)" style="fill:#dda76d"/><path d="M100.53,272.18a3.36,3.36,0,1,0-3.36,3.36h0A3.35,3.35,0,0,0,100.53,272.18Z" transform="translate(0.37 0.19)" style="fill:#dda76d"/><path d="M73.61,272.18a3.36,3.36,0,1,0-3.36,3.36h0A3.35,3.35,0,0,0,73.61,272.18Z" transform="translate(0.37 0.19)" style="fill:#dda76d"/><circle cx="164.85" cy="272.37" r="3.36" style="fill:#dda76d"/><path d="M140.91,702.59a3.36,3.36,0,1,0-3.36,3.36h0a3.35,3.35,0,0,0,3.36-3.34Z" transform="translate(0.37 0.19)" style="fill:#dda76d"/><path d="M154.37,675.69a3.36,3.36,0,1,0-3.36,3.36h0a3.35,3.35,0,0,0,3.36-3.34Z" transform="translate(0.37 0.19)" style="fill:#dda76d"/><path d="M127.45,675.69a3.36,3.36,0,1,0-3.36,3.36h0a3.35,3.35,0,0,0,3.36-3.34Z" transform="translate(0.37 0.19)" style="fill:#dda76d"/><path d="M194.75,675.69a3.36,3.36,0,1,0-3.36,3.36h0a3.35,3.35,0,0,0,3.36-3.34Z" transform="translate(0.37 0.19)" style="fill:#dda76d"/><path d="M167.83,675.69a3.36,3.36,0,1,0-3.36,3.36h0a3.35,3.35,0,0,0,3.35-3.35Z" transform="translate(0.37 0.19)" style="fill:#dda76d"/><circle cx="151.38" cy="662.43" r="3.36" style="fill:#dda76d"/><path d="M140.91,662.24a3.36,3.36,0,1,0-3.36,3.36h0a3.35,3.35,0,0,0,3.36-3.34Z" transform="translate(0.37 0.19)" style="fill:#dda76d"/><circle cx="124.46" cy="662.43" r="3.36" style="fill:#dda76d"/><circle cx="111" cy="662.43" r="3.36" style="fill:#dda76d"/><circle cx="191.76" cy="662.43" r="3.36" style="fill:#dda76d"/><path d="M181.29,662.24a3.36,3.36,0,1,0-3.36,3.36h0a3.35,3.35,0,0,0,3.36-3.34Z" transform="translate(0.37 0.19)" style="fill:#dda76d"/><path d="M154.37,648.79a3.36,3.36,0,1,0-3.36,3.36h0a3.35,3.35,0,0,0,3.36-3.34Z" transform="translate(0.37 0.19)" style="fill:#dda76d"/><path d="M140.91,648.79a3.36,3.36,0,1,0-3.36,3.36h0a3.35,3.35,0,0,0,3.36-3.34Z" transform="translate(0.37 0.19)" style="fill:#dda76d"/><path d="M114,648.79a3.36,3.36,0,1,0-3.36,3.36h0a3.35,3.35,0,0,0,3.36-3.34Z" transform="translate(0.37 0.19)" style="fill:#dda76d"/><path d="M194.75,648.79a3.36,3.36,0,1,0-3.36,3.36h0a3.35,3.35,0,0,0,3.36-3.34Z" transform="translate(0.37 0.19)" style="fill:#dda76d"/><path d="M167.83,648.79a3.36,3.36,0,1,0-3.36,3.36h0a3.35,3.35,0,0,0,3.35-3.35Z" transform="translate(0.37 0.19)" style="fill:#dda76d"/><path d="M140.91,635.34a3.36,3.36,0,1,0-3.36,3.36h0a3.35,3.35,0,0,0,3.36-3.34Z" transform="translate(0.37 0.19)" style="fill:#dda76d"/><circle cx="124.46" cy="635.53" r="3.36" style="fill:#dda76d"/><circle cx="191.76" cy="635.53" r="3.36" style="fill:#dda76d"/><path d="M181.29,635.34a3.36,3.36,0,1,0-3.36,3.36h0a3.35,3.35,0,0,0,3.36-3.34Z" transform="translate(0.37 0.19)" style="fill:#dda76d"/><circle cx="164.85" cy="635.53" r="3.36" style="fill:#dda76d"/><path d="M154.37,621.89a3.36,3.36,0,1,0-3.36,3.36h0a3.35,3.35,0,0,0,3.36-3.34Z" transform="translate(0.37 0.19)" style="fill:#dda76d"/><path d="M140.91,621.89a3.36,3.36,0,1,0-3.36,3.36h0a3.35,3.35,0,0,0,3.36-3.34Z" transform="translate(0.37 0.19)" style="fill:#dda76d"/><path d="M127.45,621.89a3.36,3.36,0,1,0-3.36,3.36h0a3.35,3.35,0,0,0,3.36-3.34Z" transform="translate(0.37 0.19)" style="fill:#dda76d"/><path d="M60.15,662.24a3.36,3.36,0,1,0-3.36,3.36h0a3.35,3.35,0,0,0,3.36-3.34Z" transform="translate(0.37 0.19)" style="fill:#dda76d"/><path d="M46.69,648.79a3.36,3.36,0,1,0-3.36,3.36h0a3.35,3.35,0,0,0,3.36-3.34Z" transform="translate(0.37 0.19)" style="fill:#dda76d"/><path d="M60.15,635.34a3.36,3.36,0,1,0-3.36,3.36h0a3.35,3.35,0,0,0,3.36-3.34Z" transform="translate(0.37 0.19)" style="fill:#dda76d"/><path d="M60.15,621.89a3.36,3.36,0,1,0-3.36,3.36h0a3.35,3.35,0,0,0,3.36-3.34Z" transform="translate(0.37 0.19)" style="fill:#dda76d"/><path d="M194.75,621.89a3.36,3.36,0,1,0-3.36,3.36h0a3.35,3.35,0,0,0,3.36-3.34Z" transform="translate(0.37 0.19)" style="fill:#dda76d"/><path d="M181.29,621.89a3.36,3.36,0,1,0-3.36,3.36h0a3.35,3.35,0,0,0,3.36-3.34Z" transform="translate(0.37 0.19)" style="fill:#dda76d"/><path d="M167.83,621.89a3.36,3.36,0,1,0-3.36,3.36h0a3.35,3.35,0,0,0,3.35-3.35Z" transform="translate(0.37 0.19)" style="fill:#dda76d"/><path d="M140.91,608.44a3.36,3.36,0,1,0-3.37,3.35h0a3.35,3.35,0,0,0,3.36-3.34Z" transform="translate(0.37 0.19)" style="fill:#dda76d"/><circle cx="111" cy="608.63" r="3.36" style="fill:#dda76d"/><circle cx="191.76" cy="608.63" r="3.36" style="fill:#dda76d"/><path d="M181.29,608.44a3.36,3.36,0,1,0-3.37,3.35h0a3.35,3.35,0,0,0,3.36-3.34Z" transform="translate(0.37 0.19)" style="fill:#dda76d"/><circle cx="164.85" cy="608.63" r="3.36" style="fill:#dda76d"/><circle cx="151.38" cy="608.63" r="3.36" style="fill:#dda76d"/><path d="M154.37,595a3.36,3.36,0,1,0-3.36,3.36h0a3.35,3.35,0,0,0,3.36-3.34Z" transform="translate(0.37 0.19)" style="fill:#dda76d"/><path d="M127.45,595a3.36,3.36,0,1,0-3.36,3.36h0a3.35,3.35,0,0,0,3.36-3.34Z" transform="translate(0.37 0.19)" style="fill:#dda76d"/><path d="M114,595a3.36,3.36,0,1,0-3.36,3.36h0A3.35,3.35,0,0,0,114,595Z" transform="translate(0.37 0.19)" style="fill:#dda76d"/><path d="M194.75,595a3.36,3.36,0,1,0-3.36,3.36h0a3.35,3.35,0,0,0,3.36-3.34Z" transform="translate(0.37 0.19)" style="fill:#dda76d"/><path d="M167.83,595a3.36,3.36,0,1,0-3.36,3.36h0a3.35,3.35,0,0,0,3.35-3.35Z" transform="translate(0.37 0.19)" style="fill:#dda76d"/><path d="M140.91,581.54a3.36,3.36,0,1,0-3.37,3.35h0a3.35,3.35,0,0,0,3.36-3.34Z" transform="translate(0.37 0.19)" style="fill:#dda76d"/><circle cx="111" cy="581.73" r="3.36" style="fill:#dda76d"/><circle cx="164.85" cy="581.73" r="3.36" style="fill:#dda76d"/><path d="M194.75,568.09a3.36,3.36,0,1,0-3.36,3.36h0a3.35,3.35,0,0,0,3.36-3.34Z" transform="translate(0.37 0.19)" style="fill:#dda76d"/><path d="M73.61,702.59a3.38,3.38,0,1,0,0,.07Z" transform="translate(0.37 0.19)" style="fill:#dda76d"/><circle cx="84.08" cy="662.43" r="3.36" style="fill:#dda76d"/><path d="M100.53,648.79a3.36,3.36,0,1,0-3.36,3.36h0a3.35,3.35,0,0,0,3.36-3.34Z" transform="translate(0.37 0.19)" style="fill:#dda76d"/><path d="M73.61,648.79a3.36,3.36,0,1,0-3.36,3.36h0a3.35,3.35,0,0,0,3.36-3.34Z" transform="translate(0.37 0.19)" style="fill:#dda76d"/><path d="M100.53,635.34a3.36,3.36,0,1,0-3.36,3.36h0a3.35,3.35,0,0,0,3.36-3.34Z" transform="translate(0.37 0.19)" style="fill:#dda76d"/><circle cx="84.08" cy="635.53" r="3.36" style="fill:#dda76d"/><path d="M100.53,621.89a3.36,3.36,0,1,0-3.36,3.36h0a3.35,3.35,0,0,0,3.36-3.34Z" transform="translate(0.37 0.19)" style="fill:#dda76d"/><path d="M73.61,621.89a3.36,3.36,0,1,0-3.36,3.36h0a3.35,3.35,0,0,0,3.36-3.34Z" transform="translate(0.37 0.19)" style="fill:#dda76d"/><circle cx="84.08" cy="608.63" r="3.36" style="fill:#dda76d"/><path d="M87.07,595a3.36,3.36,0,1,0-3.36,3.36h0A3.35,3.35,0,0,0,87.07,595Z" transform="translate(0.37 0.19)" style="fill:#dda76d"/><path d="M60.15,595a3.36,3.36,0,1,0-3.36,3.36h0A3.35,3.35,0,0,0,60.15,595Z" transform="translate(0.37 0.19)" style="fill:#dda76d"/><path d="M33.26,595a3.36,3.36,0,1,0-3.36,3.36h0A3.35,3.35,0,0,0,33.26,595Z" transform="translate(0.37 0.19)" style="fill:#dda76d"/><path d="M100.53,581.54a3.36,3.36,0,1,0-3.37,3.35h0a3.35,3.35,0,0,0,3.36-3.34Z" transform="translate(0.37 0.19)" style="fill:#dda76d"/><circle cx="70.62" cy="581.73" r="3.36" style="fill:#dda76d"/><path d="M87.07,568.09a3.36,3.36,0,1,0-3.36,3.36h0a3.35,3.35,0,0,0,3.36-3.34Z" transform="translate(0.37 0.19)" style="fill:#dda76d"/><path d="M46.69,568.09a3.36,3.36,0,1,0-3.36,3.36h0a3.35,3.35,0,0,0,3.36-3.34Z" transform="translate(0.37 0.19)" style="fill:#dda76d"/><circle cx="70.62" cy="554.83" r="3.36" style="fill:#dda76d"/><path d="M140.91,675.69a3.36,3.36,0,1,0-3.36,3.36h0a3.35,3.35,0,0,0,3.36-3.34Z" transform="translate(0.37 0.19)" style="fill:#dda76d"/><path d="M181.29,675.69h0a3.36,3.36,0,0,0-2.68-3.29,3.41,3.41,0,0,0-1.35,0,3.36,3.36,0,0,0-2.68,3.29h0a3.36,3.36,0,0,0,6.71,0Z" transform="translate(0.37 0.19)" style="fill:#dda76d"/><path d="M154.37,689.14h0a3.36,3.36,0,1,0-6.71-.37,2.28,2.28,0,0,0,0,.37h0a3.36,3.36,0,0,0,6.71.37A2.28,2.28,0,0,0,154.37,689.14Z" transform="translate(0.37 0.19)" style="fill:#dda76d"/><path d="M127.45,689.14h0a3.36,3.36,0,1,0-6.71-.37,2.28,2.28,0,0,0,0,.37h0a3.36,3.36,0,0,0,6.71.37A2.28,2.28,0,0,0,127.45,689.14Z" transform="translate(0.37 0.19)" style="fill:#dda76d"/><path d="M114,689.14h0a3.36,3.36,0,1,0-6.71-.37,2.28,2.28,0,0,0,0,.37h0a3.36,3.36,0,0,0,6.71.37A2.28,2.28,0,0,0,114,689.14Z" transform="translate(0.37 0.19)" style="fill:#dda76d"/><path d="M194.75,689.14h0a3.36,3.36,0,1,0-6.71-.37,2.28,2.28,0,0,0,0,.37h0a3.36,3.36,0,0,0,6.71.37A2.28,2.28,0,0,0,194.75,689.14Z" transform="translate(0.37 0.19)" style="fill:#dda76d"/><path d="M167.83,689.14h0a3.36,3.36,0,1,0-6.71-.37,2.28,2.28,0,0,0,0,.37h0a3.36,3.36,0,0,0,6.71.37A2.28,2.28,0,0,0,167.83,689.14Z" transform="translate(0.37 0.19)" style="fill:#dda76d"/><path d="M154.37,702.59a3.37,3.37,0,1,0,0,.08Z" transform="translate(0.37 0.19)" style="fill:#dda76d"/><path d="M127.45,702.59a3.36,3.36,0,1,0-3.36,3.36h0a3.35,3.35,0,0,0,3.36-3.34Z" transform="translate(0.37 0.19)" style="fill:#dda76d"/><path d="M194.75,702.59a3.36,3.36,0,1,0-3.36,3.36h0a3.35,3.35,0,0,0,3.36-3.34Z" transform="translate(0.37 0.19)" style="fill:#dda76d"/><path d="M181.29,702.59h0a3.36,3.36,0,0,0-2.68-3.29,3.41,3.41,0,0,0-1.35,0,3.36,3.36,0,0,0-2.68,3.29h0a3.36,3.36,0,0,0,6.71,0Z" transform="translate(0.37 0.19)" style="fill:#dda76d"/><path d="M167.83,702.59a3.36,3.36,0,1,0-3.36,3.36h0a3.35,3.35,0,0,0,3.35-3.35Z" transform="translate(0.37 0.19)" style="fill:#dda76d"/><circle cx="151.38" cy="716.23" r="3.36" style="fill:#dda76d"/><path d="M140.91,716a3.36,3.36,0,1,0-3.36,3.36h0a3.35,3.35,0,0,0,3.36-3.34Z" transform="translate(0.37 0.19)" style="fill:#dda76d"/><circle cx="124.46" cy="716.23" r="3.36" style="fill:#dda76d"/><circle cx="111" cy="716.23" r="3.36" style="fill:#dda76d"/><circle cx="191.76" cy="716.23" r="3.36" style="fill:#dda76d"/><path d="M181.29,716a3.36,3.36,0,1,0-3.36,3.36h0a3.35,3.35,0,0,0,3.36-3.34Z" transform="translate(0.37 0.19)" style="fill:#dda76d"/><path d="M154.37,729.49a3.36,3.36,0,1,0-3.36,3.36h0a3.35,3.35,0,0,0,3.36-3.34Z" transform="translate(0.37 0.19)" style="fill:#dda76d"/><path d="M140.91,729.49a3.36,3.36,0,1,0-3.36,3.36h0a3.35,3.35,0,0,0,3.36-3.34Z" transform="translate(0.37 0.19)" style="fill:#dda76d"/><path d="M114,729.49a3.36,3.36,0,1,0-3.36,3.36h0a3.35,3.35,0,0,0,3.36-3.34Z" transform="translate(0.37 0.19)" style="fill:#dda76d"/><path d="M194.75,729.49a3.36,3.36,0,1,0-3.36,3.36h0a3.35,3.35,0,0,0,3.36-3.34Z" transform="translate(0.37 0.19)" style="fill:#dda76d"/><path d="M181.29,729.49a3.36,3.36,0,1,0-3.36,3.36h0a3.35,3.35,0,0,0,3.36-3.34Z" transform="translate(0.37 0.19)" style="fill:#dda76d"/><path d="M167.83,729.49a3.36,3.36,0,1,0-3.36,3.36h0a3.35,3.35,0,0,0,3.35-3.35Z" transform="translate(0.37 0.19)" style="fill:#dda76d"/><path d="M140.91,742.94a3.36,3.36,0,1,0-3.36,3.36h0a3.35,3.35,0,0,0,3.36-3.34Z" transform="translate(0.37 0.19)" style="fill:#dda76d"/><circle cx="124.46" cy="743.13" r="3.36" style="fill:#dda76d"/><circle cx="191.76" cy="743.13" r="3.36" style="fill:#dda76d"/><path d="M181.29,742.94a3.36,3.36,0,1,0-3.36,3.36h0a3.35,3.35,0,0,0,3.36-3.34Z" transform="translate(0.37 0.19)" style="fill:#dda76d"/><circle cx="164.85" cy="743.13" r="3.36" style="fill:#dda76d"/><path d="M154.37,756.39a3.36,3.36,0,1,0-3.36,3.36h0a3.35,3.35,0,0,0,3.36-3.34Z" transform="translate(0.37 0.19)" style="fill:#dda76d"/><path d="M140.91,756.39a3.36,3.36,0,1,0-3.36,3.36h0a3.35,3.35,0,0,0,3.36-3.34Z" transform="translate(0.37 0.19)" style="fill:#dda76d"/><path d="M127.45,756.39a3.36,3.36,0,1,0-3.36,3.36h0a3.35,3.35,0,0,0,3.36-3.34Z" transform="translate(0.37 0.19)" style="fill:#dda76d"/><path d="M60.15,716a3.36,3.36,0,1,0-3.36,3.36h0A3.35,3.35,0,0,0,60.15,716Z" transform="translate(0.37 0.19)" style="fill:#dda76d"/><path d="M46.69,729.49a3.36,3.36,0,1,0-3.36,3.36h0a3.35,3.35,0,0,0,3.36-3.34Z" transform="translate(0.37 0.19)" style="fill:#dda76d"/><path d="M60.15,742.94a3.36,3.36,0,1,0-3.36,3.36h0A3.35,3.35,0,0,0,60.15,743Z" transform="translate(0.37 0.19)" style="fill:#dda76d"/><path d="M60.15,756.39a3.36,3.36,0,1,0-3.36,3.36h0a3.35,3.35,0,0,0,3.36-3.34Z" transform="translate(0.37 0.19)" style="fill:#dda76d"/><path d="M194.75,756.39a3.36,3.36,0,1,0-3.36,3.36h0a3.35,3.35,0,0,0,3.36-3.34Z" transform="translate(0.37 0.19)" style="fill:#dda76d"/><path d="M167.83,756.39a3.36,3.36,0,1,0-3.36,3.36h0a3.35,3.35,0,0,0,3.35-3.35Z" transform="translate(0.37 0.19)" style="fill:#dda76d"/><path d="M140.91,769.84a3.36,3.36,0,1,0-3.36,3.36h0a3.35,3.35,0,0,0,3.36-3.34Z" transform="translate(0.37 0.19)" style="fill:#dda76d"/><circle cx="111" cy="770.03" r="3.36" style="fill:#dda76d"/><circle cx="191.76" cy="770.03" r="3.36" style="fill:#dda76d"/><path d="M181.29,769.84a3.36,3.36,0,1,0-3.36,3.36h0a3.35,3.35,0,0,0,3.36-3.34Z" transform="translate(0.37 0.19)" style="fill:#dda76d"/><circle cx="151.38" cy="770.03" r="3.36" style="fill:#dda76d"/><path d="M154.37,783.29a3.36,3.36,0,1,0-3.36,3.36h0a3.35,3.35,0,0,0,3.36-3.34Z" transform="translate(0.37 0.19)" style="fill:#dda76d"/><path d="M127.45,783.29a3.36,3.36,0,1,0-3.36,3.36h0a3.35,3.35,0,0,0,3.36-3.34Z" transform="translate(0.37 0.19)" style="fill:#dda76d"/><path d="M114,783.29a3.36,3.36,0,1,0-3.36,3.36h0a3.35,3.35,0,0,0,3.36-3.34Z" transform="translate(0.37 0.19)" style="fill:#dda76d"/><path d="M194.75,783.29a3.36,3.36,0,1,0-3.36,3.36h0a3.35,3.35,0,0,0,3.36-3.34Z" transform="translate(0.37 0.19)" style="fill:#dda76d"/><path d="M167.83,783.29a3.36,3.36,0,1,0-3.36,3.36h0a3.35,3.35,0,0,0,3.35-3.35Z" transform="translate(0.37 0.19)" style="fill:#dda76d"/><circle cx="151.38" cy="796.93" r="3.36" style="fill:#dda76d"/><path d="M140.91,796.74a3.36,3.36,0,1,0-3.36,3.36h0a3.35,3.35,0,0,0,3.36-3.34Z" transform="translate(0.37 0.19)" style="fill:#dda76d"/><circle cx="111" cy="796.93" r="3.36" style="fill:#dda76d"/><circle cx="191.76" cy="796.93" r="3.36" style="fill:#dda76d"/><circle cx="164.85" cy="796.93" r="3.36" style="fill:#dda76d"/><path d="M154.37,810.19a3.36,3.36,0,1,0-3.36,3.36h0A3.35,3.35,0,0,0,154.37,810.19Z" transform="translate(0.37 0.19)" style="fill:#dda76d"/><path d="M127.45,810.19a3.36,3.36,0,1,0-3.36,3.36h0A3.35,3.35,0,0,0,127.45,810.19Z" transform="translate(0.37 0.19)" style="fill:#dda76d"/><path d="M194.75,810.19a3.36,3.36,0,1,0-3.36,3.36h0A3.35,3.35,0,0,0,194.75,810.19Z" transform="translate(0.37 0.19)" style="fill:#dda76d"/><path d="M167.83,810.19a3.36,3.36,0,1,0-3.36,3.36h0A3.37,3.37,0,0,0,167.83,810.19Z" transform="translate(0.37 0.19)" style="fill:#dda76d"/><circle cx="178.3" cy="796.93" r="3.36" style="fill:#dda76d"/><path d="M181.29,810.19a3.36,3.36,0,1,0-3.36,3.36h0A3.35,3.35,0,0,0,181.29,810.19Z" transform="translate(0.37 0.19)" style="fill:#dda76d"/><circle cx="151.38" cy="823.83" r="3.36" style="fill:#dda76d"/><circle cx="124.46" cy="823.83" r="3.36" style="fill:#dda76d"/><path d="M100.53,675.69h0a3.36,3.36,0,0,0-2.68-3.29,3.41,3.41,0,0,0-1.35,0,3.36,3.36,0,0,0-2.69,3.29h0a3.36,3.36,0,0,0,6.72,0Z" transform="translate(0.37 0.19)" style="fill:#dda76d"/><path d="M73.61,675.69a3.36,3.36,0,1,0-3.36,3.36h0a3.35,3.35,0,0,0,3.36-3.34Z" transform="translate(0.37 0.19)" style="fill:#dda76d"/><path d="M87.07,689.14h0a3.36,3.36,0,1,0-6.71-.37,2.28,2.28,0,0,0,0,.37h0a3.36,3.36,0,0,0,6.71.37A2.28,2.28,0,0,0,87.07,689.14Z" transform="translate(0.37 0.19)" style="fill:#dda76d"/><path d="M46.69,689.14h0a3.36,3.36,0,1,0-6.71-.37,2.28,2.28,0,0,0,0,.37h0a3.36,3.36,0,0,0,6.71.37A2.28,2.28,0,0,0,46.69,689.14Z" transform="translate(0.37 0.19)" style="fill:#dda76d"/><path d="M73.61,689.14h0a3.36,3.36,0,1,0-6.71-.37,2.28,2.28,0,0,0,0,.37h0a3.36,3.36,0,0,0,6.71.37A2.28,2.28,0,0,0,73.61,689.14Z" transform="translate(0.37 0.19)" style="fill:#dda76d"/><path d="M100.53,702.59h0a3.36,3.36,0,0,0-2.68-3.29,3.41,3.41,0,0,0-1.35,0,3.37,3.37,0,0,0-2.69,3.29h0a3.36,3.36,0,0,0,6.72,0Z" transform="translate(0.37 0.19)" style="fill:#dda76d"/><circle cx="84.08" cy="716.23" r="3.36" style="fill:#dda76d"/><path d="M100.53,729.49a3.36,3.36,0,1,0-3.36,3.36h0a3.35,3.35,0,0,0,3.36-3.34Z" transform="translate(0.37 0.19)" style="fill:#dda76d"/><path d="M73.61,729.49a3.36,3.36,0,1,0-3.36,3.36h0a3.35,3.35,0,0,0,3.36-3.34Z" transform="translate(0.37 0.19)" style="fill:#dda76d"/><path d="M100.53,742.94a3.36,3.36,0,1,0-3.36,3.36h0a3.35,3.35,0,0,0,3.36-3.34Z" transform="translate(0.37 0.19)" style="fill:#dda76d"/><circle cx="84.08" cy="743.13" r="3.36" style="fill:#dda76d"/><path d="M100.53,756.39a3.36,3.36,0,1,0-3.36,3.36h0a3.35,3.35,0,0,0,3.36-3.34Z" transform="translate(0.37 0.19)" style="fill:#dda76d"/><path d="M73.61,756.39a3.36,3.36,0,1,0-3.36,3.36h0a3.35,3.35,0,0,0,3.36-3.34Z" transform="translate(0.37 0.19)" style="fill:#dda76d"/><circle cx="84.08" cy="770.03" r="3.36" style="fill:#dda76d"/><path d="M87.07,783.29a3.36,3.36,0,1,0-3.36,3.36h0a3.35,3.35,0,0,0,3.36-3.34Z" transform="translate(0.37 0.19)" style="fill:#dda76d"/><path d="M60.15,783.29a3.36,3.36,0,1,0-3.36,3.36h0a3.35,3.35,0,0,0,3.36-3.34Z" transform="translate(0.37 0.19)" style="fill:#dda76d"/><path d="M33.26,783.29a3.36,3.36,0,1,0-3.36,3.36h0A3.35,3.35,0,0,0,33.26,783.29Z" transform="translate(0.37 0.19)" style="fill:#dda76d"/><path d="M100.53,796.74a3.36,3.36,0,1,0-3.36,3.36h0a3.35,3.35,0,0,0,3.36-3.34Z" transform="translate(0.37 0.19)" style="fill:#dda76d"/><circle cx="70.62" cy="796.93" r="3.36" style="fill:#dda76d"/><path d="M100.53,810.19a3.36,3.36,0,1,0-3.36,3.36h0A3.35,3.35,0,0,0,100.53,810.19Z" transform="translate(0.37 0.19)" style="fill:#dda76d"/><path d="M87.07,810.19a3.36,3.36,0,1,0-3.36,3.36h0A3.35,3.35,0,0,0,87.07,810.19Z" transform="translate(0.37 0.19)" style="fill:#dda76d"/><path d="M46.69,810.19a3.36,3.36,0,1,0-3.36,3.36h0A3.35,3.35,0,0,0,46.69,810.19Z" transform="translate(0.37 0.19)" style="fill:#dda76d"/><path d="M100.53,823.64A3.36,3.36,0,1,0,97.17,827h0A3.35,3.35,0,0,0,100.53,823.64Z" transform="translate(0.37 0.19)" style="fill:#dda76d"/><circle cx="70.62" cy="823.83" r="3.36" style="fill:#dda76d"/><circle cx="164.85" cy="823.83" r="3.36" style="fill:#dda76d"/><circle cx="178.3" cy="823.83" r="3.36" style="fill:#dda76d"/><path d="M140.91,420.13a3.36,3.36,0,1,0-3.36,3.36h0A3.35,3.35,0,0,0,140.91,420.13Z" transform="translate(0.37 0.19)" style="fill:#dda76d"/><path d="M181.29,420.13a3.36,3.36,0,1,0-3.36,3.36h0A3.35,3.35,0,0,0,181.29,420.13Z" transform="translate(0.37 0.19)" style="fill:#dda76d"/><circle cx="151.38" cy="433.77" r="3.36" style="fill:#dda76d"/><circle cx="124.46" cy="433.77" r="3.36" style="fill:#dda76d"/><circle cx="111" cy="433.77" r="3.36" style="fill:#dda76d"/><circle cx="191.76" cy="433.77" r="3.36" style="fill:#dda76d"/><circle cx="164.85" cy="433.77" r="3.36" style="fill:#dda76d"/><path d="M154.37,447a3.36,3.36,0,1,0-3.36,3.36h0A3.35,3.35,0,0,0,154.37,447Z" transform="translate(0.37 0.19)" style="fill:#dda76d"/><path d="M127.45,447a3.36,3.36,0,1,0-3.36,3.36h0A3.35,3.35,0,0,0,127.45,447Z" transform="translate(0.37 0.19)" style="fill:#dda76d"/><path d="M194.75,447a3.36,3.36,0,1,0-3.36,3.36h0A3.35,3.35,0,0,0,194.75,447Z" transform="translate(0.37 0.19)" style="fill:#dda76d"/><path d="M181.29,447a3.36,3.36,0,1,0-3.36,3.36h0A3.35,3.35,0,0,0,181.29,447Z" transform="translate(0.37 0.19)" style="fill:#dda76d"/><path d="M167.83,447a3.36,3.36,0,1,0-3.36,3.36h0A3.37,3.37,0,0,0,167.83,447Z" transform="translate(0.37 0.19)" style="fill:#dda76d"/><circle cx="151.38" cy="460.67" r="3.36" style="fill:#dda76d"/><path d="M140.91,460.48a3.36,3.36,0,1,0-3.36,3.36h0a3.35,3.35,0,0,0,3.36-3.34Z" transform="translate(0.37 0.19)" style="fill:#dda76d"/><circle cx="124.46" cy="460.67" r="3.36" style="fill:#dda76d"/><circle cx="111" cy="460.67" r="3.36" style="fill:#dda76d"/><path d="M181.29,460.48a3.36,3.36,0,1,0-3.36,3.36h0a3.35,3.35,0,0,0,3.36-3.34Z" transform="translate(0.37 0.19)" style="fill:#dda76d"/><path d="M154.37,473.94a3.36,3.36,0,1,0-3.37,3.35h0a3.35,3.35,0,0,0,3.36-3.34Z" transform="translate(0.37 0.19)" style="fill:#dda76d"/><path d="M140.91,473.94a3.36,3.36,0,1,0-3.37,3.35h0a3.35,3.35,0,0,0,3.36-3.34Z" transform="translate(0.37 0.19)" style="fill:#dda76d"/><path d="M114,473.94a3.36,3.36,0,1,0-3.37,3.35h0A3.35,3.35,0,0,0,114,474Z" transform="translate(0.37 0.19)" style="fill:#dda76d"/><path d="M194.75,473.94a3.36,3.36,0,1,0-3.37,3.35h0a3.35,3.35,0,0,0,3.36-3.34Z" transform="translate(0.37 0.19)" style="fill:#dda76d"/><path d="M167.83,473.94a3.36,3.36,0,1,0-3.37,3.35h0a3.35,3.35,0,0,0,3.35-3.35Z" transform="translate(0.37 0.19)" style="fill:#dda76d"/><path d="M140.91,487.39a3.36,3.36,0,1,0-3.37,3.35h0a3.35,3.35,0,0,0,3.36-3.34Z" transform="translate(0.37 0.19)" style="fill:#dda76d"/><circle cx="124.46" cy="487.58" r="3.36" style="fill:#dda76d"/><circle cx="191.76" cy="487.58" r="3.36" style="fill:#dda76d"/><path d="M181.29,487.39a3.36,3.36,0,1,0-3.37,3.35h0a3.35,3.35,0,0,0,3.36-3.34Z" transform="translate(0.37 0.19)" style="fill:#dda76d"/><circle cx="164.85" cy="487.58" r="3.36" style="fill:#dda76d"/><path d="M154.37,500.84a3.36,3.36,0,1,0-3.37,3.35h0a3.35,3.35,0,0,0,3.36-3.34Z" transform="translate(0.37 0.19)" style="fill:#dda76d"/><path d="M140.91,500.84a3.36,3.36,0,1,0-3.37,3.35h0a3.35,3.35,0,0,0,3.36-3.34Z" transform="translate(0.37 0.19)" style="fill:#dda76d"/><path d="M127.45,500.84a3.36,3.36,0,1,0-3.37,3.35h0a3.35,3.35,0,0,0,3.36-3.34Z" transform="translate(0.37 0.19)" style="fill:#dda76d"/><path d="M60.15,460.48a3.36,3.36,0,1,0-3.36,3.36h0a3.35,3.35,0,0,0,3.36-3.34Z" transform="translate(0.37 0.19)" style="fill:#dda76d"/><path d="M46.69,473.94a3.36,3.36,0,1,0-3.37,3.35h0A3.35,3.35,0,0,0,46.69,474Z" transform="translate(0.37 0.19)" style="fill:#dda76d"/><path d="M60.15,487.39a3.36,3.36,0,1,0-3.37,3.35h0a3.35,3.35,0,0,0,3.36-3.34Z" transform="translate(0.37 0.19)" style="fill:#dda76d"/><path d="M60.15,500.84a3.36,3.36,0,1,0-3.37,3.35h0a3.35,3.35,0,0,0,3.36-3.34Z" transform="translate(0.37 0.19)" style="fill:#dda76d"/><path d="M194.75,500.84a3.36,3.36,0,1,0-3.37,3.35h0a3.35,3.35,0,0,0,3.36-3.34Z" transform="translate(0.37 0.19)" style="fill:#dda76d"/><path d="M181.29,500.84a3.36,3.36,0,1,0-3.37,3.35h0a3.35,3.35,0,0,0,3.36-3.34Z" transform="translate(0.37 0.19)" style="fill:#dda76d"/><path d="M167.83,500.84a3.36,3.36,0,1,0-3.37,3.35h0a3.35,3.35,0,0,0,3.35-3.35Z" transform="translate(0.37 0.19)" style="fill:#dda76d"/><path d="M140.91,514.29a3.36,3.36,0,1,0-3.37,3.35h0a3.35,3.35,0,0,0,3.36-3.34Z" transform="translate(0.37 0.19)" style="fill:#dda76d"/><circle cx="111" cy="514.48" r="3.36" style="fill:#dda76d"/><circle cx="191.76" cy="514.48" r="3.36" style="fill:#dda76d"/><path d="M181.29,514.29a3.36,3.36,0,1,0-3.37,3.35h0a3.35,3.35,0,0,0,3.36-3.34Z" transform="translate(0.37 0.19)" style="fill:#dda76d"/><circle cx="151.38" cy="514.48" r="3.36" style="fill:#dda76d"/><path d="M154.37,527.74a3.36,3.36,0,1,0-3.37,3.35h0a3.35,3.35,0,0,0,3.36-3.34Z" transform="translate(0.37 0.19)" style="fill:#dda76d"/><path d="M127.45,527.74a3.36,3.36,0,1,0-3.37,3.35h0a3.35,3.35,0,0,0,3.36-3.34Z" transform="translate(0.37 0.19)" style="fill:#dda76d"/><path d="M114,527.74a3.36,3.36,0,1,0-3.37,3.35h0a3.35,3.35,0,0,0,3.36-3.34Z" transform="translate(0.37 0.19)" style="fill:#dda76d"/><path d="M194.75,527.74a3.36,3.36,0,1,0-3.37,3.35h0a3.35,3.35,0,0,0,3.36-3.34Z" transform="translate(0.37 0.19)" style="fill:#dda76d"/><path d="M167.83,527.74a3.36,3.36,0,1,0-3.37,3.35h0A3.35,3.35,0,0,0,167.83,527.74Z" transform="translate(0.37 0.19)" style="fill:#dda76d"/><circle cx="151.38" cy="541.38" r="3.36" style="fill:#dda76d"/><path d="M140.91,541.19a3.36,3.36,0,1,0-3.36,3.36h0a3.35,3.35,0,0,0,3.36-3.34Z" transform="translate(0.37 0.19)" style="fill:#dda76d"/><circle cx="111" cy="541.38" r="3.36" style="fill:#dda76d"/><circle cx="191.76" cy="541.38" r="3.36" style="fill:#dda76d"/><circle cx="164.85" cy="541.38" r="3.36" style="fill:#dda76d"/><path d="M154.37,554.64h0a3.36,3.36,0,0,0-2.68-3.29,3.41,3.41,0,0,0-1.35,0,3.36,3.36,0,0,0-2.68,3.29h0a3.36,3.36,0,0,0,6.71.37,2.28,2.28,0,0,0,0-.37Z" transform="translate(0.37 0.19)" style="fill:#dda76d"/><path d="M127.45,554.64h0a3.36,3.36,0,0,0-2.68-3.29,3.41,3.41,0,0,0-1.35,0,3.36,3.36,0,0,0-2.68,3.29h0a3.36,3.36,0,0,0,6.71.37A2.28,2.28,0,0,0,127.45,554.64Z" transform="translate(0.37 0.19)" style="fill:#dda76d"/><path d="M194.75,554.64a3.36,3.36,0,1,0-3.36,3.36h0a3.35,3.35,0,0,0,3.36-3.34Z" transform="translate(0.37 0.19)" style="fill:#dda76d"/><path d="M154.37,568.09h0a3.36,3.36,0,0,0-6.71-.37,2.28,2.28,0,0,0,0,.37h0a3.36,3.36,0,0,0,6.71,0Z" transform="translate(0.37 0.19)" style="fill:#dda76d"/><path d="M127.45,568.09h0a3.36,3.36,0,0,0-6.71-.37,2.28,2.28,0,0,0,0,.37h0a3.36,3.36,0,0,0,6.71,0Z" transform="translate(0.37 0.19)" style="fill:#dda76d"/><path d="M181.29,581.54a3.36,3.36,0,1,0-3.36,3.36h0a3.35,3.35,0,0,0,3.36-3.34Z" transform="translate(0.37 0.19)" style="fill:#dda76d"/><path d="M181.29,554.64h0a3.36,3.36,0,1,0-6.71-.37,2.28,2.28,0,0,0,0,.37h0a3.36,3.36,0,0,0,6.71,0Z" transform="translate(0.37 0.19)" style="fill:#dda76d"/><path d="M100.53,420.13h0a3.37,3.37,0,0,0-2.68-3.29,3.37,3.37,0,0,0-4,3.29h0a3.36,3.36,0,0,0,6.72,0Z" transform="translate(0.37 0.19)" style="fill:#dda76d"/><path d="M73.61,420.13h0a3.37,3.37,0,0,0-2.68-3.29,3.41,3.41,0,0,0-1.35,0,3.37,3.37,0,0,0-2.68,3.29h0a3.36,3.36,0,0,0,6.71.37A2.28,2.28,0,0,0,73.61,420.13Z" transform="translate(0.37 0.19)" style="fill:#dda76d"/><circle cx="84.08" cy="433.77" r="3.36" style="fill:#dda76d"/><circle cx="43.7" cy="433.77" r="3.36" style="fill:#dda76d"/><circle cx="70.62" cy="433.77" r="3.36" style="fill:#dda76d"/><path d="M100.53,447a3.36,3.36,0,1,0-3.36,3.36h0A3.35,3.35,0,0,0,100.53,447Z" transform="translate(0.37 0.19)" style="fill:#dda76d"/><circle cx="84.08" cy="460.67" r="3.36" style="fill:#dda76d"/><path d="M100.53,473.94a3.36,3.36,0,1,0-3.37,3.35h0a3.35,3.35,0,0,0,3.36-3.34Z" transform="translate(0.37 0.19)" style="fill:#dda76d"/><path d="M73.61,473.94a3.36,3.36,0,1,0-3.37,3.35h0A3.35,3.35,0,0,0,73.61,474Z" transform="translate(0.37 0.19)" style="fill:#dda76d"/><path d="M100.53,487.39a3.36,3.36,0,1,0-3.37,3.35h0a3.35,3.35,0,0,0,3.36-3.34Z" transform="translate(0.37 0.19)" style="fill:#dda76d"/><circle cx="84.08" cy="487.58" r="3.36" style="fill:#dda76d"/><path d="M100.53,500.84a3.36,3.36,0,1,0-3.37,3.35h0a3.35,3.35,0,0,0,3.36-3.34Z" transform="translate(0.37 0.19)" style="fill:#dda76d"/><path d="M73.61,500.84a3.36,3.36,0,1,0-3.37,3.35h0a3.35,3.35,0,0,0,3.36-3.34Z" transform="translate(0.37 0.19)" style="fill:#dda76d"/><circle cx="84.08" cy="514.48" r="3.36" style="fill:#dda76d"/><path d="M87.07,527.74a3.36,3.36,0,1,0-3.37,3.35h0a3.35,3.35,0,0,0,3.36-3.34Z" transform="translate(0.37 0.19)" style="fill:#dda76d"/><path d="M60.15,527.74a3.36,3.36,0,1,0-3.37,3.35h0a3.35,3.35,0,0,0,3.36-3.34Z" transform="translate(0.37 0.19)" style="fill:#dda76d"/><path d="M33.26,527.74a3.36,3.36,0,1,0-3.37,3.35h0A3.37,3.37,0,0,0,33.26,527.74Z" transform="translate(0.37 0.19)" style="fill:#dda76d"/><path d="M100.53,541.19a3.36,3.36,0,1,0-3.36,3.36h0a3.35,3.35,0,0,0,3.36-3.34Z" transform="translate(0.37 0.19)" style="fill:#dda76d"/><circle cx="70.62" cy="541.38" r="3.36" style="fill:#dda76d"/><path d="M100.53,554.64h0a3.36,3.36,0,0,0-2.68-3.29,3.41,3.41,0,0,0-1.35,0,3.36,3.36,0,0,0-2.69,3.29h0a3.36,3.36,0,0,0,6.72,0Z" transform="translate(0.37 0.19)" style="fill:#dda76d"/><path d="M87.07,554.64A3.36,3.36,0,1,0,83.71,558h0a3.35,3.35,0,0,0,3.36-3.34Z" transform="translate(0.37 0.19)" style="fill:#dda76d"/><path d="M33.24,312.53a3.36,3.36,0,1,0-3.36,3.36h0A3.37,3.37,0,0,0,33.24,312.53Z" transform="translate(0.37 0.19)" style="fill:#dda76d"/><path d="M19.78,326a3.36,3.36,0,1,0-3.36,3.36h0A3.37,3.37,0,0,0,19.78,326Z" transform="translate(0.37 0.19)" style="fill:#dda76d"/><path d="M33.24,339.43a3.36,3.36,0,1,0-3.36,3.36h0A3.37,3.37,0,0,0,33.24,339.43Z" transform="translate(0.37 0.19)" style="fill:#dda76d"/><circle cx="16.43" cy="285.63" r="3.36" transform="translate(-268.95 299.98) rotate(-89.55)" style="fill:#dda76d"/><path d="M33.24,379.78a3.36,3.36,0,1,0-3.36,3.36h0A3.37,3.37,0,0,0,33.24,379.78Z" transform="translate(0.37 0.19)" style="fill:#dda76d"/><path d="M6.35,379.78A3.36,3.36,0,1,0,3,383.14H3A3.37,3.37,0,0,0,6.35,379.78Z" transform="translate(0.37 0.19)" style="fill:#dda76d"/><path d="M19.78,406.68a3.36,3.36,0,1,0-3.4,3.32h.05A3.36,3.36,0,0,0,19.78,406.68Z" transform="translate(0.37 0.19)" style="fill:#dda76d"/><path d="M33.24,110.78a3.36,3.36,0,1,0-3.36,3.36h0a3.35,3.35,0,0,0,3.35-3.35Z" transform="translate(0.37 0.19)" style="fill:#dda76d"/><path d="M19.78,97.33a3.36,3.36,0,1,0-3.36,3.36h0a3.35,3.35,0,0,0,3.35-3.35Z" transform="translate(0.37 0.19)" style="fill:#dda76d"/><path d="M33.24,83.88a3.36,3.36,0,1,0-3.36,3.36h0a3.35,3.35,0,0,0,3.35-3.35Z" transform="translate(0.37 0.19)" style="fill:#dda76d"/><path d="M33.24,70.43a3.36,3.36,0,1,0-3.36,3.36h0a3.35,3.35,0,0,0,3.35-3.35Z" transform="translate(0.37 0.19)" style="fill:#dda76d"/><path d="M33.24,43.53a3.36,3.36,0,1,0-3.36,3.36h0a3.35,3.35,0,0,0,3.35-3.35Z" transform="translate(0.37 0.19)" style="fill:#dda76d"/><path d="M6.35,43.53A3.36,3.36,0,1,0,3,46.89H3A3.37,3.37,0,0,0,6.35,43.53Z" transform="translate(0.37 0.19)" style="fill:#dda76d"/><path d="M19.78,16.63A3.36,3.36,0,1,0,16.43,20a3.35,3.35,0,0,0,3.35-3.37Z" transform="translate(0.37 0.19)" style="fill:#dda76d"/><path d="M33.24,164.58a3.36,3.36,0,1,0-3.36,3.36h0a3.35,3.35,0,0,0,3.35-3.35Z" transform="translate(0.37 0.19)" style="fill:#dda76d"/><path d="M19.78,178a3.36,3.36,0,1,0-3.36,3.36h0A3.35,3.35,0,0,0,19.78,178Z" transform="translate(0.37 0.19)" style="fill:#dda76d"/><path d="M33.24,191.48a3.36,3.36,0,1,0-3.36,3.36h0a3.35,3.35,0,0,0,3.35-3.35Z" transform="translate(0.37 0.19)" style="fill:#dda76d"/><path d="M19.78,137.68h0a3.36,3.36,0,1,0-6.71-.37,2.28,2.28,0,0,0,0,.37h0a3.36,3.36,0,0,0,6.71.37A2.28,2.28,0,0,0,19.78,137.68Z" transform="translate(0.37 0.19)" style="fill:#dda76d"/><path d="M33.24,231.83a3.36,3.36,0,1,0-3.36,3.36h0a3.35,3.35,0,0,0,3.35-3.35Z" transform="translate(0.37 0.19)" style="fill:#dda76d"/><path d="M6.35,231.83A3.36,3.36,0,1,0,3,235.19H3A3.37,3.37,0,0,0,6.35,231.83Z" transform="translate(0.37 0.19)" style="fill:#dda76d"/><path d="M19.78,258.73a3.36,3.36,0,1,0-3.36,3.36h0A3.37,3.37,0,0,0,19.78,258.73Z" transform="translate(0.37 0.19)" style="fill:#dda76d"/><path d="M33.24,662.24a3.36,3.36,0,1,0-3.36,3.36h0a3.35,3.35,0,0,0,3.35-3.35Z" transform="translate(0.37 0.19)" style="fill:#dda76d"/><path d="M19.78,648.79a3.36,3.36,0,1,0-3.36,3.36h0a3.35,3.35,0,0,0,3.35-3.35Z" transform="translate(0.37 0.19)" style="fill:#dda76d"/><path d="M33.24,635.34a3.36,3.36,0,1,0-3.36,3.36h0a3.35,3.35,0,0,0,3.35-3.35Z" transform="translate(0.37 0.19)" style="fill:#dda76d"/><path d="M33.24,621.89a3.36,3.36,0,1,0-3.36,3.36h0a3.35,3.35,0,0,0,3.35-3.35Z" transform="translate(0.37 0.19)" style="fill:#dda76d"/><path d="M33.24,595a3.36,3.36,0,1,0-3.36,3.36h0A3.35,3.35,0,0,0,33.24,595Z" transform="translate(0.37 0.19)" style="fill:#dda76d"/><path d="M6.35,595A3.36,3.36,0,1,0,3,598.35H3A3.36,3.36,0,0,0,6.35,595Z" transform="translate(0.37 0.19)" style="fill:#dda76d"/><path d="M6.35,756.39A3.36,3.36,0,1,0,3,759.75H3A3.37,3.37,0,0,0,6.35,756.39Z" transform="translate(0.37 0.19)" style="fill:#dda76d"/><path d="M19.78,568.09a3.36,3.36,0,1,0-3.36,3.36h0a3.35,3.35,0,0,0,3.35-3.35Z" transform="translate(0.37 0.19)" style="fill:#dda76d"/><path d="M33.24,716a3.36,3.36,0,1,0-3.36,3.36h0A3.35,3.35,0,0,0,33.24,716Z" transform="translate(0.37 0.19)" style="fill:#dda76d"/><path d="M19.78,729.49a3.36,3.36,0,1,0-3.36,3.36h0a3.35,3.35,0,0,0,3.35-3.35Z" transform="translate(0.37 0.19)" style="fill:#dda76d"/><path d="M33.24,742.94a3.36,3.36,0,1,0-3.36,3.36h0A3.35,3.35,0,0,0,33.24,743Z" transform="translate(0.37 0.19)" style="fill:#dda76d"/><path d="M33.24,756.39a3.36,3.36,0,1,0-3.36,3.36h0a3.35,3.35,0,0,0,3.35-3.35Z" transform="translate(0.37 0.19)" style="fill:#dda76d"/><path d="M19.78,689.14h0a3.36,3.36,0,1,0-6.71-.37,2.28,2.28,0,0,0,0,.37h0a3.36,3.36,0,0,0,6.71.37A2.28,2.28,0,0,0,19.78,689.14Z" transform="translate(0.37 0.19)" style="fill:#dda76d"/><path d="M33.24,783.29a3.36,3.36,0,1,0-3.36,3.36h0a3.35,3.35,0,0,0,3.35-3.35Z" transform="translate(0.37 0.19)" style="fill:#dda76d"/><path d="M19.78,823.64A3.36,3.36,0,1,0,16.42,827h0A3.37,3.37,0,0,0,19.78,823.64Z" transform="translate(0.37 0.19)" style="fill:#dda76d"/><path d="M33.24,460.48a3.36,3.36,0,1,0-3.36,3.36h0a3.35,3.35,0,0,0,3.35-3.35Z" transform="translate(0.37 0.19)" style="fill:#dda76d"/><path d="M19.78,473.94a3.36,3.36,0,1,0-3.37,3.35h0a3.35,3.35,0,0,0,3.35-3.35Z" transform="translate(0.37 0.19)" style="fill:#dda76d"/><path d="M33.24,487.39a3.36,3.36,0,1,0-3.37,3.35h0a3.35,3.35,0,0,0,3.35-3.35Z" transform="translate(0.37 0.19)" style="fill:#dda76d"/><circle cx="16.43" cy="433.58" r="3.36" transform="translate(-416.9 446.76) rotate(-89.55)" style="fill:#dda76d"/><path d="M33.24,527.74a3.36,3.36,0,1,0-3.37,3.35h0A3.35,3.35,0,0,0,33.24,527.74Z" transform="translate(0.37 0.19)" style="fill:#dda76d"/><path d="M6.35,527.74A3.36,3.36,0,1,0,3,531.09H3A3.36,3.36,0,0,0,6.35,527.74Z" transform="translate(0.37 0.19)" style="fill:#dda76d"/><path d="M19.78,554.64A3.36,3.36,0,1,0,16.42,558h0a3.35,3.35,0,0,0,3.35-3.35Z" transform="translate(0.37 0.19)" style="fill:#dda76d"/><path d="M100.53,568.09h0a3.36,3.36,0,0,0-6.72,0h0a3.36,3.36,0,0,0,6.72,0Z" transform="translate(0.37 0.19)" style="fill:#dda76d"/><circle cx="70.62" cy="568.28" r="3.36" style="fill:#dda76d"/><path d="M167.83,568.09h0a3.36,3.36,0,0,0-6.71-.37,2.28,2.28,0,0,0,0,.37h0a3.36,3.36,0,0,0,6.71,0Z" transform="translate(0.37 0.19)" style="fill:#dda76d"/></g></g></svg>