<svg xmlns="http://www.w3.org/2000/svg" viewBox="0 0 159.34 725.55"><title>dots</title><path d="M39.07,493a2.95,2.95,0,1,0,3-2.95A2.95,2.95,0,0,0,39.07,493Z" transform="translate(-3.66 -6.36)" style="fill:#fff"/><path d="M3.66,493a2.95,2.95,0,1,0,2.94-2.95A2.95,2.95,0,0,0,3.66,493Z" transform="translate(-3.66 -6.36)" style="fill:#fff"/><circle cx="26.56" cy="474.85" r="2.95" style="fill:#fff"/><circle cx="50.17" cy="474.85" r="2.95" style="fill:#fff"/><circle cx="61.98" cy="474.85" r="2.95" style="fill:#fff"/><circle cx="14.75" cy="474.85" r="2.95" style="fill:#fff"/><path d="M27.27,469.41a2.95,2.95,0,1,0,2.95-2.94A2.95,2.95,0,0,0,27.27,469.41Z" transform="translate(-3.66 -6.36)" style="fill:#fff"/><path d="M50.88,469.41a2.95,2.95,0,1,0,2.95-2.94A2.95,2.95,0,0,0,50.88,469.41Z" transform="translate(-3.66 -6.36)" style="fill:#fff"/><path d="M3.66,469.41a2.95,2.95,0,1,0,2.94-2.94A2.95,2.95,0,0,0,3.66,469.41Z" transform="translate(-3.66 -6.36)" style="fill:#fff"/><path d="M15.46,469.41a2.95,2.95,0,1,0,2.95-2.94A2.95,2.95,0,0,0,15.46,469.41Z" transform="translate(-3.66 -6.36)" style="fill:#fff"/><circle cx="26.56" cy="451.26" r="2.95" style="fill:#fff"/><path d="M39.07,457.62a2.95,2.95,0,1,0,3-2.95A2.95,2.95,0,0,0,39.07,457.62Z" transform="translate(-3.66 -6.36)" style="fill:#fff"/><circle cx="50.17" cy="451.26" r="2.95" style="fill:#fff"/><circle cx="61.98" cy="451.26" r="2.95" style="fill:#fff"/><path d="M3.66,457.62a2.95,2.95,0,1,0,2.94-2.95A2.94,2.94,0,0,0,3.66,457.62Z" transform="translate(-3.66 -6.36)" style="fill:#fff"/><path d="M27.27,445.82a2.95,2.95,0,1,0,2.95-2.95A2.95,2.95,0,0,0,27.27,445.82Z" transform="translate(-3.66 -6.36)" style="fill:#fff"/><path d="M39.07,445.82a2.95,2.95,0,1,0,3-2.95A2.95,2.95,0,0,0,39.07,445.82Z" transform="translate(-3.66 -6.36)" style="fill:#fff"/><path d="M62.69,445.82a2.95,2.95,0,1,0,2.94-2.95A2.95,2.95,0,0,0,62.69,445.82Z" transform="translate(-3.66 -6.36)" style="fill:#fff"/><path d="M3.66,386.83a2.95,2.95,0,1,0,2.94-2.95A2.95,2.95,0,0,0,3.66,386.83Z" transform="translate(-3.66 -6.36)" style="fill:#fff"/><path d="M15.46,445.82a2.95,2.95,0,1,0,2.95-2.95A2.95,2.95,0,0,0,15.46,445.82Z" transform="translate(-3.66 -6.36)" style="fill:#fff"/><path d="M39.07,434a2.95,2.95,0,1,0,3-2.95A2.95,2.95,0,0,0,39.07,434Z" transform="translate(-3.66 -6.36)" style="fill:#fff"/><circle cx="50.17" cy="427.66" r="2.95" style="fill:#fff"/><path d="M3.66,434a2.95,2.95,0,1,0,2.94-2.95A2.95,2.95,0,0,0,3.66,434Z" transform="translate(-3.66 -6.36)" style="fill:#fff"/><circle cx="14.75" cy="427.66" r="2.95" style="fill:#fff"/><path d="M27.27,422.22a2.95,2.95,0,1,0,2.95-2.94A2.95,2.95,0,0,0,27.27,422.22Z" transform="translate(-3.66 -6.36)" style="fill:#fff"/><path d="M39.07,422.22a3,3,0,1,0,3-2.94A2.95,2.95,0,0,0,39.07,422.22Z" transform="translate(-3.66 -6.36)" style="fill:#fff"/><path d="M50.88,422.22a2.95,2.95,0,1,0,2.95-2.94A2.95,2.95,0,0,0,50.88,422.22Z" transform="translate(-3.66 -6.36)" style="fill:#fff"/><path d="M109.91,457.62a3,3,0,1,0,3-2.95A2.95,2.95,0,0,0,109.91,457.62Z" transform="translate(-3.66 -6.36)" style="fill:#fff"/><path d="M121.72,445.82a2.95,2.95,0,1,0,3-2.95A2.95,2.95,0,0,0,121.72,445.82Z" transform="translate(-3.66 -6.36)" style="fill:#fff"/><path d="M109.91,434a3,3,0,1,0,3-2.95A2.95,2.95,0,0,0,109.91,434Z" transform="translate(-3.66 -6.36)" style="fill:#fff"/><path d="M109.91,422.22a3,3,0,1,0,3-2.94A2.95,2.95,0,0,0,109.91,422.22Z" transform="translate(-3.66 -6.36)" style="fill:#fff"/><path d="M15.46,422.22a2.95,2.95,0,1,0,2.95-2.94A2.95,2.95,0,0,0,15.46,422.22Z" transform="translate(-3.66 -6.36)" style="fill:#fff"/><path d="M39.07,410.43a2.95,2.95,0,1,0,3-2.95A2.95,2.95,0,0,0,39.07,410.43Z" transform="translate(-3.66 -6.36)" style="fill:#fff"/><circle cx="61.98" cy="404.07" r="2.95" style="fill:#fff"/><path d="M3.66,410.43a2.95,2.95,0,1,0,2.94-2.95A2.94,2.94,0,0,0,3.66,410.43Z" transform="translate(-3.66 -6.36)" style="fill:#fff"/><circle cx="14.75" cy="404.07" r="2.95" style="fill:#fff"/><circle cx="26.56" cy="404.07" r="2.95" style="fill:#fff"/><path d="M27.27,398.63a2.95,2.95,0,1,0,2.95-2.95A2.94,2.94,0,0,0,27.27,398.63Z" transform="translate(-3.66 -6.36)" style="fill:#fff"/><path d="M50.88,398.63a2.95,2.95,0,1,0,2.95-2.95A2.94,2.94,0,0,0,50.88,398.63Z" transform="translate(-3.66 -6.36)" style="fill:#fff"/><path d="M62.69,398.63a2.95,2.95,0,1,0,2.94-2.95A2.94,2.94,0,0,0,62.69,398.63Z" transform="translate(-3.66 -6.36)" style="fill:#fff"/><path d="M15.46,398.63a2.95,2.95,0,1,0,2.95-2.95A2.94,2.94,0,0,0,15.46,398.63Z" transform="translate(-3.66 -6.36)" style="fill:#fff"/><circle cx="26.56" cy="380.47" r="2.95" style="fill:#fff"/><path d="M39.07,386.83a2.95,2.95,0,1,0,3-2.95A2.95,2.95,0,0,0,39.07,386.83Z" transform="translate(-3.66 -6.36)" style="fill:#fff"/><circle cx="61.98" cy="380.47" r="2.95" style="fill:#fff"/><path d="M27.27,375a2.95,2.95,0,1,0,2.95-2.94A2.95,2.95,0,0,0,27.27,375Z" transform="translate(-3.66 -6.36)" style="fill:#fff"/><path d="M50.88,375a2.95,2.95,0,1,0,2.95-2.94A2.95,2.95,0,0,0,50.88,375Z" transform="translate(-3.66 -6.36)" style="fill:#fff"/><path d="M15.46,375a2.95,2.95,0,1,0,2.95-2.94A2.95,2.95,0,0,0,15.46,375Z" transform="translate(-3.66 -6.36)" style="fill:#fff"/><circle cx="26.56" cy="356.88" r="2.95" style="fill:#fff"/><circle cx="50.17" cy="356.88" r="2.95" style="fill:#fff"/><circle cx="85.59" cy="474.85" r="2.95" style="fill:#fff"/><circle cx="121.01" cy="474.85" r="2.95" style="fill:#fff"/><circle cx="97.4" cy="474.85" r="2.95" style="fill:#fff"/><path d="M74.49,469.41a3,3,0,1,0,3-2.94A2.95,2.95,0,0,0,74.49,469.41Z" transform="translate(-3.66 -6.36)" style="fill:#fff"/><circle cx="85.59" cy="451.26" r="2.95" style="fill:#fff"/><path d="M74.49,445.82a3,3,0,1,0,3-2.95A2.95,2.95,0,0,0,74.49,445.82Z" transform="translate(-3.66 -6.36)" style="fill:#fff"/><path d="M98.11,445.82a2.95,2.95,0,1,0,2.94-2.95A2.95,2.95,0,0,0,98.11,445.82Z" transform="translate(-3.66 -6.36)" style="fill:#fff"/><path d="M74.49,434a3,3,0,1,0,3-2.95A2.95,2.95,0,0,0,74.49,434Z" transform="translate(-3.66 -6.36)" style="fill:#fff"/><circle cx="85.59" cy="427.66" r="2.95" style="fill:#fff"/><path d="M74.49,422.22a3,3,0,1,0,3-2.94A2.95,2.95,0,0,0,74.49,422.22Z" transform="translate(-3.66 -6.36)" style="fill:#fff"/><path d="M98.11,422.22a2.95,2.95,0,1,0,2.94-2.94A2.95,2.95,0,0,0,98.11,422.22Z" transform="translate(-3.66 -6.36)" style="fill:#fff"/><circle cx="85.59" cy="404.07" r="2.95" style="fill:#fff"/><path d="M86.3,398.63a2.95,2.95,0,1,0,3-2.95A2.94,2.94,0,0,0,86.3,398.63Z" transform="translate(-3.66 -6.36)" style="fill:#fff"/><path d="M109.91,398.63a3,3,0,1,0,3-2.95A2.94,2.94,0,0,0,109.91,398.63Z" transform="translate(-3.66 -6.36)" style="fill:#fff"/><path d="M133.5,398.63a2.95,2.95,0,1,0,2.95-2.95A2.94,2.94,0,0,0,133.5,398.63Z" transform="translate(-3.66 -6.36)" style="fill:#fff"/><path d="M74.49,386.83a3,3,0,1,0,3-2.95A2.95,2.95,0,0,0,74.49,386.83Z" transform="translate(-3.66 -6.36)" style="fill:#fff"/><circle cx="97.4" cy="380.47" r="2.95" style="fill:#fff"/><path d="M74.49,375a3,3,0,1,0,3-2.94A2.95,2.95,0,0,0,74.49,375Z" transform="translate(-3.66 -6.36)" style="fill:#fff"/><path d="M86.3,375a2.95,2.95,0,1,0,3-2.94A2.95,2.95,0,0,0,86.3,375Z" transform="translate(-3.66 -6.36)" style="fill:#fff"/><path d="M121.72,375a2.95,2.95,0,1,0,3-2.94A2.95,2.95,0,0,0,121.72,375Z" transform="translate(-3.66 -6.36)" style="fill:#fff"/><circle cx="14.75" cy="356.88" r="2.95" style="fill:#fff"/><path d="M39.07,599.19a2.95,2.95,0,1,0,3-3A2.95,2.95,0,0,0,39.07,599.19Z" transform="translate(-3.66 -6.36)" style="fill:#fff"/><path d="M50.88,622.78a2.95,2.95,0,1,0,2.95-2.94A2.95,2.95,0,0,0,50.88,622.78Z" transform="translate(-3.66 -6.36)" style="fill:#fff"/><path d="M15.46,622.78a2.95,2.95,0,1,0,2.95-2.94A2.95,2.95,0,0,0,15.46,622.78Z" transform="translate(-3.66 -6.36)" style="fill:#fff"/><circle cx="26.56" cy="628.22" r="2.95" style="fill:#fff"/><path d="M39.07,634.58a3,3,0,1,0,3-2.94A2.95,2.95,0,0,0,39.07,634.58Z" transform="translate(-3.66 -6.36)" style="fill:#fff"/><circle cx="50.17" cy="628.22" r="2.95" style="fill:#fff"/><circle cx="61.98" cy="628.22" r="2.95" style="fill:#fff"/><path d="M3.66,634.58a2.95,2.95,0,1,0,2.94-2.94A2.95,2.95,0,0,0,3.66,634.58Z" transform="translate(-3.66 -6.36)" style="fill:#fff"/><path d="M27.27,646.38a2.95,2.95,0,1,0,2.95-3A2.95,2.95,0,0,0,27.27,646.38Z" transform="translate(-3.66 -6.36)" style="fill:#fff"/><path d="M39.07,646.38a2.95,2.95,0,1,0,3-3A2.95,2.95,0,0,0,39.07,646.38Z" transform="translate(-3.66 -6.36)" style="fill:#fff"/><path d="M62.69,646.38a2.95,2.95,0,1,0,2.94-3A2.95,2.95,0,0,0,62.69,646.38Z" transform="translate(-3.66 -6.36)" style="fill:#fff"/><path d="M3.66,516.6a2.95,2.95,0,1,0,2.94-2.94A2.95,2.95,0,0,0,3.66,516.6Z" transform="translate(-3.66 -6.36)" style="fill:#fff"/><path d="M15.46,646.38a2.95,2.95,0,1,0,2.95-3A2.95,2.95,0,0,0,15.46,646.38Z" transform="translate(-3.66 -6.36)" style="fill:#fff"/><path d="M39.07,658.18a2.95,2.95,0,1,0,3-2.95A2.95,2.95,0,0,0,39.07,658.18Z" transform="translate(-3.66 -6.36)" style="fill:#fff"/><circle cx="50.17" cy="651.82" r="2.95" style="fill:#fff"/><path d="M3.66,658.18a2.95,2.95,0,1,0,2.94-2.95A2.94,2.94,0,0,0,3.66,658.18Z" transform="translate(-3.66 -6.36)" style="fill:#fff"/><circle cx="14.75" cy="651.82" r="2.95" style="fill:#fff"/><path d="M27.27,670A2.95,2.95,0,1,0,30.22,667,2.95,2.95,0,0,0,27.27,670Z" transform="translate(-3.66 -6.36)" style="fill:#fff"/><path d="M39.07,670A3,3,0,1,0,42,667,2.95,2.95,0,0,0,39.07,670Z" transform="translate(-3.66 -6.36)" style="fill:#fff"/><path d="M50.88,670A2.95,2.95,0,1,0,53.83,667,2.95,2.95,0,0,0,50.88,670Z" transform="translate(-3.66 -6.36)" style="fill:#fff"/><path d="M109.91,634.58a3,3,0,1,0,3-2.94A2.95,2.95,0,0,0,109.91,634.58Z" transform="translate(-3.66 -6.36)" style="fill:#fff"/><path d="M121.72,646.38a2.95,2.95,0,1,0,3-3A2.95,2.95,0,0,0,121.72,646.38Z" transform="translate(-3.66 -6.36)" style="fill:#fff"/><path d="M109.91,658.18a3,3,0,1,0,3-2.95A2.95,2.95,0,0,0,109.91,658.18Z" transform="translate(-3.66 -6.36)" style="fill:#fff"/><path d="M109.91,670a3,3,0,1,0,3-2.94A2.95,2.95,0,0,0,109.91,670Z" transform="translate(-3.66 -6.36)" style="fill:#fff"/><path d="M3.66,670A2.95,2.95,0,1,0,6.6,667,2.95,2.95,0,0,0,3.66,670Z" transform="translate(-3.66 -6.36)" style="fill:#fff"/><path d="M15.46,670A2.95,2.95,0,1,0,18.41,667,2.95,2.95,0,0,0,15.46,670Z" transform="translate(-3.66 -6.36)" style="fill:#fff"/><path d="M39.07,681.77a3,3,0,1,0,3-2.94A2.95,2.95,0,0,0,39.07,681.77Z" transform="translate(-3.66 -6.36)" style="fill:#fff"/><circle cx="61.98" cy="675.42" r="2.95" style="fill:#fff"/><path d="M3.66,681.77a2.95,2.95,0,1,0,2.94-2.94A2.95,2.95,0,0,0,3.66,681.77Z" transform="translate(-3.66 -6.36)" style="fill:#fff"/><circle cx="14.75" cy="675.42" r="2.95" style="fill:#fff"/><circle cx="26.56" cy="675.42" r="2.95" style="fill:#fff"/><path d="M27.27,693.57a2.95,2.95,0,1,0,2.95-3A2.95,2.95,0,0,0,27.27,693.57Z" transform="translate(-3.66 -6.36)" style="fill:#fff"/><path d="M50.88,693.57a2.95,2.95,0,1,0,2.95-3A2.95,2.95,0,0,0,50.88,693.57Z" transform="translate(-3.66 -6.36)" style="fill:#fff"/><path d="M62.69,693.57a2.95,2.95,0,1,0,2.94-3A2.95,2.95,0,0,0,62.69,693.57Z" transform="translate(-3.66 -6.36)" style="fill:#fff"/><path d="M15.46,693.57a2.95,2.95,0,1,0,2.95-3A2.95,2.95,0,0,0,15.46,693.57Z" transform="translate(-3.66 -6.36)" style="fill:#fff"/><circle cx="26.56" cy="699.01" r="2.95" style="fill:#fff"/><path d="M39.07,705.37a2.95,2.95,0,1,0,3-3A2.95,2.95,0,0,0,39.07,705.37Z" transform="translate(-3.66 -6.36)" style="fill:#fff"/><circle cx="61.98" cy="699.01" r="2.95" style="fill:#fff"/><circle cx="2.95" cy="699.01" r="2.95" style="fill:#fff"/><path d="M27.27,717.17a2.95,2.95,0,1,0,2.95-2.95A2.95,2.95,0,0,0,27.27,717.17Z" transform="translate(-3.66 -6.36)" style="fill:#fff"/><path d="M50.88,717.17a2.95,2.95,0,1,0,2.95-2.95A2.95,2.95,0,0,0,50.88,717.17Z" transform="translate(-3.66 -6.36)" style="fill:#fff"/><path d="M15.46,717.17a2.95,2.95,0,1,0,2.95-2.95A2.95,2.95,0,0,0,15.46,717.17Z" transform="translate(-3.66 -6.36)" style="fill:#fff"/><circle cx="26.56" cy="722.61" r="2.95" style="fill:#fff"/><circle cx="50.17" cy="722.61" r="2.95" style="fill:#fff"/><path d="M98.11,599.19a2.95,2.95,0,1,0,2.94-3A2.95,2.95,0,0,0,98.11,599.19Z" transform="translate(-3.66 -6.36)" style="fill:#fff"/><circle cx="85.59" cy="628.22" r="2.95" style="fill:#fff"/><path d="M74.49,646.38a3,3,0,1,0,3-3A2.95,2.95,0,0,0,74.49,646.38Z" transform="translate(-3.66 -6.36)" style="fill:#fff"/><path d="M98.11,646.38a2.95,2.95,0,1,0,2.94-3A2.95,2.95,0,0,0,98.11,646.38Z" transform="translate(-3.66 -6.36)" style="fill:#fff"/><path d="M74.49,658.18a3,3,0,1,0,3-2.95A2.95,2.95,0,0,0,74.49,658.18Z" transform="translate(-3.66 -6.36)" style="fill:#fff"/><circle cx="85.59" cy="651.82" r="2.95" style="fill:#fff"/><path d="M74.49,670a3,3,0,1,0,3-2.94A2.95,2.95,0,0,0,74.49,670Z" transform="translate(-3.66 -6.36)" style="fill:#fff"/><path d="M98.11,670a2.95,2.95,0,1,0,2.94-2.94A2.95,2.95,0,0,0,98.11,670Z" transform="translate(-3.66 -6.36)" style="fill:#fff"/><circle cx="85.59" cy="675.42" r="2.95" style="fill:#fff"/><path d="M86.3,693.57a2.95,2.95,0,1,0,3-3A2.95,2.95,0,0,0,86.3,693.57Z" transform="translate(-3.66 -6.36)" style="fill:#fff"/><path d="M109.91,693.57a3,3,0,1,0,3-3A2.95,2.95,0,0,0,109.91,693.57Z" transform="translate(-3.66 -6.36)" style="fill:#fff"/><path d="M133.5,693.57a2.95,2.95,0,1,0,2.95-3A2.95,2.95,0,0,0,133.5,693.57Z" transform="translate(-3.66 -6.36)" style="fill:#fff"/><path d="M74.49,705.37a3,3,0,1,0,3-3A2.95,2.95,0,0,0,74.49,705.37Z" transform="translate(-3.66 -6.36)" style="fill:#fff"/><circle cx="97.4" cy="699.01" r="2.95" style="fill:#fff"/><path d="M74.49,717.17a3,3,0,1,0,3-2.95A2.95,2.95,0,0,0,74.49,717.17Z" transform="translate(-3.66 -6.36)" style="fill:#fff"/><path d="M86.3,717.17a2.95,2.95,0,1,0,3-2.95A2.95,2.95,0,0,0,86.3,717.17Z" transform="translate(-3.66 -6.36)" style="fill:#fff"/><path d="M121.72,717.17a2.95,2.95,0,1,0,3-2.95A2.95,2.95,0,0,0,121.72,717.17Z" transform="translate(-3.66 -6.36)" style="fill:#fff"/><path d="M74.49,729a3,3,0,1,0,3-2.94A2.95,2.95,0,0,0,74.49,729Z" transform="translate(-3.66 -6.36)" style="fill:#fff"/><circle cx="97.4" cy="722.61" r="2.95" style="fill:#fff"/><circle cx="14.75" cy="722.61" r="2.95" style="fill:#fff"/><circle cx="2.95" cy="722.61" r="2.95" style="fill:#fff"/><path d="M39.07,622.78a3,3,0,1,0,3-2.94A2.95,2.95,0,0,0,39.07,622.78Z" transform="translate(-3.66 -6.36)" style="fill:#fff"/><path d="M3.66,622.78h0A2.94,2.94,0,0,0,6,625.67a2.88,2.88,0,0,0,.59.06,3,3,0,0,0,.6-.06,2.94,2.94,0,0,0,2.35-2.89h0a2.94,2.94,0,0,0-3-2.94,2.9,2.9,0,0,0-1.14.23A2.94,2.94,0,0,0,3.66,622.78Z" transform="translate(-3.66 -6.36)" style="fill:#fff"/><path d="M27.27,611h0a2.95,2.95,0,0,0,5.89,0h0a2.95,2.95,0,1,0-5.89,0Z" transform="translate(-3.66 -6.36)" style="fill:#fff"/><path d="M50.88,611h0a2.95,2.95,0,0,0,5.89,0h0a2.95,2.95,0,1,0-5.89,0Z" transform="translate(-3.66 -6.36)" style="fill:#fff"/><path d="M62.69,611h0a2.95,2.95,0,0,0,5.89,0h0a2.95,2.95,0,1,0-5.89,0Z" transform="translate(-3.66 -6.36)" style="fill:#fff"/><path d="M15.46,611h0a2.95,2.95,0,0,0,5.89,0h0a2.95,2.95,0,1,0-5.89,0Z" transform="translate(-3.66 -6.36)" style="fill:#fff"/><path d="M27.27,599.19a2.95,2.95,0,1,0,2.95-3A2.95,2.95,0,0,0,27.27,599.19Z" transform="translate(-3.66 -6.36)" style="fill:#fff"/><path d="M50.88,599.19a2.95,2.95,0,1,0,2.95-3A2.95,2.95,0,0,0,50.88,599.19Z" transform="translate(-3.66 -6.36)" style="fill:#fff"/><path d="M3.66,599.19h0A2.94,2.94,0,0,0,6,602.07a2.88,2.88,0,0,0,.59.07,3,3,0,0,0,.6-.07,2.94,2.94,0,0,0,2.35-2.88h0a3,3,0,0,0-1.8-2.72,3,3,0,0,0-2.29,0A3,3,0,0,0,3.66,599.19Z" transform="translate(-3.66 -6.36)" style="fill:#fff"/><path d="M15.46,599.19a2.95,2.95,0,1,0,2.95-3A2.95,2.95,0,0,0,15.46,599.19Z" transform="translate(-3.66 -6.36)" style="fill:#fff"/><circle cx="26.56" cy="581.03" r="2.95" style="fill:#fff"/><path d="M39.07,587.39a2.95,2.95,0,1,0,3-2.95A2.95,2.95,0,0,0,39.07,587.39Z" transform="translate(-3.66 -6.36)" style="fill:#fff"/><circle cx="50.17" cy="581.03" r="2.95" style="fill:#fff"/><circle cx="61.98" cy="581.03" r="2.95" style="fill:#fff"/><path d="M3.66,587.39a2.95,2.95,0,1,0,2.94-2.95A2.95,2.95,0,0,0,3.66,587.39Z" transform="translate(-3.66 -6.36)" style="fill:#fff"/><path d="M27.27,575.59a2.95,2.95,0,1,0,2.95-2.94A2.95,2.95,0,0,0,27.27,575.59Z" transform="translate(-3.66 -6.36)" style="fill:#fff"/><path d="M39.07,575.59a3,3,0,1,0,3-2.94A2.95,2.95,0,0,0,39.07,575.59Z" transform="translate(-3.66 -6.36)" style="fill:#fff"/><path d="M62.69,575.59a2.95,2.95,0,1,0,2.94-2.94A2.95,2.95,0,0,0,62.69,575.59Z" transform="translate(-3.66 -6.36)" style="fill:#fff"/><path d="M15.46,575.59a2.95,2.95,0,1,0,2.95-2.94A2.95,2.95,0,0,0,15.46,575.59Z" transform="translate(-3.66 -6.36)" style="fill:#fff"/><path d="M39.07,563.79a3,3,0,1,0,3-2.94A2.95,2.95,0,0,0,39.07,563.79Z" transform="translate(-3.66 -6.36)" style="fill:#fff"/><circle cx="50.17" cy="557.44" r="2.95" style="fill:#fff"/><path d="M3.66,563.79a2.95,2.95,0,1,0,2.94-2.94A2.95,2.95,0,0,0,3.66,563.79Z" transform="translate(-3.66 -6.36)" style="fill:#fff"/><circle cx="14.75" cy="557.44" r="2.95" style="fill:#fff"/><path d="M27.27,552a2.95,2.95,0,1,0,2.95-3A2.95,2.95,0,0,0,27.27,552Z" transform="translate(-3.66 -6.36)" style="fill:#fff"/><path d="M39.07,552a2.95,2.95,0,1,0,3-3A2.95,2.95,0,0,0,39.07,552Z" transform="translate(-3.66 -6.36)" style="fill:#fff"/><path d="M50.88,552a2.95,2.95,0,1,0,2.95-3A2.95,2.95,0,0,0,50.88,552Z" transform="translate(-3.66 -6.36)" style="fill:#fff"/><path d="M109.91,587.39a3,3,0,1,0,3-2.95A2.95,2.95,0,0,0,109.91,587.39Z" transform="translate(-3.66 -6.36)" style="fill:#fff"/><path d="M121.72,575.59a2.95,2.95,0,1,0,3-2.94A2.95,2.95,0,0,0,121.72,575.59Z" transform="translate(-3.66 -6.36)" style="fill:#fff"/><path d="M109.91,563.79a3,3,0,1,0,3-2.94A2.95,2.95,0,0,0,109.91,563.79Z" transform="translate(-3.66 -6.36)" style="fill:#fff"/><path d="M3.66,552a2.95,2.95,0,1,0,2.94-3A2.94,2.94,0,0,0,3.66,552Z" transform="translate(-3.66 -6.36)" style="fill:#fff"/><path d="M39.07,540.2a2.95,2.95,0,1,0,3-3A2.95,2.95,0,0,0,39.07,540.2Z" transform="translate(-3.66 -6.36)" style="fill:#fff"/><circle cx="61.98" cy="533.84" r="2.95" style="fill:#fff"/><path d="M3.66,540.2a2.95,2.95,0,1,0,2.94-3A2.95,2.95,0,0,0,3.66,540.2Z" transform="translate(-3.66 -6.36)" style="fill:#fff"/><circle cx="14.75" cy="533.84" r="2.95" style="fill:#fff"/><circle cx="26.56" cy="533.84" r="2.95" style="fill:#fff"/><path d="M27.27,528.4a2.95,2.95,0,1,0,2.95-2.94A2.95,2.95,0,0,0,27.27,528.4Z" transform="translate(-3.66 -6.36)" style="fill:#fff"/><path d="M50.88,528.4a2.95,2.95,0,1,0,2.95-2.94A2.95,2.95,0,0,0,50.88,528.4Z" transform="translate(-3.66 -6.36)" style="fill:#fff"/><path d="M62.69,528.4a2.95,2.95,0,1,0,2.94-2.94A2.95,2.95,0,0,0,62.69,528.4Z" transform="translate(-3.66 -6.36)" style="fill:#fff"/><path d="M15.46,528.4a2.95,2.95,0,1,0,2.95-2.94A2.95,2.95,0,0,0,15.46,528.4Z" transform="translate(-3.66 -6.36)" style="fill:#fff"/><circle cx="26.56" cy="510.25" r="2.95" style="fill:#fff"/><path d="M39.07,516.6a3,3,0,1,0,3-2.94A2.95,2.95,0,0,0,39.07,516.6Z" transform="translate(-3.66 -6.36)" style="fill:#fff"/><circle cx="61.98" cy="510.25" r="2.95" style="fill:#fff"/><path d="M27.27,504.81a2.95,2.95,0,1,0,2.95-2.95A2.95,2.95,0,0,0,27.27,504.81Z" transform="translate(-3.66 -6.36)" style="fill:#fff"/><path d="M50.88,504.81a2.95,2.95,0,1,0,2.95-2.95A2.95,2.95,0,0,0,50.88,504.81Z" transform="translate(-3.66 -6.36)" style="fill:#fff"/><path d="M15.46,504.81a2.95,2.95,0,1,0,2.95-2.95A2.95,2.95,0,0,0,15.46,504.81Z" transform="translate(-3.66 -6.36)" style="fill:#fff"/><circle cx="50.17" cy="486.65" r="2.95" style="fill:#fff"/><path d="M74.49,622.78h0a2.94,2.94,0,0,0,2.36,2.89,2.93,2.93,0,0,0,1.18,0,2.94,2.94,0,0,0,2.36-2.89h0a3,3,0,0,0-1.8-2.71,2.91,2.91,0,0,0-1.15-.23,2.94,2.94,0,0,0-3,2.94Z" transform="translate(-3.66 -6.36)" style="fill:#fff"/><path d="M98.11,622.78a2.95,2.95,0,1,0,2.94-2.94A2.95,2.95,0,0,0,98.11,622.78Z" transform="translate(-3.66 -6.36)" style="fill:#fff"/><path d="M86.3,611h0a2.95,2.95,0,0,0,5.89,0h0a2.95,2.95,0,1,0-5.89,0Z" transform="translate(-3.66 -6.36)" style="fill:#fff"/><path d="M121.72,611h0a2.95,2.95,0,0,0,5.89,0h0a2.95,2.95,0,1,0-5.89,0Z" transform="translate(-3.66 -6.36)" style="fill:#fff"/><path d="M98.11,611h0a2.95,2.95,0,0,0,5.89,0h0a2.95,2.95,0,1,0-5.89,0Z" transform="translate(-3.66 -6.36)" style="fill:#fff"/><path d="M74.49,599.19h0a2.94,2.94,0,0,0,2.36,2.88,2.52,2.52,0,0,0,1.18,0,2.94,2.94,0,0,0,2.36-2.88h0a3,3,0,0,0-1.8-2.72,2.91,2.91,0,0,0-1.15-.23,2.94,2.94,0,0,0-3,3Z" transform="translate(-3.66 -6.36)" style="fill:#fff"/><circle cx="85.59" cy="581.03" r="2.95" style="fill:#fff"/><path d="M74.49,575.59a3,3,0,1,0,3-2.94A2.95,2.95,0,0,0,74.49,575.59Z" transform="translate(-3.66 -6.36)" style="fill:#fff"/><path d="M98.11,575.59a2.95,2.95,0,1,0,2.94-2.94A2.95,2.95,0,0,0,98.11,575.59Z" transform="translate(-3.66 -6.36)" style="fill:#fff"/><path d="M74.49,563.79a3,3,0,1,0,3-2.94A2.95,2.95,0,0,0,74.49,563.79Z" transform="translate(-3.66 -6.36)" style="fill:#fff"/><circle cx="85.59" cy="557.44" r="2.95" style="fill:#fff"/><path d="M74.49,552a3,3,0,1,0,3-3A2.95,2.95,0,0,0,74.49,552Z" transform="translate(-3.66 -6.36)" style="fill:#fff"/><path d="M98.11,552a2.95,2.95,0,1,0,2.94-3A2.94,2.94,0,0,0,98.11,552Z" transform="translate(-3.66 -6.36)" style="fill:#fff"/><circle cx="85.59" cy="533.84" r="2.95" style="fill:#fff"/><path d="M86.3,528.4a2.95,2.95,0,1,0,3-2.94A2.95,2.95,0,0,0,86.3,528.4Z" transform="translate(-3.66 -6.36)" style="fill:#fff"/><path d="M109.91,528.4a3,3,0,1,0,3-2.94A2.95,2.95,0,0,0,109.91,528.4Z" transform="translate(-3.66 -6.36)" style="fill:#fff"/><path d="M133.5,528.4a3,3,0,1,0,2.95-2.94A2.95,2.95,0,0,0,133.5,528.4Z" transform="translate(-3.66 -6.36)" style="fill:#fff"/><path d="M74.49,516.6a3,3,0,1,0,3-2.94A2.95,2.95,0,0,0,74.49,516.6Z" transform="translate(-3.66 -6.36)" style="fill:#fff"/><circle cx="97.4" cy="510.25" r="2.95" style="fill:#fff"/><path d="M74.49,504.81a3,3,0,1,0,3-2.95A2.95,2.95,0,0,0,74.49,504.81Z" transform="translate(-3.66 -6.36)" style="fill:#fff"/><path d="M86.3,504.81a2.95,2.95,0,1,0,3-2.95A2.95,2.95,0,0,0,86.3,504.81Z" transform="translate(-3.66 -6.36)" style="fill:#fff"/><path d="M121.72,504.81a2.95,2.95,0,1,0,3-2.95A2.95,2.95,0,0,0,121.72,504.81Z" transform="translate(-3.66 -6.36)" style="fill:#fff"/><path d="M74.49,493a3,3,0,1,0,3-2.95A2.95,2.95,0,0,0,74.49,493Z" transform="translate(-3.66 -6.36)" style="fill:#fff"/><path d="M98.11,493a2.95,2.95,0,1,0,2.94-2.95A2.95,2.95,0,0,0,98.11,493Z" transform="translate(-3.66 -6.36)" style="fill:#fff"/><circle cx="14.75" cy="486.65" r="2.95" style="fill:#fff"/><path d="M39.07,115.48a3,3,0,1,0,3-2.94A2.95,2.95,0,0,0,39.07,115.48Z" transform="translate(-3.66 -6.36)" style="fill:#fff"/><path d="M27.27,139.08a2.95,2.95,0,1,0,2.95-3A2.95,2.95,0,0,0,27.27,139.08Z" transform="translate(-3.66 -6.36)" style="fill:#fff"/><path d="M50.88,139.08a2.95,2.95,0,1,0,2.95-3A2.95,2.95,0,0,0,50.88,139.08Z" transform="translate(-3.66 -6.36)" style="fill:#fff"/><path d="M15.46,139.08a2.95,2.95,0,1,0,2.95-3A2.95,2.95,0,0,0,15.46,139.08Z" transform="translate(-3.66 -6.36)" style="fill:#fff"/><circle cx="26.56" cy="144.52" r="2.95" style="fill:#fff"/><path d="M39.07,150.88a2.95,2.95,0,1,0,3-2.95A2.95,2.95,0,0,0,39.07,150.88Z" transform="translate(-3.66 -6.36)" style="fill:#fff"/><circle cx="50.17" cy="144.52" r="2.95" style="fill:#fff"/><circle cx="61.98" cy="144.52" r="2.95" style="fill:#fff"/><path d="M3.66,150.88a2.95,2.95,0,1,0,2.94-2.95A2.94,2.94,0,0,0,3.66,150.88Z" transform="translate(-3.66 -6.36)" style="fill:#fff"/><path d="M27.27,162.67a2.95,2.95,0,1,0,2.95-2.94A2.95,2.95,0,0,0,27.27,162.67Z" transform="translate(-3.66 -6.36)" style="fill:#fff"/><path d="M39.07,162.67a3,3,0,1,0,3-2.94A2.95,2.95,0,0,0,39.07,162.67Z" transform="translate(-3.66 -6.36)" style="fill:#fff"/><path d="M62.69,162.67a2.95,2.95,0,1,0,2.94-2.94A2.95,2.95,0,0,0,62.69,162.67Z" transform="translate(-3.66 -6.36)" style="fill:#fff"/><path d="M15.46,162.67a2.95,2.95,0,1,0,2.95-2.94A2.95,2.95,0,0,0,15.46,162.67Z" transform="translate(-3.66 -6.36)" style="fill:#fff"/><path d="M39.07,174.47a3,3,0,1,0,3-2.94A2.95,2.95,0,0,0,39.07,174.47Z" transform="translate(-3.66 -6.36)" style="fill:#fff"/><circle cx="50.17" cy="168.11" r="2.95" style="fill:#fff"/><path d="M3.66,174.47a2.95,2.95,0,1,0,2.94-2.94A2.95,2.95,0,0,0,3.66,174.47Z" transform="translate(-3.66 -6.36)" style="fill:#fff"/><circle cx="14.75" cy="168.11" r="2.95" style="fill:#fff"/><path d="M27.27,186.27a2.95,2.95,0,1,0,2.95-3A2.95,2.95,0,0,0,27.27,186.27Z" transform="translate(-3.66 -6.36)" style="fill:#fff"/><path d="M39.07,186.27a2.95,2.95,0,1,0,3-3A2.95,2.95,0,0,0,39.07,186.27Z" transform="translate(-3.66 -6.36)" style="fill:#fff"/><path d="M50.88,186.27a2.95,2.95,0,1,0,2.95-3A2.95,2.95,0,0,0,50.88,186.27Z" transform="translate(-3.66 -6.36)" style="fill:#fff"/><path d="M109.91,150.88a3,3,0,1,0,3-2.95A2.95,2.95,0,0,0,109.91,150.88Z" transform="translate(-3.66 -6.36)" style="fill:#fff"/><path d="M121.72,162.67a2.95,2.95,0,1,0,3-2.94A2.95,2.95,0,0,0,121.72,162.67Z" transform="translate(-3.66 -6.36)" style="fill:#fff"/><path d="M109.91,174.47a3,3,0,1,0,3-2.94A2.95,2.95,0,0,0,109.91,174.47Z" transform="translate(-3.66 -6.36)" style="fill:#fff"/><path d="M109.91,186.27a3,3,0,1,0,3-3A2.95,2.95,0,0,0,109.91,186.27Z" transform="translate(-3.66 -6.36)" style="fill:#fff"/><path d="M3.66,186.27a2.95,2.95,0,1,0,2.94-3A2.95,2.95,0,0,0,3.66,186.27Z" transform="translate(-3.66 -6.36)" style="fill:#fff"/><path d="M15.46,186.27a2.95,2.95,0,1,0,2.95-3A2.95,2.95,0,0,0,15.46,186.27Z" transform="translate(-3.66 -6.36)" style="fill:#fff"/><path d="M39.07,198.07a2.95,2.95,0,1,0,3-2.95A2.95,2.95,0,0,0,39.07,198.07Z" transform="translate(-3.66 -6.36)" style="fill:#fff"/><circle cx="61.98" cy="191.71" r="2.95" style="fill:#fff"/><path d="M3.66,198.07a2.95,2.95,0,1,0,2.94-2.95A2.94,2.94,0,0,0,3.66,198.07Z" transform="translate(-3.66 -6.36)" style="fill:#fff"/><circle cx="14.75" cy="191.71" r="2.95" style="fill:#fff"/><circle cx="26.56" cy="191.71" r="2.95" style="fill:#fff"/><path d="M27.27,209.87a2.95,2.95,0,1,0,2.95-3A2.95,2.95,0,0,0,27.27,209.87Z" transform="translate(-3.66 -6.36)" style="fill:#fff"/><path d="M50.88,209.87a2.95,2.95,0,1,0,2.95-3A2.95,2.95,0,0,0,50.88,209.87Z" transform="translate(-3.66 -6.36)" style="fill:#fff"/><path d="M62.69,209.87a2.95,2.95,0,1,0,2.94-3A2.94,2.94,0,0,0,62.69,209.87Z" transform="translate(-3.66 -6.36)" style="fill:#fff"/><path d="M15.46,209.87a2.95,2.95,0,1,0,2.95-3A2.95,2.95,0,0,0,15.46,209.87Z" transform="translate(-3.66 -6.36)" style="fill:#fff"/><path d="M39.07,221.66a3,3,0,1,0,3-2.94A2.95,2.95,0,0,0,39.07,221.66Z" transform="translate(-3.66 -6.36)" style="fill:#fff"/><circle cx="61.98" cy="215.31" r="2.95" style="fill:#fff"/><circle cx="14.75" cy="215.31" r="2.95" style="fill:#fff"/><path d="M98.11,115.48a2.95,2.95,0,1,0,2.94-2.94A2.95,2.95,0,0,0,98.11,115.48Z" transform="translate(-3.66 -6.36)" style="fill:#fff"/><circle cx="85.59" cy="144.52" r="2.95" style="fill:#fff"/><path d="M74.49,162.67a3,3,0,1,0,3-2.94A2.95,2.95,0,0,0,74.49,162.67Z" transform="translate(-3.66 -6.36)" style="fill:#fff"/><path d="M98.11,162.67a2.95,2.95,0,1,0,2.94-2.94A2.95,2.95,0,0,0,98.11,162.67Z" transform="translate(-3.66 -6.36)" style="fill:#fff"/><path d="M74.49,174.47a3,3,0,1,0,3-2.94A2.95,2.95,0,0,0,74.49,174.47Z" transform="translate(-3.66 -6.36)" style="fill:#fff"/><circle cx="85.59" cy="168.11" r="2.95" style="fill:#fff"/><path d="M74.49,186.27a3,3,0,1,0,3-3A2.95,2.95,0,0,0,74.49,186.27Z" transform="translate(-3.66 -6.36)" style="fill:#fff"/><path d="M98.11,186.27a2.95,2.95,0,1,0,2.94-3A2.95,2.95,0,0,0,98.11,186.27Z" transform="translate(-3.66 -6.36)" style="fill:#fff"/><circle cx="85.59" cy="191.71" r="2.95" style="fill:#fff"/><path d="M86.3,209.87a2.95,2.95,0,1,0,3-3A2.95,2.95,0,0,0,86.3,209.87Z" transform="translate(-3.66 -6.36)" style="fill:#fff"/><path d="M109.91,209.87a3,3,0,1,0,3-3A2.95,2.95,0,0,0,109.91,209.87Z" transform="translate(-3.66 -6.36)" style="fill:#fff"/><path d="M133.5,209.87a2.95,2.95,0,1,0,2.95-3A2.95,2.95,0,0,0,133.5,209.87Z" transform="translate(-3.66 -6.36)" style="fill:#fff"/><path d="M74.49,221.66a3,3,0,1,0,3-2.94A2.95,2.95,0,0,0,74.49,221.66Z" transform="translate(-3.66 -6.36)" style="fill:#fff"/><circle cx="97.4" cy="215.31" r="2.95" style="fill:#fff"/><path d="M86.3,233.46a2.95,2.95,0,1,0,3-3A2.95,2.95,0,0,0,86.3,233.46Z" transform="translate(-3.66 -6.36)" style="fill:#fff"/><path d="M121.72,233.46a2.95,2.95,0,1,0,3-3A2.95,2.95,0,0,0,121.72,233.46Z" transform="translate(-3.66 -6.36)" style="fill:#fff"/><circle cx="97.4" cy="238.9" r="2.95" style="fill:#fff"/><path d="M39.07,139.08a2.95,2.95,0,1,0,3-3A2.95,2.95,0,0,0,39.07,139.08Z" transform="translate(-3.66 -6.36)" style="fill:#fff"/><path d="M3.66,139.08h0A3,3,0,0,0,6,142a3.8,3.8,0,0,0,.59.06,3.93,3.93,0,0,0,.6-.06,3,3,0,0,0,2.35-2.89h0a3,3,0,0,0-1.8-2.72,3,3,0,0,0-2.29,0A3,3,0,0,0,3.66,139.08Z" transform="translate(-3.66 -6.36)" style="fill:#fff"/><path d="M27.27,127.28h0a2.95,2.95,0,1,0,5.89,0h0a2.95,2.95,0,1,0-5.89,0Z" transform="translate(-3.66 -6.36)" style="fill:#fff"/><path d="M50.88,127.28h0a2.95,2.95,0,1,0,5.89,0h0a2.95,2.95,0,1,0-5.89,0Z" transform="translate(-3.66 -6.36)" style="fill:#fff"/><path d="M62.69,127.28h0a2.95,2.95,0,1,0,5.89,0h0a2.95,2.95,0,1,0-5.89,0Z" transform="translate(-3.66 -6.36)" style="fill:#fff"/><path d="M15.46,127.28h0a2.95,2.95,0,1,0,5.89,0h0a2.95,2.95,0,1,0-5.89,0Z" transform="translate(-3.66 -6.36)" style="fill:#fff"/><path d="M27.27,115.48a2.95,2.95,0,1,0,2.95-2.94A2.95,2.95,0,0,0,27.27,115.48Z" transform="translate(-3.66 -6.36)" style="fill:#fff"/><path d="M50.88,115.48a2.95,2.95,0,1,0,2.95-2.94A2.95,2.95,0,0,0,50.88,115.48Z" transform="translate(-3.66 -6.36)" style="fill:#fff"/><path d="M3.66,115.48h0A2.94,2.94,0,0,0,6,118.37a2.88,2.88,0,0,0,.59.06,3,3,0,0,0,.6-.06,2.94,2.94,0,0,0,2.35-2.89h0a2.94,2.94,0,0,0-3-2.94,2.9,2.9,0,0,0-1.14.23A2.94,2.94,0,0,0,3.66,115.48Z" transform="translate(-3.66 -6.36)" style="fill:#fff"/><path d="M15.46,115.48a2.95,2.95,0,1,0,2.95-2.94A2.95,2.95,0,0,0,15.46,115.48Z" transform="translate(-3.66 -6.36)" style="fill:#fff"/><circle cx="26.56" cy="97.33" r="2.95" style="fill:#fff"/><path d="M39.07,103.69a2.95,2.95,0,1,0,3-3A2.95,2.95,0,0,0,39.07,103.69Z" transform="translate(-3.66 -6.36)" style="fill:#fff"/><circle cx="50.17" cy="97.33" r="2.95" style="fill:#fff"/><circle cx="61.98" cy="97.33" r="2.95" style="fill:#fff"/><path d="M3.66,103.69a2.95,2.95,0,1,0,2.94-3A2.94,2.94,0,0,0,3.66,103.69Z" transform="translate(-3.66 -6.36)" style="fill:#fff"/><path d="M27.27,91.89a2.95,2.95,0,1,0,2.95-3A2.95,2.95,0,0,0,27.27,91.89Z" transform="translate(-3.66 -6.36)" style="fill:#fff"/><path d="M39.07,91.89a2.95,2.95,0,1,0,3-3A2.95,2.95,0,0,0,39.07,91.89Z" transform="translate(-3.66 -6.36)" style="fill:#fff"/><path d="M62.69,91.89a2.95,2.95,0,1,0,2.94-3A2.94,2.94,0,0,0,62.69,91.89Z" transform="translate(-3.66 -6.36)" style="fill:#fff"/><path d="M3.66,91.89a2.95,2.95,0,1,0,2.94-3A2.94,2.94,0,0,0,3.66,91.89Z" transform="translate(-3.66 -6.36)" style="fill:#fff"/><path d="M15.46,91.89a2.95,2.95,0,1,0,2.95-3A2.95,2.95,0,0,0,15.46,91.89Z" transform="translate(-3.66 -6.36)" style="fill:#fff"/><path d="M39.07,80.09a2.95,2.95,0,1,0,3-3A2.95,2.95,0,0,0,39.07,80.09Z" transform="translate(-3.66 -6.36)" style="fill:#fff"/><circle cx="50.17" cy="73.73" r="2.95" style="fill:#fff"/><path d="M3.66,80.09a2.95,2.95,0,1,0,2.94-3A2.95,2.95,0,0,0,3.66,80.09Z" transform="translate(-3.66 -6.36)" style="fill:#fff"/><circle cx="14.75" cy="73.73" r="2.95" style="fill:#fff"/><path d="M27.27,68.29a2.95,2.95,0,1,0,2.95-2.94A2.95,2.95,0,0,0,27.27,68.29Z" transform="translate(-3.66 -6.36)" style="fill:#fff"/><path d="M39.07,68.29a3,3,0,1,0,3-2.94A2.95,2.95,0,0,0,39.07,68.29Z" transform="translate(-3.66 -6.36)" style="fill:#fff"/><path d="M50.88,68.29a2.95,2.95,0,1,0,2.95-2.94A2.95,2.95,0,0,0,50.88,68.29Z" transform="translate(-3.66 -6.36)" style="fill:#fff"/><path d="M109.91,103.69a3,3,0,1,0,3-3A2.95,2.95,0,0,0,109.91,103.69Z" transform="translate(-3.66 -6.36)" style="fill:#fff"/><path d="M121.72,91.89a2.95,2.95,0,1,0,3-3A2.95,2.95,0,0,0,121.72,91.89Z" transform="translate(-3.66 -6.36)" style="fill:#fff"/><path d="M109.91,80.09a3,3,0,1,0,3-3A2.95,2.95,0,0,0,109.91,80.09Z" transform="translate(-3.66 -6.36)" style="fill:#fff"/><path d="M109.91,68.29a3,3,0,1,0,3-2.94A2.95,2.95,0,0,0,109.91,68.29Z" transform="translate(-3.66 -6.36)" style="fill:#fff"/><path d="M15.46,68.29a2.95,2.95,0,1,0,2.95-2.94A2.95,2.95,0,0,0,15.46,68.29Z" transform="translate(-3.66 -6.36)" style="fill:#fff"/><path d="M39.07,56.49a3,3,0,1,0,3-2.94A2.95,2.95,0,0,0,39.07,56.49Z" transform="translate(-3.66 -6.36)" style="fill:#fff"/><circle cx="61.98" cy="50.14" r="2.95" style="fill:#fff"/><path d="M3.66,56.49A2.95,2.95,0,1,0,6.6,53.55,2.95,2.95,0,0,0,3.66,56.49Z" transform="translate(-3.66 -6.36)" style="fill:#fff"/><circle cx="26.56" cy="50.14" r="2.95" style="fill:#fff"/><path d="M27.27,44.7a2.95,2.95,0,1,0,2.95-3A2.95,2.95,0,0,0,27.27,44.7Z" transform="translate(-3.66 -6.36)" style="fill:#fff"/><path d="M50.88,44.7a2.95,2.95,0,1,0,2.95-3A2.95,2.95,0,0,0,50.88,44.7Z" transform="translate(-3.66 -6.36)" style="fill:#fff"/><path d="M62.69,44.7a2.95,2.95,0,1,0,2.94-3A2.94,2.94,0,0,0,62.69,44.7Z" transform="translate(-3.66 -6.36)" style="fill:#fff"/><path d="M15.46,44.7a2.95,2.95,0,1,0,2.95-3A2.95,2.95,0,0,0,15.46,44.7Z" transform="translate(-3.66 -6.36)" style="fill:#fff"/><circle cx="26.56" cy="26.54" r="2.95" style="fill:#fff"/><path d="M39.07,32.9A2.95,2.95,0,1,0,42,30,2.95,2.95,0,0,0,39.07,32.9Z" transform="translate(-3.66 -6.36)" style="fill:#fff"/><circle cx="61.98" cy="26.54" r="2.95" style="fill:#fff"/><circle cx="14.75" cy="26.54" r="2.95" style="fill:#fff"/><path d="M27.27,21.1a2.95,2.95,0,1,0,2.95-2.94A2.95,2.95,0,0,0,27.27,21.1Z" transform="translate(-3.66 -6.36)" style="fill:#fff"/><path d="M50.88,21.1a2.95,2.95,0,1,0,2.95-2.94A2.95,2.95,0,0,0,50.88,21.1Z" transform="translate(-3.66 -6.36)" style="fill:#fff"/><path d="M15.46,21.1a2.95,2.95,0,1,0,2.95-2.94A2.95,2.95,0,0,0,15.46,21.1Z" transform="translate(-3.66 -6.36)" style="fill:#fff"/><circle cx="2.95" cy="26.54" r="2.95" style="fill:#fff"/><path d="M3.66,21.1A2.95,2.95,0,1,0,6.6,18.16,2.94,2.94,0,0,0,3.66,21.1Z" transform="translate(-3.66 -6.36)" style="fill:#fff"/><circle cx="26.56" cy="2.95" r="2.95" style="fill:#fff"/><circle cx="50.17" cy="2.95" r="2.95" style="fill:#fff"/><path d="M74.49,139.08h0A3,3,0,0,0,76.85,142,2.93,2.93,0,0,0,78,142a3,3,0,0,0,2.36-2.89h0a3,3,0,0,0-1.8-2.72,2.91,2.91,0,0,0-1.15-.23,2.94,2.94,0,0,0-3,3Z" transform="translate(-3.66 -6.36)" style="fill:#fff"/><path d="M98.11,139.08a2.95,2.95,0,1,0,2.94-3A2.95,2.95,0,0,0,98.11,139.08Z" transform="translate(-3.66 -6.36)" style="fill:#fff"/><path d="M86.3,127.28h0a2.95,2.95,0,1,0,5.89,0h0a2.95,2.95,0,1,0-5.89,0Z" transform="translate(-3.66 -6.36)" style="fill:#fff"/><path d="M121.72,127.28h0a2.95,2.95,0,1,0,5.89,0h0a2.95,2.95,0,1,0-5.89,0Z" transform="translate(-3.66 -6.36)" style="fill:#fff"/><path d="M98.11,127.28h0a2.95,2.95,0,1,0,5.89,0h0a2.95,2.95,0,1,0-5.89,0Z" transform="translate(-3.66 -6.36)" style="fill:#fff"/><path d="M74.49,115.48h0a2.94,2.94,0,0,0,2.36,2.89,2.93,2.93,0,0,0,1.18,0,2.94,2.94,0,0,0,2.36-2.89h0a3,3,0,0,0-1.8-2.71,2.91,2.91,0,0,0-1.15-.23,2.94,2.94,0,0,0-3,2.94Z" transform="translate(-3.66 -6.36)" style="fill:#fff"/><circle cx="85.59" cy="97.33" r="2.95" style="fill:#fff"/><path d="M74.49,91.89a3,3,0,1,0,3-3A2.95,2.95,0,0,0,74.49,91.89Z" transform="translate(-3.66 -6.36)" style="fill:#fff"/><path d="M98.11,91.89a2.95,2.95,0,1,0,2.94-3A2.94,2.94,0,0,0,98.11,91.89Z" transform="translate(-3.66 -6.36)" style="fill:#fff"/><path d="M74.49,80.09a3,3,0,1,0,3-3A2.95,2.95,0,0,0,74.49,80.09Z" transform="translate(-3.66 -6.36)" style="fill:#fff"/><circle cx="85.59" cy="73.73" r="2.95" style="fill:#fff"/><path d="M74.49,68.29a3,3,0,1,0,3-2.94A2.95,2.95,0,0,0,74.49,68.29Z" transform="translate(-3.66 -6.36)" style="fill:#fff"/><path d="M98.11,68.29a2.95,2.95,0,1,0,2.94-2.94A2.95,2.95,0,0,0,98.11,68.29Z" transform="translate(-3.66 -6.36)" style="fill:#fff"/><circle cx="85.59" cy="50.14" r="2.95" style="fill:#fff"/><path d="M86.3,44.7a2.95,2.95,0,1,0,3-3A2.95,2.95,0,0,0,86.3,44.7Z" transform="translate(-3.66 -6.36)" style="fill:#fff"/><path d="M109.91,44.7a3,3,0,1,0,3-3A2.95,2.95,0,0,0,109.91,44.7Z" transform="translate(-3.66 -6.36)" style="fill:#fff"/><path d="M133.5,44.7a2.95,2.95,0,1,0,2.95-3A2.95,2.95,0,0,0,133.5,44.7Z" transform="translate(-3.66 -6.36)" style="fill:#fff"/><path d="M74.49,32.9a3,3,0,1,0,3-2.95A2.95,2.95,0,0,0,74.49,32.9Z" transform="translate(-3.66 -6.36)" style="fill:#fff"/><circle cx="97.4" cy="26.54" r="2.95" style="fill:#fff"/><path d="M74.49,21.1a3,3,0,1,0,3-2.94A2.95,2.95,0,0,0,74.49,21.1Z" transform="translate(-3.66 -6.36)" style="fill:#fff"/><path d="M86.3,21.1a2.95,2.95,0,1,0,3-2.94A2.95,2.95,0,0,0,86.3,21.1Z" transform="translate(-3.66 -6.36)" style="fill:#fff"/><path d="M121.72,21.1a2.95,2.95,0,1,0,3-2.94A2.95,2.95,0,0,0,121.72,21.1Z" transform="translate(-3.66 -6.36)" style="fill:#fff"/><path d="M74.49,9.3a3,3,0,1,0,3-2.94A2.95,2.95,0,0,0,74.49,9.3Z" transform="translate(-3.66 -6.36)" style="fill:#fff"/><circle cx="97.4" cy="2.95" r="2.95" style="fill:#fff"/><circle cx="14.75" cy="2.95" r="2.95" style="fill:#fff"/><circle cx="2.95" cy="2.95" r="2.95" style="fill:#fff"/><path d="M39.07,363.23a3,3,0,1,0,3-2.94A2.95,2.95,0,0,0,39.07,363.23Z" transform="translate(-3.66 -6.36)" style="fill:#fff"/><path d="M3.66,363.23a2.95,2.95,0,1,0,2.94-2.94A2.95,2.95,0,0,0,3.66,363.23Z" transform="translate(-3.66 -6.36)" style="fill:#fff"/><circle cx="26.56" cy="345.08" r="2.95" style="fill:#fff"/><circle cx="50.17" cy="345.08" r="2.95" style="fill:#fff"/><circle cx="61.98" cy="345.08" r="2.95" style="fill:#fff"/><circle cx="14.75" cy="345.08" r="2.95" style="fill:#fff"/><path d="M27.27,339.64a2.95,2.95,0,1,0,2.95-2.95A2.95,2.95,0,0,0,27.27,339.64Z" transform="translate(-3.66 -6.36)" style="fill:#fff"/><path d="M50.88,339.64a2.95,2.95,0,1,0,2.95-2.95A2.95,2.95,0,0,0,50.88,339.64Z" transform="translate(-3.66 -6.36)" style="fill:#fff"/><path d="M3.66,339.64a2.95,2.95,0,1,0,2.94-2.95A2.95,2.95,0,0,0,3.66,339.64Z" transform="translate(-3.66 -6.36)" style="fill:#fff"/><path d="M15.46,339.64a2.95,2.95,0,1,0,2.95-2.95A2.95,2.95,0,0,0,15.46,339.64Z" transform="translate(-3.66 -6.36)" style="fill:#fff"/><circle cx="26.56" cy="321.48" r="2.95" style="fill:#fff"/><path d="M39.07,327.84a2.95,2.95,0,1,0,3-2.95A2.95,2.95,0,0,0,39.07,327.84Z" transform="translate(-3.66 -6.36)" style="fill:#fff"/><circle cx="50.17" cy="321.48" r="2.95" style="fill:#fff"/><circle cx="61.98" cy="321.48" r="2.95" style="fill:#fff"/><path d="M3.66,327.84a2.95,2.95,0,1,0,2.94-2.95A2.95,2.95,0,0,0,3.66,327.84Z" transform="translate(-3.66 -6.36)" style="fill:#fff"/><path d="M27.27,316a2.95,2.95,0,1,0,2.95-2.94A2.95,2.95,0,0,0,27.27,316Z" transform="translate(-3.66 -6.36)" style="fill:#fff"/><path d="M39.07,316a3,3,0,1,0,3-2.94A2.95,2.95,0,0,0,39.07,316Z" transform="translate(-3.66 -6.36)" style="fill:#fff"/><path d="M62.69,316a2.95,2.95,0,1,0,2.94-2.94A2.95,2.95,0,0,0,62.69,316Z" transform="translate(-3.66 -6.36)" style="fill:#fff"/><path d="M15.46,316a2.95,2.95,0,1,0,2.95-2.94A2.95,2.95,0,0,0,15.46,316Z" transform="translate(-3.66 -6.36)" style="fill:#fff"/><path d="M39.07,304.25a2.95,2.95,0,1,0,3-2.95A2.95,2.95,0,0,0,39.07,304.25Z" transform="translate(-3.66 -6.36)" style="fill:#fff"/><circle cx="50.17" cy="297.89" r="2.95" style="fill:#fff"/><path d="M3.66,304.25A2.95,2.95,0,1,0,6.6,301.3,2.94,2.94,0,0,0,3.66,304.25Z" transform="translate(-3.66 -6.36)" style="fill:#fff"/><circle cx="14.75" cy="297.89" r="2.95" style="fill:#fff"/><path d="M27.27,292.45a2.95,2.95,0,1,0,2.95-2.95A2.94,2.94,0,0,0,27.27,292.45Z" transform="translate(-3.66 -6.36)" style="fill:#fff"/><path d="M39.07,292.45a2.95,2.95,0,1,0,3-2.95A2.94,2.94,0,0,0,39.07,292.45Z" transform="translate(-3.66 -6.36)" style="fill:#fff"/><path d="M50.88,292.45a2.95,2.95,0,1,0,2.95-2.95A2.94,2.94,0,0,0,50.88,292.45Z" transform="translate(-3.66 -6.36)" style="fill:#fff"/><path d="M109.91,327.84a3,3,0,1,0,3-2.95A2.95,2.95,0,0,0,109.91,327.84Z" transform="translate(-3.66 -6.36)" style="fill:#fff"/><path d="M121.72,316a2.95,2.95,0,1,0,3-2.94A2.95,2.95,0,0,0,121.72,316Z" transform="translate(-3.66 -6.36)" style="fill:#fff"/><path d="M109.91,304.25a3,3,0,1,0,3-2.95A2.95,2.95,0,0,0,109.91,304.25Z" transform="translate(-3.66 -6.36)" style="fill:#fff"/><path d="M109.91,292.45a3,3,0,1,0,3-2.95A2.94,2.94,0,0,0,109.91,292.45Z" transform="translate(-3.66 -6.36)" style="fill:#fff"/><path d="M3.66,292.45A2.95,2.95,0,1,0,6.6,289.5,2.94,2.94,0,0,0,3.66,292.45Z" transform="translate(-3.66 -6.36)" style="fill:#fff"/><path d="M15.46,292.45a2.95,2.95,0,1,0,2.95-2.95A2.94,2.94,0,0,0,15.46,292.45Z" transform="translate(-3.66 -6.36)" style="fill:#fff"/><path d="M39.07,280.65a2.95,2.95,0,1,0,3-2.95A2.95,2.95,0,0,0,39.07,280.65Z" transform="translate(-3.66 -6.36)" style="fill:#fff"/><circle cx="61.98" cy="274.29" r="2.95" style="fill:#fff"/><path d="M3.66,280.65A2.95,2.95,0,1,0,6.6,277.7,2.95,2.95,0,0,0,3.66,280.65Z" transform="translate(-3.66 -6.36)" style="fill:#fff"/><circle cx="26.56" cy="274.29" r="2.95" style="fill:#fff"/><path d="M27.27,268.85a2.95,2.95,0,1,0,2.95-2.94A2.95,2.95,0,0,0,27.27,268.85Z" transform="translate(-3.66 -6.36)" style="fill:#fff"/><path d="M50.88,268.85a2.95,2.95,0,1,0,2.95-2.94A2.95,2.95,0,0,0,50.88,268.85Z" transform="translate(-3.66 -6.36)" style="fill:#fff"/><path d="M62.69,268.85a2.95,2.95,0,1,0,2.94-2.94A2.95,2.95,0,0,0,62.69,268.85Z" transform="translate(-3.66 -6.36)" style="fill:#fff"/><path d="M15.46,268.85a2.95,2.95,0,1,0,2.95-2.94A2.95,2.95,0,0,0,15.46,268.85Z" transform="translate(-3.66 -6.36)" style="fill:#fff"/><circle cx="26.56" cy="250.7" r="2.95" style="fill:#fff"/><path d="M39.07,257.05a3,3,0,1,0,3-2.94A2.95,2.95,0,0,0,39.07,257.05Z" transform="translate(-3.66 -6.36)" style="fill:#fff"/><circle cx="61.98" cy="250.7" r="2.95" style="fill:#fff"/><circle cx="14.75" cy="250.7" r="2.95" style="fill:#fff"/><path d="M27.27,245.26h0a2.94,2.94,0,0,0,2.35,2.88,3,3,0,0,0,1.19,0,2.94,2.94,0,0,0,2.35-2.88h0a2.95,2.95,0,1,0-5.89,0Z" transform="translate(-3.66 -6.36)" style="fill:#fff"/><path d="M50.88,245.26h0a2.94,2.94,0,0,0,2.35,2.88,3,3,0,0,0,.6.06,2.88,2.88,0,0,0,.59-.06,2.94,2.94,0,0,0,2.35-2.88h0a2.95,2.95,0,1,0-5.89,0Z" transform="translate(-3.66 -6.36)" style="fill:#fff"/><path d="M27.27,233.46h0a2.95,2.95,0,1,0,5.89,0h0a3,3,0,0,0-1.8-2.72,3,3,0,0,0-2.29,0A3,3,0,0,0,27.27,233.46Z" transform="translate(-3.66 -6.36)" style="fill:#fff"/><path d="M50.88,233.46h0a2.95,2.95,0,1,0,5.89,0h0a3,3,0,0,0-1.8-2.72,3,3,0,0,0-2.29,0A3,3,0,0,0,50.88,233.46Z" transform="translate(-3.66 -6.36)" style="fill:#fff"/><path d="M3.66,221.66a2.95,2.95,0,1,0,2.94-2.94A2.94,2.94,0,0,0,3.66,221.66Z" transform="translate(-3.66 -6.36)" style="fill:#fff"/><path d="M3.66,245.26h0a2.95,2.95,0,0,0,5.89,0h0a3,3,0,0,0-1.8-2.72,3,3,0,0,0-2.29,0A3,3,0,0,0,3.66,245.26Z" transform="translate(-3.66 -6.36)" style="fill:#fff"/><path d="M74.49,363.23h0a2.94,2.94,0,0,0,2.36,2.89,2.93,2.93,0,0,0,1.18,0,2.94,2.94,0,0,0,2.36-2.89h0a3,3,0,0,0-5.9,0Z" transform="translate(-3.66 -6.36)" style="fill:#fff"/><path d="M98.11,363.23h0a2.94,2.94,0,0,0,2.35,2.89,2.88,2.88,0,0,0,.59.06,3,3,0,0,0,.6-.06,2.94,2.94,0,0,0,2.35-2.89h0a2.95,2.95,0,0,0-5.89,0Z" transform="translate(-3.66 -6.36)" style="fill:#fff"/><circle cx="85.59" cy="345.08" r="2.95" style="fill:#fff"/><circle cx="121.01" cy="345.08" r="2.95" style="fill:#fff"/><circle cx="97.4" cy="345.08" r="2.95" style="fill:#fff"/><path d="M74.49,339.64a3,3,0,1,0,3-2.95A2.95,2.95,0,0,0,74.49,339.64Z" transform="translate(-3.66 -6.36)" style="fill:#fff"/><circle cx="85.59" cy="321.48" r="2.95" style="fill:#fff"/><path d="M74.49,316a3,3,0,1,0,3-2.94A2.95,2.95,0,0,0,74.49,316Z" transform="translate(-3.66 -6.36)" style="fill:#fff"/><path d="M98.11,316a2.95,2.95,0,1,0,2.94-2.94A2.95,2.95,0,0,0,98.11,316Z" transform="translate(-3.66 -6.36)" style="fill:#fff"/><path d="M74.49,304.25a3,3,0,1,0,3-2.95A2.95,2.95,0,0,0,74.49,304.25Z" transform="translate(-3.66 -6.36)" style="fill:#fff"/><circle cx="85.59" cy="297.89" r="2.95" style="fill:#fff"/><path d="M74.49,292.45a3,3,0,1,0,3-2.95A2.94,2.94,0,0,0,74.49,292.45Z" transform="translate(-3.66 -6.36)" style="fill:#fff"/><path d="M98.11,292.45a2.95,2.95,0,1,0,2.94-2.95A2.94,2.94,0,0,0,98.11,292.45Z" transform="translate(-3.66 -6.36)" style="fill:#fff"/><circle cx="85.59" cy="274.29" r="2.95" style="fill:#fff"/><path d="M86.3,268.85a2.95,2.95,0,1,0,3-2.94A2.95,2.95,0,0,0,86.3,268.85Z" transform="translate(-3.66 -6.36)" style="fill:#fff"/><path d="M109.91,268.85a3,3,0,1,0,3-2.94A2.95,2.95,0,0,0,109.91,268.85Z" transform="translate(-3.66 -6.36)" style="fill:#fff"/><path d="M133.5,268.85a3,3,0,1,0,2.95-2.94A2.95,2.95,0,0,0,133.5,268.85Z" transform="translate(-3.66 -6.36)" style="fill:#fff"/><path d="M74.49,257.05a3,3,0,1,0,3-2.94A2.95,2.95,0,0,0,74.49,257.05Z" transform="translate(-3.66 -6.36)" style="fill:#fff"/><circle cx="97.4" cy="250.7" r="2.95" style="fill:#fff"/><path d="M74.49,245.26h0a2.94,2.94,0,0,0,2.36,2.88,2.93,2.93,0,0,0,1.18,0,2.94,2.94,0,0,0,2.36-2.88h0a2.95,2.95,0,0,0-5.9,0Z" transform="translate(-3.66 -6.36)" style="fill:#fff"/><path d="M86.3,245.26a2.95,2.95,0,1,0,3-2.95A2.95,2.95,0,0,0,86.3,245.26Z" transform="translate(-3.66 -6.36)" style="fill:#fff"/><path d="M133.52,457.62a2.95,2.95,0,1,0,2.94-2.95A2.94,2.94,0,0,0,133.52,457.62Z" transform="translate(-3.66 -6.36)" style="fill:#fff"/><path d="M145.32,445.82a2.95,2.95,0,1,0,3-2.95A2.95,2.95,0,0,0,145.32,445.82Z" transform="translate(-3.66 -6.36)" style="fill:#fff"/><path d="M133.52,434a2.95,2.95,0,1,0,2.94-2.95A2.95,2.95,0,0,0,133.52,434Z" transform="translate(-3.66 -6.36)" style="fill:#fff"/><circle cx="144.61" cy="474.85" r="2.95" style="fill:#fff"/><path d="M133.52,398.63a2.95,2.95,0,1,0,2.94-2.95A2.94,2.94,0,0,0,133.52,398.63Z" transform="translate(-3.66 -6.36)" style="fill:#fff"/><path d="M157.11,398.63a2.95,2.95,0,1,0,2.94-2.95A2.94,2.94,0,0,0,157.11,398.63Z" transform="translate(-3.66 -6.36)" style="fill:#fff"/><path d="M145.32,375a2.95,2.95,0,1,0,3-2.94A2.95,2.95,0,0,0,145.32,375Z" transform="translate(-3.66 -6.36)" style="fill:#fff"/><path d="M133.52,634.58a2.95,2.95,0,1,0,2.94-2.94A2.95,2.95,0,0,0,133.52,634.58Z" transform="translate(-3.66 -6.36)" style="fill:#fff"/><path d="M145.32,646.38a2.95,2.95,0,1,0,3-3A2.95,2.95,0,0,0,145.32,646.38Z" transform="translate(-3.66 -6.36)" style="fill:#fff"/><path d="M133.52,658.18a2.95,2.95,0,1,0,2.94-2.95A2.94,2.94,0,0,0,133.52,658.18Z" transform="translate(-3.66 -6.36)" style="fill:#fff"/><path d="M133.52,670a2.95,2.95,0,1,0,2.94-2.94A2.95,2.95,0,0,0,133.52,670Z" transform="translate(-3.66 -6.36)" style="fill:#fff"/><path d="M133.52,693.57a2.95,2.95,0,1,0,2.94-3A2.95,2.95,0,0,0,133.52,693.57Z" transform="translate(-3.66 -6.36)" style="fill:#fff"/><path d="M157.11,693.57a2.95,2.95,0,1,0,2.94-3A2.95,2.95,0,0,0,157.11,693.57Z" transform="translate(-3.66 -6.36)" style="fill:#fff"/><path d="M145.32,717.17a2.95,2.95,0,1,0,3-2.95A2.95,2.95,0,0,0,145.32,717.17Z" transform="translate(-3.66 -6.36)" style="fill:#fff"/><path d="M133.52,587.39a2.95,2.95,0,1,0,2.94-2.95A2.95,2.95,0,0,0,133.52,587.39Z" transform="translate(-3.66 -6.36)" style="fill:#fff"/><path d="M145.32,575.59a2.95,2.95,0,1,0,3-2.94A2.95,2.95,0,0,0,145.32,575.59Z" transform="translate(-3.66 -6.36)" style="fill:#fff"/><path d="M133.52,563.79a2.95,2.95,0,1,0,2.94-2.94A2.95,2.95,0,0,0,133.52,563.79Z" transform="translate(-3.66 -6.36)" style="fill:#fff"/><path d="M145.32,611h0a2.95,2.95,0,0,0,5.89,0h0a2.95,2.95,0,1,0-5.89,0Z" transform="translate(-3.66 -6.36)" style="fill:#fff"/><path d="M133.52,528.4a2.95,2.95,0,1,0,2.94-2.94A2.95,2.95,0,0,0,133.52,528.4Z" transform="translate(-3.66 -6.36)" style="fill:#fff"/><path d="M157.11,528.4a2.95,2.95,0,1,0,2.94-2.94A2.95,2.95,0,0,0,157.11,528.4Z" transform="translate(-3.66 -6.36)" style="fill:#fff"/><path d="M145.32,504.81a2.95,2.95,0,1,0,3-2.95A2.95,2.95,0,0,0,145.32,504.81Z" transform="translate(-3.66 -6.36)" style="fill:#fff"/><path d="M133.52,150.88a2.95,2.95,0,1,0,2.94-2.95A2.94,2.94,0,0,0,133.52,150.88Z" transform="translate(-3.66 -6.36)" style="fill:#fff"/><path d="M145.32,162.67a2.95,2.95,0,1,0,3-2.94A2.95,2.95,0,0,0,145.32,162.67Z" transform="translate(-3.66 -6.36)" style="fill:#fff"/><path d="M133.52,174.47a2.95,2.95,0,1,0,2.94-2.94A2.95,2.95,0,0,0,133.52,174.47Z" transform="translate(-3.66 -6.36)" style="fill:#fff"/><path d="M133.52,186.27a2.95,2.95,0,1,0,2.94-3A2.95,2.95,0,0,0,133.52,186.27Z" transform="translate(-3.66 -6.36)" style="fill:#fff"/><path d="M133.52,209.87a2.95,2.95,0,1,0,2.94-3A2.94,2.94,0,0,0,133.52,209.87Z" transform="translate(-3.66 -6.36)" style="fill:#fff"/><path d="M157.11,209.87a2.95,2.95,0,1,0,2.94-3A2.94,2.94,0,0,0,157.11,209.87Z" transform="translate(-3.66 -6.36)" style="fill:#fff"/><path d="M157.11,68.29a2.95,2.95,0,1,0,2.94-2.94A2.95,2.95,0,0,0,157.11,68.29Z" transform="translate(-3.66 -6.36)" style="fill:#fff"/><path d="M145.32,233.46a2.95,2.95,0,1,0,3-3A2.95,2.95,0,0,0,145.32,233.46Z" transform="translate(-3.66 -6.36)" style="fill:#fff"/><path d="M133.52,103.69a2.95,2.95,0,1,0,2.94-3A2.94,2.94,0,0,0,133.52,103.69Z" transform="translate(-3.66 -6.36)" style="fill:#fff"/><path d="M145.32,91.89a2.95,2.95,0,1,0,3-3A2.95,2.95,0,0,0,145.32,91.89Z" transform="translate(-3.66 -6.36)" style="fill:#fff"/><path d="M133.52,80.09a2.95,2.95,0,1,0,2.94-3A2.95,2.95,0,0,0,133.52,80.09Z" transform="translate(-3.66 -6.36)" style="fill:#fff"/><path d="M133.52,68.29a2.95,2.95,0,1,0,2.94-2.94A2.95,2.95,0,0,0,133.52,68.29Z" transform="translate(-3.66 -6.36)" style="fill:#fff"/><path d="M145.32,127.28h0a2.95,2.95,0,1,0,5.89,0h0a2.95,2.95,0,1,0-5.89,0Z" transform="translate(-3.66 -6.36)" style="fill:#fff"/><path d="M133.52,44.7a2.95,2.95,0,1,0,2.94-3A2.94,2.94,0,0,0,133.52,44.7Z" transform="translate(-3.66 -6.36)" style="fill:#fff"/><path d="M145.32,9.3a2.95,2.95,0,1,0,3-2.94A2.95,2.95,0,0,0,145.32,9.3Z" transform="translate(-3.66 -6.36)" style="fill:#fff"/><path d="M133.52,327.84a2.95,2.95,0,1,0,2.94-2.95A2.95,2.95,0,0,0,133.52,327.84Z" transform="translate(-3.66 -6.36)" style="fill:#fff"/><path d="M145.32,316a2.95,2.95,0,1,0,3-2.94A2.95,2.95,0,0,0,145.32,316Z" transform="translate(-3.66 -6.36)" style="fill:#fff"/><path d="M133.52,304.25a2.95,2.95,0,1,0,2.94-2.95A2.94,2.94,0,0,0,133.52,304.25Z" transform="translate(-3.66 -6.36)" style="fill:#fff"/><circle cx="144.61" cy="345.08" r="2.95" style="fill:#fff"/><path d="M133.52,268.85a2.95,2.95,0,1,0,2.94-2.94A2.95,2.95,0,0,0,133.52,268.85Z" transform="translate(-3.66 -6.36)" style="fill:#fff"/><path d="M157.11,268.85a2.95,2.95,0,1,0,2.94-2.94A2.95,2.95,0,0,0,157.11,268.85Z" transform="translate(-3.66 -6.36)" style="fill:#fff"/><path d="M145.32,245.26a2.95,2.95,0,1,0,3-2.95A2.95,2.95,0,0,0,145.32,245.26Z" transform="translate(-3.66 -6.36)" style="fill:#fff"/><path d="M74.49,233.46h0a3,3,0,0,0,5.9,0h0a3,3,0,0,0-1.8-2.72,3.1,3.1,0,0,0-1.15-.23,3.14,3.14,0,0,0-1.15.23A3,3,0,0,0,74.49,233.46Z" transform="translate(-3.66 -6.36)" style="fill:#fff"/><circle cx="97.4" cy="227.1" r="2.95" style="fill:#fff"/><path d="M15.46,233.46h0a2.95,2.95,0,1,0,5.89,0h0a3,3,0,0,0-1.79-2.72,3.14,3.14,0,0,0-1.15-.23,3.1,3.1,0,0,0-1.15.23A3,3,0,0,0,15.46,233.46Z" transform="translate(-3.66 -6.36)" style="fill:#fff"/></svg>