<svg xmlns="http://www.w3.org/2000/svg" viewBox="0 0 236.19 52.72"><title>logo</title><path d="M115.27,26.12a.88.88,0,0,0,1-1,1,1,0,0,0-.27-.72.94.94,0,0,0-.72-.27.88.88,0,0,0-1,1,1,1,0,0,0,.28.74A1,1,0,0,0,115.27,26.12Z" transform="translate(-2.58 -2.07)" style="fill:#c78d6b"/><path d="M112.94,26.12a.88.88,0,0,0,1-1,.93.93,0,0,0-1-1,.88.88,0,0,0-1,1,.93.93,0,0,0,1,1Z" transform="translate(-2.58 -2.07)" style="fill:#c78d6b"/><path d="M162.09,26.43a.89.89,0,0,0,1-1,1,1,0,1,0-2,0,1,1,0,0,0,.28.75A1,1,0,0,0,162.09,26.43Z" transform="translate(-2.58 -2.07)" style="fill:#c78d6b"/><path d="M172.17,26.43c.65,0,1-.34,1-1a.9.9,0,0,0-1-1,1,1,0,0,0-.73.27,1,1,0,0,0-.27.71,1,1,0,0,0,.27.75A1,1,0,0,0,172.17,26.43Z" transform="translate(-2.58 -2.07)" style="fill:#c78d6b"/><path d="M189.12,31.52a1.44,1.44,0,0,1-.3,1,1.36,1.36,0,0,1-1,.3h-1.39a1.13,1.13,0,0,1-.83-.25,1.16,1.16,0,0,1-.25-.84v-.44a4.11,4.11,0,0,0-.7-2.5,2.75,2.75,0,0,0-2.36-1.12,2.8,2.8,0,0,0-2.15.86,3.87,3.87,0,0,0-.92,2.76v.44a1.2,1.2,0,0,1-.25.84,1.08,1.08,0,0,1-.81.25h-3.58a1.1,1.1,0,0,1-.82-.25,1.2,1.2,0,0,1-.24-.84V28l-1.91,1v2.8a1.2,1.2,0,0,1-.24.84,1.1,1.1,0,0,1-.82.25H167c-.72,0-1.08-.33-1.08-1v-.32a3.79,3.79,0,0,0-.91-2.59,3.55,3.55,0,0,0-2.86-1.24,4.83,4.83,0,0,0-3.54,1.58V24.91l-1.91,1v6.41l-.19.51h-11a1.1,1.1,0,0,1-.82-.25,1.16,1.16,0,0,1-.25-.84v-.44a4.11,4.11,0,0,0-.7-2.5,2.76,2.76,0,0,0-2.36-1.12,2.8,2.8,0,0,0-2.15.86,3.87,3.87,0,0,0-.93,2.76v.44a1.2,1.2,0,0,1-.24.84,1.09,1.09,0,0,1-.82.25H117.83a1.12,1.12,0,0,1-.82-.25,1.16,1.16,0,0,1-.25-.84v-5l-1.89,1v.4a2.53,2.53,0,0,0-1-.21,2.68,2.68,0,0,0-1.9.78,3.54,3.54,0,0,0-.29,4.52,2.73,2.73,0,0,0,2.23,1,2.48,2.48,0,0,0,1.59-.5,2.66,2.66,0,0,0,2.18.94H137.4a2.85,2.85,0,0,0,1.81-.56,2.74,2.74,0,0,0,2.15.87,2.82,2.82,0,0,0,2.15-.87,2.72,2.72,0,0,0,1.79.56h18a2.67,2.67,0,0,0,1.74-.56,2.72,2.72,0,0,0,1.79.56h3.93a2.8,2.8,0,0,0,1.84-.59,2.76,2.76,0,0,0,1.83.59h3.94a2.84,2.84,0,0,0,1.8-.56,2.74,2.74,0,0,0,2.15.87,2.8,2.8,0,0,0,2.15-.87,2.74,2.74,0,0,0,1.79.56h1.7a3,3,0,0,0,2.18-.8,3.17,3.17,0,0,0,.89-2.35V24.91l-1.89,1ZM114,32.62a1,1,0,0,1-.84-.39,1.71,1.71,0,0,1-.3-1.06,1.73,1.73,0,0,1,.31-1.08,1,1,0,0,1,.81-.41,1.4,1.4,0,0,1,.9.34v1.83a3.78,3.78,0,0,0,0,.38A1.08,1.08,0,0,1,114,32.62Zm27.37.53c-.78,0-1.17-.62-1.17-1.88s.39-1.8,1.17-1.8,1.15.6,1.15,1.8S142.12,33.15,141.36,33.15ZM164,31.82a1.42,1.42,0,0,1-.16.83.85.85,0,0,1-.66.2h-4.6v-.47a5.8,5.8,0,0,1,1.56-2.14,3.14,3.14,0,0,1,2-.77,1.73,1.73,0,0,1,1.35.58,2.15,2.15,0,0,1,.52,1.48Zm18.28,1.33c-.78,0-1.17-.62-1.17-1.88s.39-1.8,1.17-1.8,1.15.6,1.15,1.8S183.07,33.15,182.3,33.15Z" transform="translate(-2.58 -2.07)" style="fill:#c78d6b"/><polygon points="191.16 23.86 191.16 32.62 193.07 32.62 193.07 22.85 191.16 23.86" style="fill:#c78d6b"/><path d="M146.51,48.36a1.2,1.2,0,0,1-.24.84,1.12,1.12,0,0,1-.82.25H120.58a1.09,1.09,0,0,1-.82-.25,1.2,1.2,0,0,1-.24-.84V41.51l-1.9,1V50a2.24,2.24,0,0,1-.65,1.69,2.41,2.41,0,0,1-1.76.62,2.45,2.45,0,0,1-1.78-.65,2.42,2.42,0,0,1-.66-1.78,4.09,4.09,0,0,1,.63-2.26l-1.88.42a4.19,4.19,0,0,0,.36,4.68,4.09,4.09,0,0,0,3.33,1.43,4.54,4.54,0,0,0,2.62-.76,3.78,3.78,0,0,0,1.56-2.36,2.67,2.67,0,0,0,1,.22h25.24a2.74,2.74,0,0,0,1.94-.68,2.77,2.77,0,0,0,.85-2.15V44.56l-1.91,1Z" transform="translate(-2.58 -2.07)" style="fill:#c78d6b"/><path d="M147.3,52.66a.94.94,0,0,0-1,1,1,1,0,0,0,.27.74,1,1,0,0,0,.73.27.88.88,0,0,0,1-1,.91.91,0,0,0-1-1Z" transform="translate(-2.58 -2.07)" style="fill:#c78d6b"/><path d="M153.87,53.43c0-.3.17-.45.5-.45a1.15,1.15,0,0,1,.73.32v-.88a1.36,1.36,0,0,0-.85-.32,1.19,1.19,0,0,0-.86.35,1.14,1.14,0,0,0-.35.83,1.25,1.25,0,0,0,.16.62h-.45l-.49.88h2.82l.49-.88h-1.5A.75.75,0,0,1,153.87,53.43Z" transform="translate(-2.58 -2.07)" style="fill:#c78d6b"/><path d="M164.4,42.53v5.59a1.44,1.44,0,0,1-.3,1,1.36,1.36,0,0,1-1,.3h-3.17a1.08,1.08,0,0,1-.81-.25,1.16,1.16,0,0,1-.25-.84V41.51l-1.91,1v5.59a1.44,1.44,0,0,1-.29,1,1.36,1.36,0,0,1-1,.3H155v-6l-1.91,1v5h-2l-1,1.83h5.71a3.21,3.21,0,0,0,2.05-.66,2.76,2.76,0,0,0,1.92.66h3.46a3,3,0,0,0,2.18-.8,3.16,3.16,0,0,0,.89-2.35V41.51Z" transform="translate(-2.58 -2.07)" style="fill:#c78d6b"/><path d="M176.05,42.73c.65,0,1-.34,1-1a1,1,0,0,0-.27-.72.93.93,0,0,0-.71-.26.87.87,0,0,0-1,1,1,1,0,0,0,.27.74A1,1,0,0,0,176.05,42.73Z" transform="translate(-2.58 -2.07)" style="fill:#c78d6b"/><path d="M173.71,42.73a.89.89,0,0,0,1-1,1,1,0,0,0-.27-.72.94.94,0,0,0-.72-.26.88.88,0,0,0-1,1,1,1,0,0,0,.27.74A1,1,0,0,0,173.71,42.73Z" transform="translate(-2.58 -2.07)" style="fill:#c78d6b"/><path d="M201,52.66a.88.88,0,0,0-1,1,1,1,0,0,0,.27.74,1,1,0,0,0,.73.27.88.88,0,0,0,1-1,.91.91,0,0,0-1-1Z" transform="translate(-2.58 -2.07)" style="fill:#c78d6b"/><path d="M203.34,52.66a.88.88,0,0,0-1,1,.93.93,0,0,0,1,1,.89.89,0,0,0,1-1,.94.94,0,0,0-.27-.72A1,1,0,0,0,203.34,52.66Z" transform="translate(-2.58 -2.07)" style="fill:#c78d6b"/><path d="M209.38,48.12a1.44,1.44,0,0,1-.29,1,1.36,1.36,0,0,1-1,.3h-3.17a1.1,1.1,0,0,1-.82-.25,1.2,1.2,0,0,1-.24-.84v-3.8l-1.91,1v2.8a1.2,1.2,0,0,1-.24.84,1.09,1.09,0,0,1-.82.25H178.6a1.12,1.12,0,0,1-.82-.25,1.16,1.16,0,0,1-.25-.84v-5l-1.89,1v.39a2.53,2.53,0,0,0-1-.21,2.65,2.65,0,0,0-1.9.79,3.24,3.24,0,0,0-1,2.43,3.29,3.29,0,0,0,.68,2.08,2.7,2.7,0,0,0,2.23,1,2.48,2.48,0,0,0,1.59-.5,2.66,2.66,0,0,0,2.18.94h22.66a2.8,2.8,0,0,0,1.84-.59,2.76,2.76,0,0,0,1.83.59h3.45a3,3,0,0,0,2.18-.8,3.13,3.13,0,0,0,.9-2.35V41.51l-1.9,1Zm-34.62,1.1a1,1,0,0,1-.84-.39,1.71,1.71,0,0,1-.3-1.06,1.75,1.75,0,0,1,.31-1.08,1,1,0,0,1,.81-.4,1.37,1.37,0,0,1,.9.33v1.83a3.78,3.78,0,0,0,0,.38A1.08,1.08,0,0,1,174.76,49.22Z" transform="translate(-2.58 -2.07)" style="fill:#c78d6b"/><path d="M216.58,44.3a2.76,2.76,0,0,0-2.12.85,3.63,3.63,0,0,0-.91,2.62,3.38,3.38,0,0,0,.68,2.12,2.71,2.71,0,0,0,2.23,1,5.23,5.23,0,0,0,1-.1c-.12,1.06-.67,1.6-1.65,1.6a3.31,3.31,0,0,1-1.64-.47v1.65a3.78,3.78,0,0,0,1.86.51,3.08,3.08,0,0,0,2.4-1,4,4,0,0,0,.94-2.82V47.1a2.83,2.83,0,0,0-.66-1.94A2.65,2.65,0,0,0,216.58,44.3Zm.86,4.71a1.13,1.13,0,0,1-.88.3c-.76,0-1.15-.53-1.15-1.6a2.09,2.09,0,0,1,.31-1.2,1,1,0,0,1,.86-.44c.57,0,.86.34.86,1Z" transform="translate(-2.58 -2.07)" style="fill:#c78d6b"/><path d="M232.24,48.12a1.49,1.49,0,0,1-.29,1,1.37,1.37,0,0,1-1,.3H228a1.28,1.28,0,0,1-1-.29,1.67,1.67,0,0,1-.34-1,4.62,4.62,0,0,0-2.55-3.74L223.21,46a2.8,2.8,0,0,1,1.61,2.56c0,.59-.26.89-.77.89h-2.4l-1,1.83h3.69a2,2,0,0,0,1.61-.62,2.91,2.91,0,0,0,1.89.62h3.17a3,3,0,0,0,2.18-.8,3.12,3.12,0,0,0,.89-2.35V41.51l-1.89,1Z" transform="translate(-2.58 -2.07)" style="fill:#c78d6b"/><polygon points="234.28 40.46 234.28 49.22 236.19 49.22 236.19 39.45 234.28 40.46" style="fill:#c78d6b"/><path d="M39.83,2.07A1.13,1.13,0,1,0,41,3.19,1.13,1.13,0,0,0,39.83,2.07Z" transform="translate(-2.58 -2.07)" style="fill:#fff"/><circle cx="59.84" cy="1.13" r="1.13" style="fill:#fff"/><path d="M53.38,2.07a1.13,1.13,0,1,0,1.13,1.12A1.13,1.13,0,0,0,53.38,2.07Z" transform="translate(-2.58 -2.07)" style="fill:#fff"/><path d="M71.45,2.07a1.13,1.13,0,1,0,1.13,1.12A1.13,1.13,0,0,0,71.45,2.07Z" transform="translate(-2.58 -2.07)" style="fill:#fff"/><path d="M66.93,2.07a1.13,1.13,0,1,0,1.13,1.12A1.13,1.13,0,0,0,66.93,2.07Z" transform="translate(-2.58 -2.07)" style="fill:#fff"/><circle cx="41.77" cy="5.64" r="1.13" style="fill:#fff"/><circle cx="32.74" cy="5.64" r="1.13" style="fill:#fff"/><circle cx="28.22" cy="5.64" r="1.13" style="fill:#fff"/><circle cx="59.84" cy="5.64" r="1.13" style="fill:#fff"/><path d="M57.9,6.58A1.13,1.13,0,1,0,59,7.71,1.12,1.12,0,0,0,57.9,6.58Z" transform="translate(-2.58 -2.07)" style="fill:#fff"/><circle cx="46.29" cy="5.64" r="1.13" style="fill:#fff"/><path d="M80.48,6.58a1.13,1.13,0,1,0,1.13,1.13A1.13,1.13,0,0,0,80.48,6.58Z" transform="translate(-2.58 -2.07)" style="fill:#fff"/><circle cx="73.39" cy="5.64" r="1.13" style="fill:#fff"/><path d="M71.45,6.58a1.13,1.13,0,1,0,1.13,1.13A1.13,1.13,0,0,0,71.45,6.58Z" transform="translate(-2.58 -2.07)" style="fill:#fff"/><path d="M66.93,6.58a1.13,1.13,0,1,0,1.13,1.13A1.13,1.13,0,0,0,66.93,6.58Z" transform="translate(-2.58 -2.07)" style="fill:#fff"/><path d="M98.55,6.58a1.13,1.13,0,1,0,1.13,1.13A1.13,1.13,0,0,0,98.55,6.58Z" transform="translate(-2.58 -2.07)" style="fill:#fff"/><path d="M112.1,8.83A1.13,1.13,0,1,0,111,7.71,1.13,1.13,0,0,0,112.1,8.83Z" transform="translate(-2.58 -2.07)" style="fill:#fff"/><circle cx="105.01" cy="5.64" r="1.13" style="fill:#fff"/><circle cx="100.49" cy="5.64" r="1.13" style="fill:#fff"/><circle cx="41.77" cy="10.15" r="1.13" style="fill:#fff"/><circle cx="32.74" cy="10.15" r="1.13" style="fill:#fff"/><circle cx="59.84" cy="10.15" r="1.13" style="fill:#fff"/><path d="M57.9,11.09A1.13,1.13,0,1,0,59,12.22,1.13,1.13,0,0,0,57.9,11.09Z" transform="translate(-2.58 -2.07)" style="fill:#fff"/><path d="M53.38,11.09a1.13,1.13,0,1,0,1.13,1.13A1.14,1.14,0,0,0,53.38,11.09Z" transform="translate(-2.58 -2.07)" style="fill:#fff"/><circle cx="46.29" cy="10.15" r="1.13" style="fill:#fff"/><path d="M80.48,11.09a1.13,1.13,0,1,0,1.13,1.13A1.14,1.14,0,0,0,80.48,11.09Z" transform="translate(-2.58 -2.07)" style="fill:#fff"/><circle cx="73.39" cy="10.15" r="1.13" style="fill:#fff"/><path d="M71.45,11.09a1.13,1.13,0,1,0,1.13,1.13A1.14,1.14,0,0,0,71.45,11.09Z" transform="translate(-2.58 -2.07)" style="fill:#fff"/><path d="M66.93,11.09a1.13,1.13,0,1,0,1.13,1.13A1.14,1.14,0,0,0,66.93,11.09Z" transform="translate(-2.58 -2.07)" style="fill:#fff"/><path d="M98.55,11.09a1.13,1.13,0,1,0,1.13,1.13A1.14,1.14,0,0,0,98.55,11.09Z" transform="translate(-2.58 -2.07)" style="fill:#fff"/><path d="M112.1,11.09a1.13,1.13,0,1,0,1.13,1.13A1.14,1.14,0,0,0,112.1,11.09Z" transform="translate(-2.58 -2.07)" style="fill:#fff"/><circle cx="105.01" cy="10.15" r="1.13" style="fill:#fff"/><circle cx="100.49" cy="10.15" r="1.13" style="fill:#fff"/><path d="M85,11.09a1.13,1.13,0,1,0,1.13,1.13A1.14,1.14,0,0,0,85,11.09Z" transform="translate(-2.58 -2.07)" style="fill:#fff"/><circle cx="41.77" cy="14.67" r="1.13" style="fill:#fff"/><path d="M39.83,15.61A1.13,1.13,0,1,0,41,16.73,1.13,1.13,0,0,0,39.83,15.61Z" transform="translate(-2.58 -2.07)" style="fill:#fff"/><circle cx="32.74" cy="14.67" r="1.13" style="fill:#fff"/><circle cx="28.22" cy="14.67" r="1.13" style="fill:#fff"/><circle cx="59.84" cy="14.67" r="1.13" style="fill:#fff"/><path d="M57.9,15.61A1.13,1.13,0,1,0,59,16.73,1.12,1.12,0,0,0,57.9,15.61Z" transform="translate(-2.58 -2.07)" style="fill:#fff"/><path d="M53.38,15.61a1.13,1.13,0,1,0,1.13,1.12A1.13,1.13,0,0,0,53.38,15.61Z" transform="translate(-2.58 -2.07)" style="fill:#fff"/><path d="M80.48,15.61a1.13,1.13,0,1,0,1.13,1.12A1.13,1.13,0,0,0,80.48,15.61Z" transform="translate(-2.58 -2.07)" style="fill:#fff"/><circle cx="73.39" cy="14.67" r="1.13" style="fill:#fff"/><path d="M71.45,15.61a1.13,1.13,0,1,0,1.13,1.12A1.13,1.13,0,0,0,71.45,15.61Z" transform="translate(-2.58 -2.07)" style="fill:#fff"/><path d="M66.93,15.61a1.13,1.13,0,1,0,1.13,1.12A1.13,1.13,0,0,0,66.93,15.61Z" transform="translate(-2.58 -2.07)" style="fill:#fff"/><path d="M98.55,15.61a1.13,1.13,0,1,0,1.13,1.12A1.13,1.13,0,0,0,98.55,15.61Z" transform="translate(-2.58 -2.07)" style="fill:#fff"/><circle cx="91.46" cy="14.67" r="1.13" style="fill:#fff"/><circle cx="86.94" cy="14.67" r="1.13" style="fill:#fff"/><circle cx="100.49" cy="14.67" r="1.13" style="fill:#fff"/><path d="M85,15.61a1.13,1.13,0,1,0,1.13,1.12A1.13,1.13,0,0,0,85,15.61Z" transform="translate(-2.58 -2.07)" style="fill:#fff"/><circle cx="41.77" cy="19.18" r="1.13" style="fill:#fff"/><path d="M39.83,20.12A1.13,1.13,0,1,0,41,21.25,1.14,1.14,0,0,0,39.83,20.12Z" transform="translate(-2.58 -2.07)" style="fill:#fff"/><circle cx="28.22" cy="19.18" r="1.13" style="fill:#fff"/><circle cx="59.84" cy="19.18" r="1.13" style="fill:#fff"/><path d="M57.9,20.12A1.13,1.13,0,1,0,59,21.25,1.13,1.13,0,0,0,57.9,20.12Z" transform="translate(-2.58 -2.07)" style="fill:#fff"/><path d="M53.38,20.12a1.13,1.13,0,1,0,1.13,1.13A1.14,1.14,0,0,0,53.38,20.12Z" transform="translate(-2.58 -2.07)" style="fill:#fff"/><circle cx="46.29" cy="19.18" r="1.13" style="fill:#fff"/><path d="M80.48,20.12a1.13,1.13,0,1,0,1.13,1.13A1.14,1.14,0,0,0,80.48,20.12Z" transform="translate(-2.58 -2.07)" style="fill:#fff"/><circle cx="73.39" cy="19.18" r="1.13" style="fill:#fff"/><path d="M71.45,20.12a1.13,1.13,0,1,0,1.13,1.13A1.14,1.14,0,0,0,71.45,20.12Z" transform="translate(-2.58 -2.07)" style="fill:#fff"/><path d="M66.93,20.12a1.13,1.13,0,1,0,1.13,1.13A1.14,1.14,0,0,0,66.93,20.12Z" transform="translate(-2.58 -2.07)" style="fill:#fff"/><path d="M98.55,20.12a1.13,1.13,0,1,0,1.13,1.13A1.14,1.14,0,0,0,98.55,20.12Z" transform="translate(-2.58 -2.07)" style="fill:#fff"/><circle cx="91.46" cy="19.18" r="1.13" style="fill:#fff"/><circle cx="86.94" cy="19.18" r="1.13" style="fill:#fff"/><circle cx="100.49" cy="19.18" r="1.13" style="fill:#fff"/><path d="M85,20.12a1.13,1.13,0,1,0,1.13,1.13A1.14,1.14,0,0,0,85,20.12Z" transform="translate(-2.58 -2.07)" style="fill:#fff"/><path d="M39.83,24.63A1.13,1.13,0,1,0,41,25.76,1.14,1.14,0,0,0,39.83,24.63Z" transform="translate(-2.58 -2.07)" style="fill:#fff"/><circle cx="32.74" cy="23.69" r="1.13" style="fill:#fff"/><circle cx="59.84" cy="23.69" r="1.13" style="fill:#fff"/><path d="M57.9,24.63A1.13,1.13,0,1,0,59,25.76,1.13,1.13,0,0,0,57.9,24.63Z" transform="translate(-2.58 -2.07)" style="fill:#fff"/><path d="M53.38,24.63a1.13,1.13,0,1,0,1.13,1.13A1.14,1.14,0,0,0,53.38,24.63Z" transform="translate(-2.58 -2.07)" style="fill:#fff"/><circle cx="46.29" cy="23.69" r="1.13" style="fill:#fff"/><path d="M80.48,24.63a1.13,1.13,0,1,0,1.13,1.13A1.14,1.14,0,0,0,80.48,24.63Z" transform="translate(-2.58 -2.07)" style="fill:#fff"/><circle cx="73.39" cy="23.69" r="1.13" style="fill:#fff"/><path d="M71.45,24.63a1.13,1.13,0,1,0,1.13,1.13A1.14,1.14,0,0,0,71.45,24.63Z" transform="translate(-2.58 -2.07)" style="fill:#fff"/><path d="M66.93,24.63a1.13,1.13,0,1,0,1.13,1.13A1.14,1.14,0,0,0,66.93,24.63Z" transform="translate(-2.58 -2.07)" style="fill:#fff"/><path d="M98.55,24.63a1.13,1.13,0,1,0,1.13,1.13A1.14,1.14,0,0,0,98.55,24.63Z" transform="translate(-2.58 -2.07)" style="fill:#fff"/><circle cx="91.46" cy="23.69" r="1.13" style="fill:#fff"/><circle cx="86.94" cy="23.69" r="1.13" style="fill:#fff"/><path d="M85,24.63a1.13,1.13,0,1,0,1.13,1.13A1.14,1.14,0,0,0,85,24.63Z" transform="translate(-2.58 -2.07)" style="fill:#fff"/><circle cx="41.77" cy="28.21" r="1.13" style="fill:#fff"/><path d="M39.83,29.15A1.13,1.13,0,1,0,41,30.27,1.13,1.13,0,0,0,39.83,29.15Z" transform="translate(-2.58 -2.07)" style="fill:#fff"/><circle cx="32.74" cy="28.21" r="1.13" style="fill:#fff"/><circle cx="10.15" cy="14.67" r="1.13" style="fill:#fff"/><path d="M8.21,20.12a1.13,1.13,0,1,0,1.13,1.13A1.13,1.13,0,0,0,8.21,20.12Z" transform="translate(-2.58 -2.07)" style="fill:#fff"/><circle cx="10.15" cy="23.69" r="1.13" style="fill:#fff"/><circle cx="10.15" cy="28.21" r="1.13" style="fill:#fff"/><circle cx="59.84" cy="28.21" r="1.13" style="fill:#fff"/><path d="M57.9,29.15A1.13,1.13,0,1,0,59,30.27,1.12,1.12,0,0,0,57.9,29.15Z" transform="translate(-2.58 -2.07)" style="fill:#fff"/><path d="M53.38,29.15a1.13,1.13,0,1,0,1.13,1.12A1.13,1.13,0,0,0,53.38,29.15Z" transform="translate(-2.58 -2.07)" style="fill:#fff"/><circle cx="46.29" cy="28.21" r="1.13" style="fill:#fff"/><path d="M80.48,29.15a1.13,1.13,0,1,0,1.13,1.12A1.13,1.13,0,0,0,80.48,29.15Z" transform="translate(-2.58 -2.07)" style="fill:#fff"/><circle cx="73.39" cy="28.21" r="1.13" style="fill:#fff"/><path d="M71.45,29.15a1.13,1.13,0,1,0,1.13,1.12A1.13,1.13,0,0,0,71.45,29.15Z" transform="translate(-2.58 -2.07)" style="fill:#fff"/><path d="M66.93,29.15a1.13,1.13,0,1,0,1.13,1.12A1.13,1.13,0,0,0,66.93,29.15Z" transform="translate(-2.58 -2.07)" style="fill:#fff"/><circle cx="86.94" cy="28.21" r="1.13" style="fill:#fff"/><path d="M85,29.15a1.13,1.13,0,1,0,1.13,1.12A1.13,1.13,0,0,0,85,29.15Z" transform="translate(-2.58 -2.07)" style="fill:#fff"/><path d="M39.83,33.66A1.13,1.13,0,1,0,41,34.79,1.14,1.14,0,0,0,39.83,33.66Z" transform="translate(-2.58 -2.07)" style="fill:#fff"/><circle cx="28.22" cy="32.72" r="1.13" style="fill:#fff"/><circle cx="59.84" cy="32.72" r="1.13" style="fill:#fff"/><path d="M57.9,33.66A1.13,1.13,0,1,0,59,34.79,1.13,1.13,0,0,0,57.9,33.66Z" transform="translate(-2.58 -2.07)" style="fill:#fff"/><path d="M53.38,33.66a1.13,1.13,0,1,0,1.13,1.13A1.14,1.14,0,0,0,53.38,33.66Z" transform="translate(-2.58 -2.07)" style="fill:#fff"/><circle cx="46.29" cy="32.72" r="1.13" style="fill:#fff"/><circle cx="41.77" cy="32.72" r="1.13" style="fill:#fff"/><path d="M80.48,33.66a1.13,1.13,0,1,0,1.13,1.13A1.14,1.14,0,0,0,80.48,33.66Z" transform="translate(-2.58 -2.07)" style="fill:#fff"/><circle cx="73.39" cy="32.72" r="1.13" style="fill:#fff"/><circle cx="91.46" cy="32.72" r="1.13" style="fill:#fff"/><circle cx="86.94" cy="32.72" r="1.13" style="fill:#fff"/><path d="M85,33.66a1.13,1.13,0,1,0,1.13,1.13A1.14,1.14,0,0,0,85,33.66Z" transform="translate(-2.58 -2.07)" style="fill:#fff"/><circle cx="41.77" cy="37.24" r="1.13" style="fill:#fff"/><circle cx="32.74" cy="37.24" r="1.13" style="fill:#fff"/><circle cx="28.22" cy="37.24" r="1.13" style="fill:#fff"/><circle cx="59.84" cy="37.24" r="1.13" style="fill:#fff"/><path d="M57.9,38.17A1.13,1.13,0,1,0,59,39.3,1.13,1.13,0,0,0,57.9,38.17Z" transform="translate(-2.58 -2.07)" style="fill:#fff"/><circle cx="46.29" cy="37.24" r="1.13" style="fill:#fff"/><path d="M80.48,38.17a1.13,1.13,0,1,0,1.13,1.13A1.14,1.14,0,0,0,80.48,38.17Z" transform="translate(-2.58 -2.07)" style="fill:#fff"/><circle cx="73.39" cy="37.24" r="1.13" style="fill:#fff"/><circle cx="91.46" cy="37.24" r="1.13" style="fill:#fff"/><circle cx="86.94" cy="37.24" r="1.13" style="fill:#fff"/><circle cx="41.77" cy="41.75" r="1.13" style="fill:#fff"/><path d="M39.83,42.69A1.13,1.13,0,1,0,41,43.82,1.13,1.13,0,0,0,39.83,42.69Z" transform="translate(-2.58 -2.07)" style="fill:#fff"/><circle cx="28.22" cy="41.75" r="1.13" style="fill:#fff"/><circle cx="59.84" cy="41.75" r="1.13" style="fill:#fff"/><path d="M57.9,42.69A1.13,1.13,0,1,0,59,43.82,1.12,1.12,0,0,0,57.9,42.69Z" transform="translate(-2.58 -2.07)" style="fill:#fff"/><circle cx="46.29" cy="41.75" r="1.13" style="fill:#fff"/><path d="M80.48,42.69a1.13,1.13,0,1,0,1.13,1.13A1.13,1.13,0,0,0,80.48,42.69Z" transform="translate(-2.58 -2.07)" style="fill:#fff"/><circle cx="73.39" cy="41.75" r="1.13" style="fill:#fff"/><circle cx="91.46" cy="41.75" r="1.13" style="fill:#fff"/><circle cx="86.94" cy="41.75" r="1.13" style="fill:#fff"/><circle cx="41.77" cy="46.26" r="1.13" style="fill:#fff"/><circle cx="32.74" cy="46.26" r="1.13" style="fill:#fff"/><path d="M57.9,47.2A1.13,1.13,0,1,0,59,48.33,1.13,1.13,0,0,0,57.9,47.2Z" transform="translate(-2.58 -2.07)" style="fill:#fff"/><circle cx="46.29" cy="46.26" r="1.13" style="fill:#fff"/><path d="M80.48,47.2a1.13,1.13,0,1,0,1.13,1.13A1.14,1.14,0,0,0,80.48,47.2Z" transform="translate(-2.58 -2.07)" style="fill:#fff"/><circle cx="73.39" cy="46.26" r="1.13" style="fill:#fff"/><circle cx="59.84" cy="46.26" r="1.13" style="fill:#fff"/><circle cx="91.46" cy="46.26" r="1.13" style="fill:#fff"/><circle cx="86.94" cy="46.26" r="1.13" style="fill:#fff"/><circle cx="41.77" cy="50.78" r="1.13" style="fill:#fff"/><circle cx="32.74" cy="50.78" r="1.13" style="fill:#fff"/><path d="M26.28,2.07a1.13,1.13,0,1,0,1.13,1.12A1.13,1.13,0,0,0,26.28,2.07Z" transform="translate(-2.58 -2.07)" style="fill:#fff"/><circle cx="14.67" cy="1.13" r="1.13" style="fill:#fff"/><path d="M21.76,6.58a1.13,1.13,0,1,0,1.13,1.13A1.12,1.12,0,0,0,21.76,6.58Z" transform="translate(-2.58 -2.07)" style="fill:#fff"/><path d="M8.21,6.58A1.13,1.13,0,1,0,9.34,7.71,1.12,1.12,0,0,0,8.21,6.58Z" transform="translate(-2.58 -2.07)" style="fill:#fff"/><circle cx="14.67" cy="5.64" r="1.13" style="fill:#fff"/><path d="M26.28,11.09a1.13,1.13,0,1,0,1.13,1.13A1.14,1.14,0,0,0,26.28,11.09Z" transform="translate(-2.58 -2.07)" style="fill:#fff"/><path d="M21.76,15.61a1.13,1.13,0,1,0,1.13,1.12A1.12,1.12,0,0,0,21.76,15.61Z" transform="translate(-2.58 -2.07)" style="fill:#fff"/><path d="M26.28,20.12a1.13,1.13,0,1,0,1.13,1.13A1.14,1.14,0,0,0,26.28,20.12Z" transform="translate(-2.58 -2.07)" style="fill:#fff"/><circle cx="14.67" cy="19.18" r="1.13" style="fill:#fff"/><path d="M26.28,24.63a1.13,1.13,0,1,0,1.13,1.13A1.14,1.14,0,0,0,26.28,24.63Z" transform="translate(-2.58 -2.07)" style="fill:#fff"/><path d="M21.76,24.63a1.13,1.13,0,1,0,1.13,1.13A1.13,1.13,0,0,0,21.76,24.63Z" transform="translate(-2.58 -2.07)" style="fill:#fff"/><path d="M26.28,29.15a1.13,1.13,0,1,0,1.13,1.12A1.13,1.13,0,0,0,26.28,29.15Z" transform="translate(-2.58 -2.07)" style="fill:#fff"/><circle cx="14.67" cy="28.21" r="1.13" style="fill:#fff"/><path d="M21.76,33.66a1.13,1.13,0,1,0,1.13,1.13A1.13,1.13,0,0,0,21.76,33.66Z" transform="translate(-2.58 -2.07)" style="fill:#fff"/><path d="M21.76,38.17a1.13,1.13,0,1,0,1.13,1.13A1.13,1.13,0,0,0,21.76,38.17Z" transform="translate(-2.58 -2.07)" style="fill:#fff"/><circle cx="10.15" cy="37.24" r="1.13" style="fill:#fff"/><path d="M3.7,38.17A1.13,1.13,0,1,0,4.83,39.3,1.13,1.13,0,0,0,3.7,38.17Z" transform="translate(-2.58 -2.07)" style="fill:#fff"/><path d="M26.28,42.69a1.13,1.13,0,1,0,1.13,1.13A1.13,1.13,0,0,0,26.28,42.69Z" transform="translate(-2.58 -2.07)" style="fill:#fff"/><circle cx="14.67" cy="41.75" r="1.13" style="fill:#fff"/><path d="M26.28,47.2a1.13,1.13,0,1,0,1.13,1.13A1.14,1.14,0,0,0,26.28,47.2Z" transform="translate(-2.58 -2.07)" style="fill:#fff"/><path d="M21.76,47.2a1.13,1.13,0,1,0,1.13,1.13A1.13,1.13,0,0,0,21.76,47.2Z" transform="translate(-2.58 -2.07)" style="fill:#fff"/><path d="M8.21,47.2a1.13,1.13,0,1,0,1.13,1.13A1.13,1.13,0,0,0,8.21,47.2Z" transform="translate(-2.58 -2.07)" style="fill:#fff"/><path d="M26.28,51.72a1.13,1.13,0,1,0,1.13,1.12A1.13,1.13,0,0,0,26.28,51.72Z" transform="translate(-2.58 -2.07)" style="fill:#fff"/><circle cx="14.67" cy="50.78" r="1.13" style="fill:#fff"/><circle cx="46.29" cy="50.78" r="1.13" style="fill:#fff"/><path d="M80.48,51.72a1.13,1.13,0,1,0,1.13,1.12A1.13,1.13,0,0,0,80.48,51.72Z" transform="translate(-2.58 -2.07)" style="fill:#fff"/><circle cx="73.39" cy="50.78" r="1.13" style="fill:#fff"/><path d="M66.93,51.72a1.13,1.13,0,1,0,1.13,1.12A1.13,1.13,0,0,0,66.93,51.72Z" transform="translate(-2.58 -2.07)" style="fill:#fff"/><circle cx="59.84" cy="50.78" r="1.13" style="fill:#fff"/><circle cx="86.94" cy="50.78" r="1.13" style="fill:#fff"/></svg>