<svg xmlns="http://www.w3.org/2000/svg" viewBox="0 0 139.45 65.41"><title>2</title><path d="M50.37,1.12A1.42,1.42,0,1,0,51.8,2.54,1.43,1.43,0,0,0,50.37,1.12Z" transform="translate(-3.42 -1.12)" style="fill:#c78d6b"/><path d="M78.84,1.12a1.42,1.42,0,1,0,1.42,1.42A1.42,1.42,0,0,0,78.84,1.12Z" transform="translate(-3.42 -1.12)" style="fill:#c78d6b"/><path d="M67.45,1.12a1.42,1.42,0,1,0,1.42,1.42A1.43,1.43,0,0,0,67.45,1.12Z" transform="translate(-3.42 -1.12)" style="fill:#c78d6b"/><path d="M90.22,1.12a1.42,1.42,0,1,0,1.42,1.42A1.43,1.43,0,0,0,90.22,1.12Z" transform="translate(-3.42 -1.12)" style="fill:#c78d6b"/><path d="M84.53,1.12A1.42,1.42,0,1,0,86,2.54,1.43,1.43,0,0,0,84.53,1.12Z" transform="translate(-3.42 -1.12)" style="fill:#c78d6b"/><path d="M56.07,6.81a1.42,1.42,0,1,0,1.42,1.42A1.41,1.41,0,0,0,56.07,6.81Z" transform="translate(-3.42 -1.12)" style="fill:#c78d6b"/><circle cx="41.26" cy="7.11" r="1.42" style="fill:#c78d6b"/><path d="M39,6.81a1.42,1.42,0,1,0,1.42,1.42A1.41,1.41,0,0,0,39,6.81Z" transform="translate(-3.42 -1.12)" style="fill:#c78d6b"/><circle cx="75.41" cy="7.11" r="1.42" style="fill:#c78d6b"/><path d="M73.14,6.81a1.42,1.42,0,1,0,1.43,1.42A1.42,1.42,0,0,0,73.14,6.81Z" transform="translate(-3.42 -1.12)" style="fill:#c78d6b"/><circle cx="58.34" cy="7.11" r="1.42" style="fill:#c78d6b"/><circle cx="98.18" cy="7.11" r="1.42" style="fill:#c78d6b"/><circle cx="92.49" cy="7.11" r="1.42" style="fill:#c78d6b"/><path d="M90.22,6.81a1.42,1.42,0,1,0,1.42,1.42A1.42,1.42,0,0,0,90.22,6.81Z" transform="translate(-3.42 -1.12)" style="fill:#c78d6b"/><circle cx="81.11" cy="7.11" r="1.42" style="fill:#c78d6b"/><circle cx="120.96" cy="7.11" r="1.42" style="fill:#c78d6b"/><circle cx="138.03" cy="7.11" r="1.42" style="fill:#c78d6b"/><circle cx="132.34" cy="7.11" r="1.42" style="fill:#c78d6b"/><path d="M130.07,6.81a1.42,1.42,0,1,0,1.42,1.42A1.42,1.42,0,0,0,130.07,6.81Z" transform="translate(-3.42 -1.12)" style="fill:#c78d6b"/><path d="M56.07,12.5a1.42,1.42,0,1,0,1.42,1.42A1.41,1.41,0,0,0,56.07,12.5Z" transform="translate(-3.42 -1.12)" style="fill:#c78d6b"/><path d="M44.68,12.5a1.42,1.42,0,1,0,1.42,1.42A1.42,1.42,0,0,0,44.68,12.5Z" transform="translate(-3.42 -1.12)" style="fill:#c78d6b"/><path d="M78.84,12.5a1.42,1.42,0,1,0,1.42,1.42A1.41,1.41,0,0,0,78.84,12.5Z" transform="translate(-3.42 -1.12)" style="fill:#c78d6b"/><path d="M73.14,12.5a1.42,1.42,0,1,0,1.43,1.42A1.42,1.42,0,0,0,73.14,12.5Z" transform="translate(-3.42 -1.12)" style="fill:#c78d6b"/><path d="M67.45,12.5a1.42,1.42,0,1,0,1.42,1.42A1.42,1.42,0,0,0,67.45,12.5Z" transform="translate(-3.42 -1.12)" style="fill:#c78d6b"/><path d="M61.76,12.5a1.42,1.42,0,1,0,1.42,1.42A1.41,1.41,0,0,0,61.76,12.5Z" transform="translate(-3.42 -1.12)" style="fill:#c78d6b"/><path d="M101.61,12.5A1.42,1.42,0,1,0,103,13.92,1.41,1.41,0,0,0,101.61,12.5Z" transform="translate(-3.42 -1.12)" style="fill:#c78d6b"/><path d="M95.92,12.5a1.42,1.42,0,1,0,1.42,1.42A1.42,1.42,0,0,0,95.92,12.5Z" transform="translate(-3.42 -1.12)" style="fill:#c78d6b"/><path d="M90.22,12.5a1.42,1.42,0,1,0,1.42,1.42A1.42,1.42,0,0,0,90.22,12.5Z" transform="translate(-3.42 -1.12)" style="fill:#c78d6b"/><path d="M84.53,12.5A1.42,1.42,0,1,0,86,13.92,1.42,1.42,0,0,0,84.53,12.5Z" transform="translate(-3.42 -1.12)" style="fill:#c78d6b"/><path d="M124.38,12.5a1.42,1.42,0,1,0,1.42,1.42A1.41,1.41,0,0,0,124.38,12.5Z" transform="translate(-3.42 -1.12)" style="fill:#c78d6b"/><path d="M141.46,12.5a1.42,1.42,0,1,0,1.42,1.42A1.41,1.41,0,0,0,141.46,12.5Z" transform="translate(-3.42 -1.12)" style="fill:#c78d6b"/><path d="M135.76,12.5a1.42,1.42,0,1,0,1.42,1.42A1.42,1.42,0,0,0,135.76,12.5Z" transform="translate(-3.42 -1.12)" style="fill:#c78d6b"/><path d="M130.07,12.5a1.42,1.42,0,1,0,1.42,1.42A1.42,1.42,0,0,0,130.07,12.5Z" transform="translate(-3.42 -1.12)" style="fill:#c78d6b"/><path d="M107.3,12.5a1.42,1.42,0,1,0,1.42,1.42A1.42,1.42,0,0,0,107.3,12.5Z" transform="translate(-3.42 -1.12)" style="fill:#c78d6b"/><path d="M56.07,18.19a1.42,1.42,0,1,0,1.42,1.42A1.41,1.41,0,0,0,56.07,18.19Z" transform="translate(-3.42 -1.12)" style="fill:#c78d6b"/><path d="M50.37,18.19a1.42,1.42,0,1,0,1.43,1.42A1.42,1.42,0,0,0,50.37,18.19Z" transform="translate(-3.42 -1.12)" style="fill:#c78d6b"/><circle cx="41.26" cy="18.49" r="1.42" style="fill:#c78d6b"/><path d="M39,18.19a1.42,1.42,0,1,0,1.42,1.42A1.41,1.41,0,0,0,39,18.19Z" transform="translate(-3.42 -1.12)" style="fill:#c78d6b"/><circle cx="75.41" cy="18.49" r="1.42" style="fill:#c78d6b"/><path d="M73.14,18.19a1.42,1.42,0,1,0,1.43,1.42A1.42,1.42,0,0,0,73.14,18.19Z" transform="translate(-3.42 -1.12)" style="fill:#c78d6b"/><path d="M67.45,18.19a1.42,1.42,0,1,0,1.42,1.42A1.42,1.42,0,0,0,67.45,18.19Z" transform="translate(-3.42 -1.12)" style="fill:#c78d6b"/><circle cx="98.18" cy="18.49" r="1.42" style="fill:#c78d6b"/><circle cx="92.49" cy="18.49" r="1.42" style="fill:#c78d6b"/><path d="M90.22,18.19a1.42,1.42,0,1,0,1.42,1.42A1.42,1.42,0,0,0,90.22,18.19Z" transform="translate(-3.42 -1.12)" style="fill:#c78d6b"/><circle cx="81.11" cy="18.49" r="1.42" style="fill:#c78d6b"/><circle cx="120.96" cy="18.49" r="1.42" style="fill:#c78d6b"/><circle cx="115.26" cy="18.49" r="1.42" style="fill:#c78d6b"/><path d="M113,18.19a1.42,1.42,0,1,0,1.42,1.42A1.42,1.42,0,0,0,113,18.19Z" transform="translate(-3.42 -1.12)" style="fill:#c78d6b"/><path d="M130.07,18.19a1.42,1.42,0,1,0,1.42,1.42A1.42,1.42,0,0,0,130.07,18.19Z" transform="translate(-3.42 -1.12)" style="fill:#c78d6b"/><path d="M107.3,18.19a1.42,1.42,0,1,0,1.42,1.42A1.42,1.42,0,0,0,107.3,18.19Z" transform="translate(-3.42 -1.12)" style="fill:#c78d6b"/><path d="M56.07,23.87a1.42,1.42,0,1,0,1.42,1.42A1.42,1.42,0,0,0,56.07,23.87Z" transform="translate(-3.42 -1.12)" style="fill:#c78d6b"/><path d="M50.37,23.87a1.42,1.42,0,1,0,1.43,1.42A1.43,1.43,0,0,0,50.37,23.87Z" transform="translate(-3.42 -1.12)" style="fill:#c78d6b"/><path d="M39,23.87a1.42,1.42,0,1,0,1.42,1.42A1.42,1.42,0,0,0,39,23.87Z" transform="translate(-3.42 -1.12)" style="fill:#c78d6b"/><path d="M78.84,23.87a1.42,1.42,0,1,0,1.42,1.42A1.42,1.42,0,0,0,78.84,23.87Z" transform="translate(-3.42 -1.12)" style="fill:#c78d6b"/><path d="M73.14,23.87a1.42,1.42,0,1,0,1.43,1.42A1.43,1.43,0,0,0,73.14,23.87Z" transform="translate(-3.42 -1.12)" style="fill:#c78d6b"/><path d="M67.45,23.87a1.42,1.42,0,1,0,1.42,1.42A1.43,1.43,0,0,0,67.45,23.87Z" transform="translate(-3.42 -1.12)" style="fill:#c78d6b"/><path d="M61.76,23.87a1.42,1.42,0,1,0,1.42,1.42A1.42,1.42,0,0,0,61.76,23.87Z" transform="translate(-3.42 -1.12)" style="fill:#c78d6b"/><path d="M101.61,23.87A1.42,1.42,0,1,0,103,25.29,1.42,1.42,0,0,0,101.61,23.87Z" transform="translate(-3.42 -1.12)" style="fill:#c78d6b"/><path d="M95.92,23.87a1.42,1.42,0,1,0,1.42,1.42A1.43,1.43,0,0,0,95.92,23.87Z" transform="translate(-3.42 -1.12)" style="fill:#c78d6b"/><path d="M90.22,23.87a1.42,1.42,0,1,0,1.42,1.42A1.43,1.43,0,0,0,90.22,23.87Z" transform="translate(-3.42 -1.12)" style="fill:#c78d6b"/><path d="M84.53,23.87A1.42,1.42,0,1,0,86,25.29,1.43,1.43,0,0,0,84.53,23.87Z" transform="translate(-3.42 -1.12)" style="fill:#c78d6b"/><path d="M124.38,23.87a1.42,1.42,0,1,0,1.42,1.42A1.42,1.42,0,0,0,124.38,23.87Z" transform="translate(-3.42 -1.12)" style="fill:#c78d6b"/><path d="M118.69,23.87a1.42,1.42,0,1,0,1.42,1.42A1.42,1.42,0,0,0,118.69,23.87Z" transform="translate(-3.42 -1.12)" style="fill:#c78d6b"/><path d="M113,23.87a1.42,1.42,0,1,0,1.42,1.42A1.43,1.43,0,0,0,113,23.87Z" transform="translate(-3.42 -1.12)" style="fill:#c78d6b"/><path d="M130.07,23.87a1.42,1.42,0,1,0,1.42,1.42A1.43,1.43,0,0,0,130.07,23.87Z" transform="translate(-3.42 -1.12)" style="fill:#c78d6b"/><path d="M107.3,23.87a1.42,1.42,0,1,0,1.42,1.42A1.43,1.43,0,0,0,107.3,23.87Z" transform="translate(-3.42 -1.12)" style="fill:#c78d6b"/><path d="M50.37,29.56A1.42,1.42,0,1,0,51.8,31,1.43,1.43,0,0,0,50.37,29.56Z" transform="translate(-3.42 -1.12)" style="fill:#c78d6b"/><circle cx="41.26" cy="29.86" r="1.42" style="fill:#c78d6b"/><circle cx="75.41" cy="29.86" r="1.42" style="fill:#c78d6b"/><path d="M73.14,29.56A1.42,1.42,0,1,0,74.57,31,1.43,1.43,0,0,0,73.14,29.56Z" transform="translate(-3.42 -1.12)" style="fill:#c78d6b"/><path d="M67.45,29.56A1.42,1.42,0,1,0,68.87,31,1.43,1.43,0,0,0,67.45,29.56Z" transform="translate(-3.42 -1.12)" style="fill:#c78d6b"/><circle cx="58.34" cy="29.86" r="1.42" style="fill:#c78d6b"/><circle cx="98.18" cy="29.86" r="1.42" style="fill:#c78d6b"/><circle cx="92.49" cy="29.86" r="1.42" style="fill:#c78d6b"/><path d="M90.22,29.56A1.42,1.42,0,1,0,91.64,31,1.43,1.43,0,0,0,90.22,29.56Z" transform="translate(-3.42 -1.12)" style="fill:#c78d6b"/><circle cx="81.11" cy="29.86" r="1.42" style="fill:#c78d6b"/><circle cx="120.96" cy="29.86" r="1.42" style="fill:#c78d6b"/><circle cx="115.26" cy="29.86" r="1.42" style="fill:#c78d6b"/><path d="M113,29.56A1.42,1.42,0,1,0,114.41,31,1.43,1.43,0,0,0,113,29.56Z" transform="translate(-3.42 -1.12)" style="fill:#c78d6b"/><path d="M107.3,29.56A1.42,1.42,0,1,0,108.72,31,1.43,1.43,0,0,0,107.3,29.56Z" transform="translate(-3.42 -1.12)" style="fill:#c78d6b"/><path d="M56.07,35.25a1.42,1.42,0,1,0,1.42,1.42A1.42,1.42,0,0,0,56.07,35.25Z" transform="translate(-3.42 -1.12)" style="fill:#c78d6b"/><path d="M50.37,35.25a1.42,1.42,0,1,0,1.43,1.42A1.43,1.43,0,0,0,50.37,35.25Z" transform="translate(-3.42 -1.12)" style="fill:#c78d6b"/><path d="M44.68,35.25a1.42,1.42,0,1,0,1.42,1.42A1.43,1.43,0,0,0,44.68,35.25Z" transform="translate(-3.42 -1.12)" style="fill:#c78d6b"/><path d="M16.22,18.19a1.42,1.42,0,1,0,1.42,1.42A1.41,1.41,0,0,0,16.22,18.19Z" transform="translate(-3.42 -1.12)" style="fill:#c78d6b"/><path d="M10.53,23.87A1.42,1.42,0,1,0,12,25.29,1.42,1.42,0,0,0,10.53,23.87Z" transform="translate(-3.42 -1.12)" style="fill:#c78d6b"/><path d="M16.22,29.56A1.42,1.42,0,1,0,17.64,31,1.42,1.42,0,0,0,16.22,29.56Z" transform="translate(-3.42 -1.12)" style="fill:#c78d6b"/><path d="M16.22,35.25a1.42,1.42,0,1,0,1.42,1.42A1.42,1.42,0,0,0,16.22,35.25Z" transform="translate(-3.42 -1.12)" style="fill:#c78d6b"/><path d="M78.84,35.25a1.42,1.42,0,1,0,1.42,1.42A1.42,1.42,0,0,0,78.84,35.25Z" transform="translate(-3.42 -1.12)" style="fill:#c78d6b"/><path d="M73.14,35.25a1.42,1.42,0,1,0,1.43,1.42A1.43,1.43,0,0,0,73.14,35.25Z" transform="translate(-3.42 -1.12)" style="fill:#c78d6b"/><path d="M67.45,35.25a1.42,1.42,0,1,0,1.42,1.42A1.43,1.43,0,0,0,67.45,35.25Z" transform="translate(-3.42 -1.12)" style="fill:#c78d6b"/><path d="M61.76,35.25a1.42,1.42,0,1,0,1.42,1.42A1.42,1.42,0,0,0,61.76,35.25Z" transform="translate(-3.42 -1.12)" style="fill:#c78d6b"/><path d="M101.61,35.25A1.42,1.42,0,1,0,103,36.67,1.42,1.42,0,0,0,101.61,35.25Z" transform="translate(-3.42 -1.12)" style="fill:#c78d6b"/><path d="M95.92,35.25a1.42,1.42,0,1,0,1.42,1.42A1.43,1.43,0,0,0,95.92,35.25Z" transform="translate(-3.42 -1.12)" style="fill:#c78d6b"/><path d="M90.22,35.25a1.42,1.42,0,1,0,1.42,1.42A1.43,1.43,0,0,0,90.22,35.25Z" transform="translate(-3.42 -1.12)" style="fill:#c78d6b"/><path d="M84.53,35.25A1.42,1.42,0,1,0,86,36.67,1.43,1.43,0,0,0,84.53,35.25Z" transform="translate(-3.42 -1.12)" style="fill:#c78d6b"/><path d="M113,35.25a1.42,1.42,0,1,0,1.42,1.42A1.43,1.43,0,0,0,113,35.25Z" transform="translate(-3.42 -1.12)" style="fill:#c78d6b"/><path d="M107.3,35.25a1.42,1.42,0,1,0,1.42,1.42A1.43,1.43,0,0,0,107.3,35.25Z" transform="translate(-3.42 -1.12)" style="fill:#c78d6b"/><path d="M50.37,40.94a1.42,1.42,0,1,0,1.43,1.42A1.42,1.42,0,0,0,50.37,40.94Z" transform="translate(-3.42 -1.12)" style="fill:#c78d6b"/><path d="M39,40.94a1.42,1.42,0,1,0,1.42,1.42A1.41,1.41,0,0,0,39,40.94Z" transform="translate(-3.42 -1.12)" style="fill:#c78d6b"/><circle cx="75.41" cy="41.24" r="1.42" style="fill:#c78d6b"/><path d="M73.14,40.94a1.42,1.42,0,1,0,1.43,1.42A1.42,1.42,0,0,0,73.14,40.94Z" transform="translate(-3.42 -1.12)" style="fill:#c78d6b"/><path d="M67.45,40.94a1.42,1.42,0,1,0,1.42,1.42A1.42,1.42,0,0,0,67.45,40.94Z" transform="translate(-3.42 -1.12)" style="fill:#c78d6b"/><circle cx="58.34" cy="41.24" r="1.42" style="fill:#c78d6b"/><path d="M56.07,40.94a1.42,1.42,0,1,0,1.42,1.42A1.41,1.41,0,0,0,56.07,40.94Z" transform="translate(-3.42 -1.12)" style="fill:#c78d6b"/><circle cx="98.18" cy="41.24" r="1.42" style="fill:#c78d6b"/><circle cx="92.49" cy="41.24" r="1.42" style="fill:#c78d6b"/><circle cx="115.26" cy="41.24" r="1.42" style="fill:#c78d6b"/><path d="M113,40.94a1.42,1.42,0,1,0,1.42,1.42A1.42,1.42,0,0,0,113,40.94Z" transform="translate(-3.42 -1.12)" style="fill:#c78d6b"/><path d="M107.3,40.94a1.42,1.42,0,1,0,1.42,1.42A1.42,1.42,0,0,0,107.3,40.94Z" transform="translate(-3.42 -1.12)" style="fill:#c78d6b"/><path d="M56.07,46.63a1.42,1.42,0,1,0,1.42,1.42A1.41,1.41,0,0,0,56.07,46.63Z" transform="translate(-3.42 -1.12)" style="fill:#c78d6b"/><path d="M44.68,46.63a1.42,1.42,0,1,0,1.42,1.42A1.42,1.42,0,0,0,44.68,46.63Z" transform="translate(-3.42 -1.12)" style="fill:#c78d6b"/><path d="M39,46.63a1.42,1.42,0,1,0,1.42,1.42A1.41,1.41,0,0,0,39,46.63Z" transform="translate(-3.42 -1.12)" style="fill:#c78d6b"/><path d="M78.84,46.63a1.42,1.42,0,1,0,1.42,1.42A1.41,1.41,0,0,0,78.84,46.63Z" transform="translate(-3.42 -1.12)" style="fill:#c78d6b"/><path d="M73.14,46.63a1.42,1.42,0,1,0,1.43,1.42A1.42,1.42,0,0,0,73.14,46.63Z" transform="translate(-3.42 -1.12)" style="fill:#c78d6b"/><path d="M61.76,46.63a1.42,1.42,0,1,0,1.42,1.42A1.41,1.41,0,0,0,61.76,46.63Z" transform="translate(-3.42 -1.12)" style="fill:#c78d6b"/><path d="M101.61,46.63A1.42,1.42,0,1,0,103,48.05,1.41,1.41,0,0,0,101.61,46.63Z" transform="translate(-3.42 -1.12)" style="fill:#c78d6b"/><path d="M95.92,46.63a1.42,1.42,0,1,0,1.42,1.42A1.42,1.42,0,0,0,95.92,46.63Z" transform="translate(-3.42 -1.12)" style="fill:#c78d6b"/><path d="M118.69,46.63a1.42,1.42,0,1,0,1.42,1.42A1.41,1.41,0,0,0,118.69,46.63Z" transform="translate(-3.42 -1.12)" style="fill:#c78d6b"/><path d="M113,46.63a1.42,1.42,0,1,0,1.42,1.42A1.42,1.42,0,0,0,113,46.63Z" transform="translate(-3.42 -1.12)" style="fill:#c78d6b"/><path d="M56.07,52.32a1.42,1.42,0,1,0,1.42,1.42A1.41,1.41,0,0,0,56.07,52.32Z" transform="translate(-3.42 -1.12)" style="fill:#c78d6b"/><path d="M50.37,52.32a1.42,1.42,0,1,0,1.43,1.42A1.42,1.42,0,0,0,50.37,52.32Z" transform="translate(-3.42 -1.12)" style="fill:#c78d6b"/><path d="M39,52.32a1.42,1.42,0,1,0,1.42,1.42A1.41,1.41,0,0,0,39,52.32Z" transform="translate(-3.42 -1.12)" style="fill:#c78d6b"/><circle cx="75.41" cy="52.62" r="1.42" style="fill:#c78d6b"/><path d="M73.14,52.32a1.42,1.42,0,1,0,1.43,1.42A1.42,1.42,0,0,0,73.14,52.32Z" transform="translate(-3.42 -1.12)" style="fill:#c78d6b"/><circle cx="58.34" cy="52.62" r="1.42" style="fill:#c78d6b"/><circle cx="98.18" cy="52.62" r="1.42" style="fill:#c78d6b"/><circle cx="92.49" cy="52.62" r="1.42" style="fill:#c78d6b"/><circle cx="115.26" cy="52.62" r="1.42" style="fill:#c78d6b"/><path d="M113,52.32a1.42,1.42,0,1,0,1.42,1.42A1.42,1.42,0,0,0,113,52.32Z" transform="translate(-3.42 -1.12)" style="fill:#c78d6b"/><path d="M56.07,58a1.43,1.43,0,1,0,1.42,1.42A1.42,1.42,0,0,0,56.07,58Z" transform="translate(-3.42 -1.12)" style="fill:#c78d6b"/><path d="M44.68,58a1.43,1.43,0,1,0,1.42,1.42A1.43,1.43,0,0,0,44.68,58Z" transform="translate(-3.42 -1.12)" style="fill:#c78d6b"/><path d="M73.14,58a1.43,1.43,0,1,0,1.43,1.42A1.43,1.43,0,0,0,73.14,58Z" transform="translate(-3.42 -1.12)" style="fill:#c78d6b"/><path d="M61.76,58a1.43,1.43,0,1,0,1.42,1.42A1.42,1.42,0,0,0,61.76,58Z" transform="translate(-3.42 -1.12)" style="fill:#c78d6b"/><path d="M101.61,58A1.43,1.43,0,1,0,103,59.42,1.42,1.42,0,0,0,101.61,58Z" transform="translate(-3.42 -1.12)" style="fill:#c78d6b"/><path d="M95.92,58a1.43,1.43,0,1,0,1.42,1.42A1.43,1.43,0,0,0,95.92,58Z" transform="translate(-3.42 -1.12)" style="fill:#c78d6b"/><path d="M78.84,58a1.43,1.43,0,1,0,1.42,1.42A1.42,1.42,0,0,0,78.84,58Z" transform="translate(-3.42 -1.12)" style="fill:#c78d6b"/><path d="M118.69,58a1.43,1.43,0,1,0,1.42,1.42A1.42,1.42,0,0,0,118.69,58Z" transform="translate(-3.42 -1.12)" style="fill:#c78d6b"/><path d="M113,58a1.43,1.43,0,1,0,1.42,1.42A1.43,1.43,0,0,0,113,58Z" transform="translate(-3.42 -1.12)" style="fill:#c78d6b"/><path d="M56.07,63.69a1.42,1.42,0,1,0,1.42,1.42A1.42,1.42,0,0,0,56.07,63.69Z" transform="translate(-3.42 -1.12)" style="fill:#c78d6b"/><circle cx="41.26" cy="63.99" r="1.42" style="fill:#c78d6b"/><path d="M33.3,1.12a1.42,1.42,0,1,0,1.42,1.42A1.42,1.42,0,0,0,33.3,1.12Z" transform="translate(-3.42 -1.12)" style="fill:#c78d6b"/><path d="M21.91,1.12a1.42,1.42,0,1,0,1.42,1.42A1.43,1.43,0,0,0,21.91,1.12Z" transform="translate(-3.42 -1.12)" style="fill:#c78d6b"/><circle cx="24.18" cy="7.11" r="1.42" style="fill:#c78d6b"/><circle cx="7.1" cy="7.11" r="1.42" style="fill:#c78d6b"/><path d="M21.91,6.81a1.42,1.42,0,1,0,1.42,1.42A1.42,1.42,0,0,0,21.91,6.81Z" transform="translate(-3.42 -1.12)" style="fill:#c78d6b"/><path d="M33.3,12.5a1.42,1.42,0,1,0,1.42,1.42A1.41,1.41,0,0,0,33.3,12.5Z" transform="translate(-3.42 -1.12)" style="fill:#c78d6b"/><circle cx="24.18" cy="18.49" r="1.42" style="fill:#c78d6b"/><path d="M33.3,23.87a1.42,1.42,0,1,0,1.42,1.42A1.42,1.42,0,0,0,33.3,23.87Z" transform="translate(-3.42 -1.12)" style="fill:#c78d6b"/><path d="M21.91,23.87a1.42,1.42,0,1,0,1.42,1.42A1.43,1.43,0,0,0,21.91,23.87Z" transform="translate(-3.42 -1.12)" style="fill:#c78d6b"/><path d="M33.3,29.56A1.42,1.42,0,1,0,34.72,31,1.42,1.42,0,0,0,33.3,29.56Z" transform="translate(-3.42 -1.12)" style="fill:#c78d6b"/><circle cx="24.18" cy="29.86" r="1.42" style="fill:#c78d6b"/><path d="M33.3,35.25a1.42,1.42,0,1,0,1.42,1.42A1.42,1.42,0,0,0,33.3,35.25Z" transform="translate(-3.42 -1.12)" style="fill:#c78d6b"/><path d="M21.91,35.25a1.42,1.42,0,1,0,1.42,1.42A1.43,1.43,0,0,0,21.91,35.25Z" transform="translate(-3.42 -1.12)" style="fill:#c78d6b"/><circle cx="24.18" cy="41.24" r="1.42" style="fill:#c78d6b"/><path d="M27.6,46.63A1.42,1.42,0,1,0,29,48.05,1.42,1.42,0,0,0,27.6,46.63Z" transform="translate(-3.42 -1.12)" style="fill:#c78d6b"/><path d="M16.22,46.63a1.42,1.42,0,1,0,1.42,1.42A1.41,1.41,0,0,0,16.22,46.63Z" transform="translate(-3.42 -1.12)" style="fill:#c78d6b"/><path d="M4.84,46.63a1.42,1.42,0,1,0,1.42,1.42A1.42,1.42,0,0,0,4.84,46.63Z" transform="translate(-3.42 -1.12)" style="fill:#c78d6b"/><path d="M33.3,52.32a1.42,1.42,0,1,0,1.42,1.42A1.41,1.41,0,0,0,33.3,52.32Z" transform="translate(-3.42 -1.12)" style="fill:#c78d6b"/><path d="M21.91,52.32a1.42,1.42,0,1,0,1.42,1.42A1.42,1.42,0,0,0,21.91,52.32Z" transform="translate(-3.42 -1.12)" style="fill:#c78d6b"/><path d="M33.3,58a1.43,1.43,0,1,0,1.42,1.42A1.42,1.42,0,0,0,33.3,58Z" transform="translate(-3.42 -1.12)" style="fill:#c78d6b"/><path d="M27.6,58A1.43,1.43,0,1,0,29,59.42,1.43,1.43,0,0,0,27.6,58Z" transform="translate(-3.42 -1.12)" style="fill:#c78d6b"/><path d="M10.53,58A1.43,1.43,0,1,0,12,59.42,1.42,1.42,0,0,0,10.53,58Z" transform="translate(-3.42 -1.12)" style="fill:#c78d6b"/><path d="M33.3,63.69a1.42,1.42,0,1,0,1.42,1.42A1.42,1.42,0,0,0,33.3,63.69Z" transform="translate(-3.42 -1.12)" style="fill:#c78d6b"/><path d="M21.91,63.69a1.42,1.42,0,1,0,1.42,1.42A1.43,1.43,0,0,0,21.91,63.69Z" transform="translate(-3.42 -1.12)" style="fill:#c78d6b"/><circle cx="58.34" cy="63.99" r="1.42" style="fill:#c78d6b"/><circle cx="98.18" cy="63.99" r="1.42" style="fill:#c78d6b"/><circle cx="92.49" cy="63.99" r="1.42" style="fill:#c78d6b"/><circle cx="81.11" cy="63.99" r="1.42" style="fill:#c78d6b"/><circle cx="75.41" cy="63.99" r="1.42" style="fill:#c78d6b"/><path d="M113,63.69a1.42,1.42,0,1,0,1.42,1.42A1.43,1.43,0,0,0,113,63.69Z" transform="translate(-3.42 -1.12)" style="fill:#c78d6b"/><path d="M88.38,47.21s.61-.46-.54,0a12.38,12.38,0,0,0-2.07,1.08v1.84s-1.39.46,0,1.23a1.38,1.38,0,0,0,.92,0l.61-.15a10.75,10.75,0,0,1,1.39-1.08,3.37,3.37,0,0,0,1.23-1.38l-.77-1.54Z" transform="translate(-3.42 -1.12)" style="fill:#2d2a26"/><path d="M74.57,7a27,27,0,1,0,27,27A27.07,27.07,0,0,0,74.57,7ZM97.45,42.45a4.27,4.27,0,0,1-1.85,1.23,4.89,4.89,0,0,1-1.38,1.54c-.77.46,0,.76,0,.76v1l-.77,1-.77,1.24-.77,1.37-1.23.84v1.78s0,.09-.09.23a25.14,25.14,0,0,1-33.37-1.19L57,51.82l.15-.76h1.07V49.67L57.5,48.6V43.37H55.19L54,42.45l-1.07-.92v-.62H51v-2.3H50l-.22-.24a25.23,25.23,0,0,1,1.6-14.16l.46-.2h.62a.64.64,0,0,0,.92,0c.46-.46,1.23,0,1.23,0a.88.88,0,0,0,.92-.2,2.75,2.75,0,0,0,.92-1.18l.15-.46s-1.07-1.08,0-1.38a13.06,13.06,0,0,0,2-.77l.73-.31h1.23V16.48l.92-.92s.62-.31,0-.77a13.19,13.19,0,0,1-1.42-1.38A25.1,25.1,0,0,1,87.18,12.2l-1.1,1.21L85,14.33h-.77a1.09,1.09,0,0,1-1.07,0,10.13,10.13,0,0,1-1.54-1.07l-.62-1a3.82,3.82,0,0,0-1.07,0,5.18,5.18,0,0,1-1.23,0h-2l-3.53.7c-.31.77.92,2.15,0,2.92l-.92.77V18l-.77.77v.92l-1.08.92-1.07-1.07s.46-.62,0-.92l-.46-.31L67,17.87l-1.38.92-.46.31L66,20.63h1.69l.46,1.08-.92.92s.15-.61-1.08,0l-1.23.61s-.61.93,0,1.39a14.19,14.19,0,0,1,1.69,1.79L63.8,28.16c-.93.92-.93,1.54-1.23,3.38s-.69,1.69-.81,2.46a7,7,0,0,0,0,1.69l0,.92s-1.06,0,0,.77,1.9,1.44,2.13,1.64a3.6,3.6,0,0,1,1.13,0,38.35,38.35,0,0,0,4.31,0l1.84,2,.92,2,.62.76a4.84,4.84,0,0,1,.92,1.23c.15.46,1.07,1.08,1.07,1.08v.77a6.18,6.18,0,0,0-.46,1.53v.46l1.27,1.85v1.38a1,1,0,0,0,0,.92l.27.46a4.06,4.06,0,0,0,.46,1.23l.31.46s.46,1.23.92.77l.46-.46,1.38-1.84.77-.16,1.85-.76.92-1.39L83.77,50l.15-.92.31-1.39a6.61,6.61,0,0,0,1.08-1.07c.3-.46.3-.77.61-1.23L86.84,44l.62-1.08,1.07-1.08s1.39-1.07,1.23-1.53a3.06,3.06,0,0,1,0-1.23L91,38.15V36.46H89.76l-1.07-.31s-.46-.61-.92-.61.76.92-.47,0l-1.22-.93L85,34l-.92-1.69s.77-.31-.16-.92-.15.46-.92-.62l-.77-1.07L80.7,28.16H77.47s0,.62-.77,0a8.09,8.09,0,0,0-2.39-1,1.06,1.06,0,0,1-.22-.06l.22.06c.09,0,0-.13-1-.73l-1.69-1-1.07-.11s-.62-.65,0-1.11l.61-.47,1.23-.3.92-.31.77-.77,2.77,1.08.76.77.93.46,1.07.65a.85.85,0,0,1,.77-.65H81l1.23,1.79h.62l.61.82-.15.92v.77s.46,0,.92.77l.46.77a3.24,3.24,0,0,0,.77,1.07l.62.62a3.13,3.13,0,0,1,.92.89l.46.64s.15-.77.77.31l.61,1.08a5.66,5.66,0,0,0,1.08.15A3,3,0,0,0,91,34.92a4.82,4.82,0,0,1,.92-.92,2.79,2.79,0,0,0,.77-1v-1.2l.92-.62.77-.3s.77-.16,1.08.3l.3.47a5.06,5.06,0,0,1,.62,1.35l.15.64v2.15l.93.77s-1.39,1.38,0,.62,1.22.61,1.38-.77a12.7,12.7,0,0,1,.92-3.05c0,.2,0,.39,0,.59a25,25,0,0,1-1.09,7.33C98.35,41.61,97.84,42.06,97.45,42.45Z" transform="translate(-3.42 -1.12)" style="fill:#2d2a26;stroke:#2d2a26;stroke-miterlimit:10"/></svg>