<svg xmlns="http://www.w3.org/2000/svg" viewBox="0 0 139.45 65.41"><title>3</title><path d="M50.37,1.12A1.42,1.42,0,1,0,51.8,2.54,1.43,1.43,0,0,0,50.37,1.12Z" transform="translate(-3.42 -1.12)" style="fill:#c78d6b"/><path d="M78.84,1.12a1.42,1.42,0,1,0,1.42,1.42A1.42,1.42,0,0,0,78.84,1.12Z" transform="translate(-3.42 -1.12)" style="fill:#c78d6b"/><path d="M67.45,1.12a1.42,1.42,0,1,0,1.42,1.42A1.43,1.43,0,0,0,67.45,1.12Z" transform="translate(-3.42 -1.12)" style="fill:#c78d6b"/><path d="M90.22,1.12a1.42,1.42,0,1,0,1.42,1.42A1.43,1.43,0,0,0,90.22,1.12Z" transform="translate(-3.42 -1.12)" style="fill:#c78d6b"/><path d="M84.53,1.12A1.42,1.42,0,1,0,86,2.54,1.43,1.43,0,0,0,84.53,1.12Z" transform="translate(-3.42 -1.12)" style="fill:#c78d6b"/><path d="M56.07,6.81a1.42,1.42,0,1,0,1.42,1.42A1.41,1.41,0,0,0,56.07,6.81Z" transform="translate(-3.42 -1.12)" style="fill:#c78d6b"/><circle cx="41.26" cy="7.11" r="1.42" style="fill:#c78d6b"/><path d="M39,6.81a1.42,1.42,0,1,0,1.42,1.42A1.41,1.41,0,0,0,39,6.81Z" transform="translate(-3.42 -1.12)" style="fill:#c78d6b"/><circle cx="75.41" cy="7.11" r="1.42" style="fill:#c78d6b"/><path d="M73.14,6.81a1.42,1.42,0,1,0,1.43,1.42A1.42,1.42,0,0,0,73.14,6.81Z" transform="translate(-3.42 -1.12)" style="fill:#c78d6b"/><circle cx="58.34" cy="7.11" r="1.42" style="fill:#c78d6b"/><circle cx="98.18" cy="7.11" r="1.42" style="fill:#c78d6b"/><circle cx="92.49" cy="7.11" r="1.42" style="fill:#c78d6b"/><path d="M90.22,6.81a1.42,1.42,0,1,0,1.42,1.42A1.42,1.42,0,0,0,90.22,6.81Z" transform="translate(-3.42 -1.12)" style="fill:#c78d6b"/><circle cx="81.11" cy="7.11" r="1.42" style="fill:#c78d6b"/><circle cx="120.96" cy="7.11" r="1.42" style="fill:#c78d6b"/><circle cx="138.03" cy="7.11" r="1.42" style="fill:#c78d6b"/><circle cx="132.34" cy="7.11" r="1.42" style="fill:#c78d6b"/><path d="M130.07,6.81a1.42,1.42,0,1,0,1.42,1.42A1.42,1.42,0,0,0,130.07,6.81Z" transform="translate(-3.42 -1.12)" style="fill:#c78d6b"/><path d="M56.07,12.5a1.42,1.42,0,1,0,1.42,1.42A1.41,1.41,0,0,0,56.07,12.5Z" transform="translate(-3.42 -1.12)" style="fill:#c78d6b"/><path d="M44.68,12.5a1.42,1.42,0,1,0,1.42,1.42A1.42,1.42,0,0,0,44.68,12.5Z" transform="translate(-3.42 -1.12)" style="fill:#c78d6b"/><path d="M78.84,12.5a1.42,1.42,0,1,0,1.42,1.42A1.41,1.41,0,0,0,78.84,12.5Z" transform="translate(-3.42 -1.12)" style="fill:#c78d6b"/><path d="M73.14,12.5a1.42,1.42,0,1,0,1.43,1.42A1.42,1.42,0,0,0,73.14,12.5Z" transform="translate(-3.42 -1.12)" style="fill:#c78d6b"/><path d="M67.45,12.5a1.42,1.42,0,1,0,1.42,1.42A1.42,1.42,0,0,0,67.45,12.5Z" transform="translate(-3.42 -1.12)" style="fill:#c78d6b"/><path d="M61.76,12.5a1.42,1.42,0,1,0,1.42,1.42A1.41,1.41,0,0,0,61.76,12.5Z" transform="translate(-3.42 -1.12)" style="fill:#c78d6b"/><path d="M101.61,12.5A1.42,1.42,0,1,0,103,13.92,1.41,1.41,0,0,0,101.61,12.5Z" transform="translate(-3.42 -1.12)" style="fill:#c78d6b"/><path d="M95.92,12.5a1.42,1.42,0,1,0,1.42,1.42A1.42,1.42,0,0,0,95.92,12.5Z" transform="translate(-3.42 -1.12)" style="fill:#c78d6b"/><path d="M90.22,12.5a1.42,1.42,0,1,0,1.42,1.42A1.42,1.42,0,0,0,90.22,12.5Z" transform="translate(-3.42 -1.12)" style="fill:#c78d6b"/><path d="M84.53,12.5A1.42,1.42,0,1,0,86,13.92,1.42,1.42,0,0,0,84.53,12.5Z" transform="translate(-3.42 -1.12)" style="fill:#c78d6b"/><path d="M124.38,12.5a1.42,1.42,0,1,0,1.42,1.42A1.41,1.41,0,0,0,124.38,12.5Z" transform="translate(-3.42 -1.12)" style="fill:#c78d6b"/><path d="M141.46,12.5a1.42,1.42,0,1,0,1.42,1.42A1.41,1.41,0,0,0,141.46,12.5Z" transform="translate(-3.42 -1.12)" style="fill:#c78d6b"/><path d="M135.76,12.5a1.42,1.42,0,1,0,1.42,1.42A1.42,1.42,0,0,0,135.76,12.5Z" transform="translate(-3.42 -1.12)" style="fill:#c78d6b"/><path d="M130.07,12.5a1.42,1.42,0,1,0,1.42,1.42A1.42,1.42,0,0,0,130.07,12.5Z" transform="translate(-3.42 -1.12)" style="fill:#c78d6b"/><path d="M107.3,12.5a1.42,1.42,0,1,0,1.42,1.42A1.42,1.42,0,0,0,107.3,12.5Z" transform="translate(-3.42 -1.12)" style="fill:#c78d6b"/><path d="M56.07,18.19a1.42,1.42,0,1,0,1.42,1.42A1.41,1.41,0,0,0,56.07,18.19Z" transform="translate(-3.42 -1.12)" style="fill:#c78d6b"/><path d="M50.37,18.19a1.42,1.42,0,1,0,1.43,1.42A1.42,1.42,0,0,0,50.37,18.19Z" transform="translate(-3.42 -1.12)" style="fill:#c78d6b"/><circle cx="41.26" cy="18.49" r="1.42" style="fill:#c78d6b"/><path d="M39,18.19a1.42,1.42,0,1,0,1.42,1.42A1.41,1.41,0,0,0,39,18.19Z" transform="translate(-3.42 -1.12)" style="fill:#c78d6b"/><circle cx="75.41" cy="18.49" r="1.42" style="fill:#c78d6b"/><path d="M73.14,18.19a1.42,1.42,0,1,0,1.43,1.42A1.42,1.42,0,0,0,73.14,18.19Z" transform="translate(-3.42 -1.12)" style="fill:#c78d6b"/><path d="M67.45,18.19a1.42,1.42,0,1,0,1.42,1.42A1.42,1.42,0,0,0,67.45,18.19Z" transform="translate(-3.42 -1.12)" style="fill:#c78d6b"/><circle cx="98.18" cy="18.49" r="1.42" style="fill:#c78d6b"/><circle cx="92.49" cy="18.49" r="1.42" style="fill:#c78d6b"/><path d="M90.22,18.19a1.42,1.42,0,1,0,1.42,1.42A1.42,1.42,0,0,0,90.22,18.19Z" transform="translate(-3.42 -1.12)" style="fill:#c78d6b"/><circle cx="81.11" cy="18.49" r="1.42" style="fill:#c78d6b"/><circle cx="120.96" cy="18.49" r="1.42" style="fill:#c78d6b"/><circle cx="115.26" cy="18.49" r="1.42" style="fill:#c78d6b"/><path d="M113,18.19a1.42,1.42,0,1,0,1.42,1.42A1.42,1.42,0,0,0,113,18.19Z" transform="translate(-3.42 -1.12)" style="fill:#c78d6b"/><path d="M130.07,18.19a1.42,1.42,0,1,0,1.42,1.42A1.42,1.42,0,0,0,130.07,18.19Z" transform="translate(-3.42 -1.12)" style="fill:#c78d6b"/><path d="M107.3,18.19a1.42,1.42,0,1,0,1.42,1.42A1.42,1.42,0,0,0,107.3,18.19Z" transform="translate(-3.42 -1.12)" style="fill:#c78d6b"/><path d="M56.07,23.87a1.42,1.42,0,1,0,1.42,1.42A1.42,1.42,0,0,0,56.07,23.87Z" transform="translate(-3.42 -1.12)" style="fill:#c78d6b"/><path d="M50.37,23.87a1.42,1.42,0,1,0,1.43,1.42A1.43,1.43,0,0,0,50.37,23.87Z" transform="translate(-3.42 -1.12)" style="fill:#c78d6b"/><path d="M39,23.87a1.42,1.42,0,1,0,1.42,1.42A1.42,1.42,0,0,0,39,23.87Z" transform="translate(-3.42 -1.12)" style="fill:#c78d6b"/><path d="M78.84,23.87a1.42,1.42,0,1,0,1.42,1.42A1.42,1.42,0,0,0,78.84,23.87Z" transform="translate(-3.42 -1.12)" style="fill:#c78d6b"/><path d="M73.14,23.87a1.42,1.42,0,1,0,1.43,1.42A1.43,1.43,0,0,0,73.14,23.87Z" transform="translate(-3.42 -1.12)" style="fill:#c78d6b"/><path d="M67.45,23.87a1.42,1.42,0,1,0,1.42,1.42A1.43,1.43,0,0,0,67.45,23.87Z" transform="translate(-3.42 -1.12)" style="fill:#c78d6b"/><path d="M61.76,23.87a1.42,1.42,0,1,0,1.42,1.42A1.42,1.42,0,0,0,61.76,23.87Z" transform="translate(-3.42 -1.12)" style="fill:#c78d6b"/><path d="M101.61,23.87A1.42,1.42,0,1,0,103,25.29,1.42,1.42,0,0,0,101.61,23.87Z" transform="translate(-3.42 -1.12)" style="fill:#c78d6b"/><path d="M95.92,23.87a1.42,1.42,0,1,0,1.42,1.42A1.43,1.43,0,0,0,95.92,23.87Z" transform="translate(-3.42 -1.12)" style="fill:#c78d6b"/><path d="M90.22,23.87a1.42,1.42,0,1,0,1.42,1.42A1.43,1.43,0,0,0,90.22,23.87Z" transform="translate(-3.42 -1.12)" style="fill:#c78d6b"/><path d="M84.53,23.87A1.42,1.42,0,1,0,86,25.29,1.43,1.43,0,0,0,84.53,23.87Z" transform="translate(-3.42 -1.12)" style="fill:#c78d6b"/><path d="M124.38,23.87a1.42,1.42,0,1,0,1.42,1.42A1.42,1.42,0,0,0,124.38,23.87Z" transform="translate(-3.42 -1.12)" style="fill:#c78d6b"/><path d="M118.69,23.87a1.42,1.42,0,1,0,1.42,1.42A1.42,1.42,0,0,0,118.69,23.87Z" transform="translate(-3.42 -1.12)" style="fill:#c78d6b"/><path d="M113,23.87a1.42,1.42,0,1,0,1.42,1.42A1.43,1.43,0,0,0,113,23.87Z" transform="translate(-3.42 -1.12)" style="fill:#c78d6b"/><path d="M130.07,23.87a1.42,1.42,0,1,0,1.42,1.42A1.43,1.43,0,0,0,130.07,23.87Z" transform="translate(-3.42 -1.12)" style="fill:#c78d6b"/><path d="M107.3,23.87a1.42,1.42,0,1,0,1.42,1.42A1.43,1.43,0,0,0,107.3,23.87Z" transform="translate(-3.42 -1.12)" style="fill:#c78d6b"/><path d="M50.37,29.56A1.42,1.42,0,1,0,51.8,31,1.43,1.43,0,0,0,50.37,29.56Z" transform="translate(-3.42 -1.12)" style="fill:#c78d6b"/><circle cx="41.26" cy="29.86" r="1.42" style="fill:#c78d6b"/><circle cx="75.41" cy="29.86" r="1.42" style="fill:#c78d6b"/><path d="M73.14,29.56A1.42,1.42,0,1,0,74.57,31,1.43,1.43,0,0,0,73.14,29.56Z" transform="translate(-3.42 -1.12)" style="fill:#c78d6b"/><path d="M67.45,29.56A1.42,1.42,0,1,0,68.87,31,1.43,1.43,0,0,0,67.45,29.56Z" transform="translate(-3.42 -1.12)" style="fill:#c78d6b"/><circle cx="58.34" cy="29.86" r="1.42" style="fill:#c78d6b"/><circle cx="98.18" cy="29.86" r="1.42" style="fill:#c78d6b"/><circle cx="92.49" cy="29.86" r="1.42" style="fill:#c78d6b"/><path d="M90.22,29.56A1.42,1.42,0,1,0,91.64,31,1.43,1.43,0,0,0,90.22,29.56Z" transform="translate(-3.42 -1.12)" style="fill:#c78d6b"/><circle cx="81.11" cy="29.86" r="1.42" style="fill:#c78d6b"/><circle cx="120.96" cy="29.86" r="1.42" style="fill:#c78d6b"/><circle cx="115.26" cy="29.86" r="1.42" style="fill:#c78d6b"/><path d="M113,29.56A1.42,1.42,0,1,0,114.41,31,1.43,1.43,0,0,0,113,29.56Z" transform="translate(-3.42 -1.12)" style="fill:#c78d6b"/><path d="M107.3,29.56A1.42,1.42,0,1,0,108.72,31,1.43,1.43,0,0,0,107.3,29.56Z" transform="translate(-3.42 -1.12)" style="fill:#c78d6b"/><path d="M56.07,35.25a1.42,1.42,0,1,0,1.42,1.42A1.42,1.42,0,0,0,56.07,35.25Z" transform="translate(-3.42 -1.12)" style="fill:#c78d6b"/><path d="M50.37,35.25a1.42,1.42,0,1,0,1.43,1.42A1.43,1.43,0,0,0,50.37,35.25Z" transform="translate(-3.42 -1.12)" style="fill:#c78d6b"/><path d="M44.68,35.25a1.42,1.42,0,1,0,1.42,1.42A1.43,1.43,0,0,0,44.68,35.25Z" transform="translate(-3.42 -1.12)" style="fill:#c78d6b"/><path d="M16.22,18.19a1.42,1.42,0,1,0,1.42,1.42A1.41,1.41,0,0,0,16.22,18.19Z" transform="translate(-3.42 -1.12)" style="fill:#c78d6b"/><path d="M10.53,23.87A1.42,1.42,0,1,0,12,25.29,1.42,1.42,0,0,0,10.53,23.87Z" transform="translate(-3.42 -1.12)" style="fill:#c78d6b"/><path d="M16.22,29.56A1.42,1.42,0,1,0,17.64,31,1.42,1.42,0,0,0,16.22,29.56Z" transform="translate(-3.42 -1.12)" style="fill:#c78d6b"/><path d="M16.22,35.25a1.42,1.42,0,1,0,1.42,1.42A1.42,1.42,0,0,0,16.22,35.25Z" transform="translate(-3.42 -1.12)" style="fill:#c78d6b"/><path d="M78.84,35.25a1.42,1.42,0,1,0,1.42,1.42A1.42,1.42,0,0,0,78.84,35.25Z" transform="translate(-3.42 -1.12)" style="fill:#c78d6b"/><path d="M73.14,35.25a1.42,1.42,0,1,0,1.43,1.42A1.43,1.43,0,0,0,73.14,35.25Z" transform="translate(-3.42 -1.12)" style="fill:#c78d6b"/><path d="M67.45,35.25a1.42,1.42,0,1,0,1.42,1.42A1.43,1.43,0,0,0,67.45,35.25Z" transform="translate(-3.42 -1.12)" style="fill:#c78d6b"/><path d="M61.76,35.25a1.42,1.42,0,1,0,1.42,1.42A1.42,1.42,0,0,0,61.76,35.25Z" transform="translate(-3.42 -1.12)" style="fill:#c78d6b"/><path d="M101.61,35.25A1.42,1.42,0,1,0,103,36.67,1.42,1.42,0,0,0,101.61,35.25Z" transform="translate(-3.42 -1.12)" style="fill:#c78d6b"/><path d="M95.92,35.25a1.42,1.42,0,1,0,1.42,1.42A1.43,1.43,0,0,0,95.92,35.25Z" transform="translate(-3.42 -1.12)" style="fill:#c78d6b"/><path d="M90.22,35.25a1.42,1.42,0,1,0,1.42,1.42A1.43,1.43,0,0,0,90.22,35.25Z" transform="translate(-3.42 -1.12)" style="fill:#c78d6b"/><path d="M84.53,35.25A1.42,1.42,0,1,0,86,36.67,1.43,1.43,0,0,0,84.53,35.25Z" transform="translate(-3.42 -1.12)" style="fill:#c78d6b"/><path d="M113,35.25a1.42,1.42,0,1,0,1.42,1.42A1.43,1.43,0,0,0,113,35.25Z" transform="translate(-3.42 -1.12)" style="fill:#c78d6b"/><path d="M107.3,35.25a1.42,1.42,0,1,0,1.42,1.42A1.43,1.43,0,0,0,107.3,35.25Z" transform="translate(-3.42 -1.12)" style="fill:#c78d6b"/><path d="M50.37,40.94a1.42,1.42,0,1,0,1.43,1.42A1.42,1.42,0,0,0,50.37,40.94Z" transform="translate(-3.42 -1.12)" style="fill:#c78d6b"/><path d="M39,40.94a1.42,1.42,0,1,0,1.42,1.42A1.41,1.41,0,0,0,39,40.94Z" transform="translate(-3.42 -1.12)" style="fill:#c78d6b"/><circle cx="75.41" cy="41.24" r="1.42" style="fill:#c78d6b"/><path d="M73.14,40.94a1.42,1.42,0,1,0,1.43,1.42A1.42,1.42,0,0,0,73.14,40.94Z" transform="translate(-3.42 -1.12)" style="fill:#c78d6b"/><path d="M67.45,40.94a1.42,1.42,0,1,0,1.42,1.42A1.42,1.42,0,0,0,67.45,40.94Z" transform="translate(-3.42 -1.12)" style="fill:#c78d6b"/><circle cx="58.34" cy="41.24" r="1.42" style="fill:#c78d6b"/><path d="M56.07,40.94a1.42,1.42,0,1,0,1.42,1.42A1.41,1.41,0,0,0,56.07,40.94Z" transform="translate(-3.42 -1.12)" style="fill:#c78d6b"/><circle cx="98.18" cy="41.24" r="1.42" style="fill:#c78d6b"/><circle cx="92.49" cy="41.24" r="1.42" style="fill:#c78d6b"/><circle cx="115.26" cy="41.24" r="1.42" style="fill:#c78d6b"/><path d="M113,40.94a1.42,1.42,0,1,0,1.42,1.42A1.42,1.42,0,0,0,113,40.94Z" transform="translate(-3.42 -1.12)" style="fill:#c78d6b"/><path d="M107.3,40.94a1.42,1.42,0,1,0,1.42,1.42A1.42,1.42,0,0,0,107.3,40.94Z" transform="translate(-3.42 -1.12)" style="fill:#c78d6b"/><path d="M56.07,46.63a1.42,1.42,0,1,0,1.42,1.42A1.41,1.41,0,0,0,56.07,46.63Z" transform="translate(-3.42 -1.12)" style="fill:#c78d6b"/><path d="M44.68,46.63a1.42,1.42,0,1,0,1.42,1.42A1.42,1.42,0,0,0,44.68,46.63Z" transform="translate(-3.42 -1.12)" style="fill:#c78d6b"/><path d="M39,46.63a1.42,1.42,0,1,0,1.42,1.42A1.41,1.41,0,0,0,39,46.63Z" transform="translate(-3.42 -1.12)" style="fill:#c78d6b"/><path d="M78.84,46.63a1.42,1.42,0,1,0,1.42,1.42A1.41,1.41,0,0,0,78.84,46.63Z" transform="translate(-3.42 -1.12)" style="fill:#c78d6b"/><path d="M73.14,46.63a1.42,1.42,0,1,0,1.43,1.42A1.42,1.42,0,0,0,73.14,46.63Z" transform="translate(-3.42 -1.12)" style="fill:#c78d6b"/><path d="M61.76,46.63a1.42,1.42,0,1,0,1.42,1.42A1.41,1.41,0,0,0,61.76,46.63Z" transform="translate(-3.42 -1.12)" style="fill:#c78d6b"/><path d="M101.61,46.63A1.42,1.42,0,1,0,103,48.05,1.41,1.41,0,0,0,101.61,46.63Z" transform="translate(-3.42 -1.12)" style="fill:#c78d6b"/><path d="M95.92,46.63a1.42,1.42,0,1,0,1.42,1.42A1.42,1.42,0,0,0,95.92,46.63Z" transform="translate(-3.42 -1.12)" style="fill:#c78d6b"/><path d="M118.69,46.63a1.42,1.42,0,1,0,1.42,1.42A1.41,1.41,0,0,0,118.69,46.63Z" transform="translate(-3.42 -1.12)" style="fill:#c78d6b"/><path d="M113,46.63a1.42,1.42,0,1,0,1.42,1.42A1.42,1.42,0,0,0,113,46.63Z" transform="translate(-3.42 -1.12)" style="fill:#c78d6b"/><path d="M56.07,52.32a1.42,1.42,0,1,0,1.42,1.42A1.41,1.41,0,0,0,56.07,52.32Z" transform="translate(-3.42 -1.12)" style="fill:#c78d6b"/><path d="M50.37,52.32a1.42,1.42,0,1,0,1.43,1.42A1.42,1.42,0,0,0,50.37,52.32Z" transform="translate(-3.42 -1.12)" style="fill:#c78d6b"/><path d="M39,52.32a1.42,1.42,0,1,0,1.42,1.42A1.41,1.41,0,0,0,39,52.32Z" transform="translate(-3.42 -1.12)" style="fill:#c78d6b"/><circle cx="75.41" cy="52.62" r="1.42" style="fill:#c78d6b"/><path d="M73.14,52.32a1.42,1.42,0,1,0,1.43,1.42A1.42,1.42,0,0,0,73.14,52.32Z" transform="translate(-3.42 -1.12)" style="fill:#c78d6b"/><circle cx="58.34" cy="52.62" r="1.42" style="fill:#c78d6b"/><circle cx="98.18" cy="52.62" r="1.42" style="fill:#c78d6b"/><circle cx="92.49" cy="52.62" r="1.42" style="fill:#c78d6b"/><circle cx="115.26" cy="52.62" r="1.42" style="fill:#c78d6b"/><path d="M113,52.32a1.42,1.42,0,1,0,1.42,1.42A1.42,1.42,0,0,0,113,52.32Z" transform="translate(-3.42 -1.12)" style="fill:#c78d6b"/><path d="M56.07,58a1.43,1.43,0,1,0,1.42,1.42A1.42,1.42,0,0,0,56.07,58Z" transform="translate(-3.42 -1.12)" style="fill:#c78d6b"/><path d="M44.68,58a1.43,1.43,0,1,0,1.42,1.42A1.43,1.43,0,0,0,44.68,58Z" transform="translate(-3.42 -1.12)" style="fill:#c78d6b"/><path d="M73.14,58a1.43,1.43,0,1,0,1.43,1.42A1.43,1.43,0,0,0,73.14,58Z" transform="translate(-3.42 -1.12)" style="fill:#c78d6b"/><path d="M61.76,58a1.43,1.43,0,1,0,1.42,1.42A1.42,1.42,0,0,0,61.76,58Z" transform="translate(-3.42 -1.12)" style="fill:#c78d6b"/><path d="M101.61,58A1.43,1.43,0,1,0,103,59.42,1.42,1.42,0,0,0,101.61,58Z" transform="translate(-3.42 -1.12)" style="fill:#c78d6b"/><path d="M95.92,58a1.43,1.43,0,1,0,1.42,1.42A1.43,1.43,0,0,0,95.92,58Z" transform="translate(-3.42 -1.12)" style="fill:#c78d6b"/><path d="M78.84,58a1.43,1.43,0,1,0,1.42,1.42A1.42,1.42,0,0,0,78.84,58Z" transform="translate(-3.42 -1.12)" style="fill:#c78d6b"/><path d="M118.69,58a1.43,1.43,0,1,0,1.42,1.42A1.42,1.42,0,0,0,118.69,58Z" transform="translate(-3.42 -1.12)" style="fill:#c78d6b"/><path d="M113,58a1.43,1.43,0,1,0,1.42,1.42A1.43,1.43,0,0,0,113,58Z" transform="translate(-3.42 -1.12)" style="fill:#c78d6b"/><path d="M56.07,63.69a1.42,1.42,0,1,0,1.42,1.42A1.42,1.42,0,0,0,56.07,63.69Z" transform="translate(-3.42 -1.12)" style="fill:#c78d6b"/><circle cx="41.26" cy="63.99" r="1.42" style="fill:#c78d6b"/><path d="M33.3,1.12a1.42,1.42,0,1,0,1.42,1.42A1.42,1.42,0,0,0,33.3,1.12Z" transform="translate(-3.42 -1.12)" style="fill:#c78d6b"/><path d="M21.91,1.12a1.42,1.42,0,1,0,1.42,1.42A1.43,1.43,0,0,0,21.91,1.12Z" transform="translate(-3.42 -1.12)" style="fill:#c78d6b"/><circle cx="24.18" cy="7.11" r="1.42" style="fill:#c78d6b"/><circle cx="7.1" cy="7.11" r="1.42" style="fill:#c78d6b"/><path d="M21.91,6.81a1.42,1.42,0,1,0,1.42,1.42A1.42,1.42,0,0,0,21.91,6.81Z" transform="translate(-3.42 -1.12)" style="fill:#c78d6b"/><path d="M33.3,12.5a1.42,1.42,0,1,0,1.42,1.42A1.41,1.41,0,0,0,33.3,12.5Z" transform="translate(-3.42 -1.12)" style="fill:#c78d6b"/><circle cx="24.18" cy="18.49" r="1.42" style="fill:#c78d6b"/><path d="M33.3,23.87a1.42,1.42,0,1,0,1.42,1.42A1.42,1.42,0,0,0,33.3,23.87Z" transform="translate(-3.42 -1.12)" style="fill:#c78d6b"/><path d="M21.91,23.87a1.42,1.42,0,1,0,1.42,1.42A1.43,1.43,0,0,0,21.91,23.87Z" transform="translate(-3.42 -1.12)" style="fill:#c78d6b"/><path d="M33.3,29.56A1.42,1.42,0,1,0,34.72,31,1.42,1.42,0,0,0,33.3,29.56Z" transform="translate(-3.42 -1.12)" style="fill:#c78d6b"/><circle cx="24.18" cy="29.86" r="1.42" style="fill:#c78d6b"/><path d="M33.3,35.25a1.42,1.42,0,1,0,1.42,1.42A1.42,1.42,0,0,0,33.3,35.25Z" transform="translate(-3.42 -1.12)" style="fill:#c78d6b"/><path d="M21.91,35.25a1.42,1.42,0,1,0,1.42,1.42A1.43,1.43,0,0,0,21.91,35.25Z" transform="translate(-3.42 -1.12)" style="fill:#c78d6b"/><circle cx="24.18" cy="41.24" r="1.42" style="fill:#c78d6b"/><path d="M27.6,46.63A1.42,1.42,0,1,0,29,48.05,1.42,1.42,0,0,0,27.6,46.63Z" transform="translate(-3.42 -1.12)" style="fill:#c78d6b"/><path d="M16.22,46.63a1.42,1.42,0,1,0,1.42,1.42A1.41,1.41,0,0,0,16.22,46.63Z" transform="translate(-3.42 -1.12)" style="fill:#c78d6b"/><path d="M4.84,46.63a1.42,1.42,0,1,0,1.42,1.42A1.42,1.42,0,0,0,4.84,46.63Z" transform="translate(-3.42 -1.12)" style="fill:#c78d6b"/><path d="M33.3,52.32a1.42,1.42,0,1,0,1.42,1.42A1.41,1.41,0,0,0,33.3,52.32Z" transform="translate(-3.42 -1.12)" style="fill:#c78d6b"/><path d="M21.91,52.32a1.42,1.42,0,1,0,1.42,1.42A1.42,1.42,0,0,0,21.91,52.32Z" transform="translate(-3.42 -1.12)" style="fill:#c78d6b"/><path d="M33.3,58a1.43,1.43,0,1,0,1.42,1.42A1.42,1.42,0,0,0,33.3,58Z" transform="translate(-3.42 -1.12)" style="fill:#c78d6b"/><path d="M27.6,58A1.43,1.43,0,1,0,29,59.42,1.43,1.43,0,0,0,27.6,58Z" transform="translate(-3.42 -1.12)" style="fill:#c78d6b"/><path d="M10.53,58A1.43,1.43,0,1,0,12,59.42,1.42,1.42,0,0,0,10.53,58Z" transform="translate(-3.42 -1.12)" style="fill:#c78d6b"/><path d="M33.3,63.69a1.42,1.42,0,1,0,1.42,1.42A1.42,1.42,0,0,0,33.3,63.69Z" transform="translate(-3.42 -1.12)" style="fill:#c78d6b"/><path d="M21.91,63.69a1.42,1.42,0,1,0,1.42,1.42A1.43,1.43,0,0,0,21.91,63.69Z" transform="translate(-3.42 -1.12)" style="fill:#c78d6b"/><circle cx="58.34" cy="63.99" r="1.42" style="fill:#c78d6b"/><circle cx="98.18" cy="63.99" r="1.42" style="fill:#c78d6b"/><circle cx="92.49" cy="63.99" r="1.42" style="fill:#c78d6b"/><circle cx="81.11" cy="63.99" r="1.42" style="fill:#c78d6b"/><circle cx="75.41" cy="63.99" r="1.42" style="fill:#c78d6b"/><path d="M113,63.69a1.42,1.42,0,1,0,1.42,1.42A1.43,1.43,0,0,0,113,63.69Z" transform="translate(-3.42 -1.12)" style="fill:#c78d6b"/><path d="M94.81,31.8a4.06,4.06,0,0,0-7.22-1.64l-.93,1.24a8.31,8.31,0,0,0-2.26-.94,7.92,7.92,0,0,0-1.2-.21,26.8,26.8,0,0,0,2.65-11.64V16.69a.85.85,0,0,0-.85-.85H81.61V14.55a6.92,6.92,0,0,0-3.85-6.23.83.83,0,0,0-.75,0,6.92,6.92,0,0,0-3.86,6.23v1.29H69.77a.85.85,0,0,0-.85.85v1.4a.83.83,0,0,0-1,.12l-.69.69L56,8.46a.83.83,0,0,0-.58-.23H53.69a.85.85,0,0,0-.85.85v1.69a.86.86,0,0,0,.23.57L63.52,22.59l-.7.7a.84.84,0,0,0,0,1.19l2.12,2.12a.85.85,0,0,0,1.2,0l.33-.34a3,3,0,0,0,2.88,2.28h1.47c.16.41.33.81.51,1.21l-3.52-.14-9-9a7.62,7.62,0,0,0-10-.7l-1.16.87h0l0,0h0a2.56,2.56,0,0,0-1,1.62l-1.44,9.34a.85.85,0,0,0,.57.93L47,33.1A2.55,2.55,0,0,0,50,31.84l.86-1.72,1.82,7.29a7.65,7.65,0,0,0,1.7,3.22l-6,4.93a2.54,2.54,0,0,0-.54,3.31l3.4,5.43,1.69,3.39a.86.86,0,0,0,.73.46h0a.85.85,0,0,0,.73-.41L57,53.51a.83.83,0,0,0-.25-1.14L54.35,50.8l-1.18-2.36,3-1.22a19.62,19.62,0,0,0,5-2.92l.11,2.05a.64.64,0,0,0,0,.2l2.47,8.24L63,58a.85.85,0,0,0,.62,1,.76.76,0,0,0,.21,0h4.23a.85.85,0,0,0,.84-.85V54.77a.78.78,0,0,0,0-.22l-1.82-6.68,7.11-1.58a.85.85,0,0,0,.64-1,.5.5,0,0,0,0-.13l-1.08-2.7L75,42.08h1.4l2.58,5.8L73.33,55.1a.75.75,0,0,0-.13.25l-.85,2.54A.84.84,0,0,0,72.89,59a.75.75,0,0,0,.26,0h5.08a.85.85,0,0,0,.85-.85V55.91l5.74-7.39a.85.85,0,0,0,.16-.69l-.32-1.59a11.76,11.76,0,0,0,3.2,1.42l.64.17,1.55,7.73-.78,2.33A.84.84,0,0,0,89.81,59a.77.77,0,0,0,.27,0h4.23a.85.85,0,0,0,.84-.85V55.62a.61.61,0,0,0,0-.14L93.45,45.32a.87.87,0,0,0-.16-.37L90.92,41.8v-3c0-.11,0-.22,0-.33a6.75,6.75,0,0,0,4,3.52.75.75,0,0,0,.26,0,.85.85,0,0,0,.85-.85.41.41,0,0,0,0-.11ZM71.48,25.15h5.06v9.68A24.93,24.93,0,0,1,71.48,25.15Zm6.75,0h5.06a24.93,24.93,0,0,1-5.06,9.68Zm5.92-6.54a25.46,25.46,0,0,1-.46,4.85H78.23V17.54h5.92ZM77.38,10a5.22,5.22,0,0,1,2.52,4.17,6.93,6.93,0,0,0-4.61-1.75h0A5.26,5.26,0,0,1,77.38,10Zm-2.53,4.51c0-.13,0-.26,0-.4h.42a5.27,5.27,0,0,1,3.88,1.69H74.85Zm-4.24,3h5.93v5.92H71.08a25.47,25.47,0,0,1-.47-4.85Zm-16.07-7.1V9.92h.51L66,20.1l-1.3,1.3Zm11,14.36-.92-.92.67-.67,2.54-2.54L68.5,20l.5.5c0,.26,0,.53,0,.79Zm3.81,2.05a1.27,1.27,0,1,1,0-2.54h.18c.19.86.41,1.7.68,2.54Zm-11.73-5,7.69,7.69-2.8-.11-7.82-7.83a2.54,2.54,0,0,0-1.44-.72l-2.1-.3a5.73,5.73,0,0,1,2.27-.47A6,6,0,0,1,57.62,21.82Zm-2,23.83-3.91,1.56a.86.86,0,0,0-.47,1.1l0,.07,1.69,3.38a.92.92,0,0,0,.29.33l1.87,1.24-1.33,2.22-1-2.08L49.27,48a.86.86,0,0,1,.19-1.11l6.75-5.52a.83.83,0,0,0,.31-.65.81.81,0,0,0-.29-.64,6,6,0,0,1-1.88-3l-2.16-8.64a3.4,3.4,0,0,0,2.35-3.21h-1.7a1.69,1.69,0,0,1-1.69,1.7h0a.84.84,0,0,0-.75.46l-1.89,3.77a.85.85,0,0,1-1,.42L47,31.34l1.33-8.64a.84.84,0,0,1,.33-.55h0A.85.85,0,0,1,49.3,22l3.71.53a.79.79,0,0,1,.48.24l8.06,8.06a.86.86,0,0,0,.57.25l8,.32-5.7,2.28a.84.84,0,0,0-.47,1.1h0l3,7.57a17.14,17.14,0,0,1-3.58-.05c.29-.32.57-.65.84-1l.32-.4-1.32-1.06-.32.4A17.85,17.85,0,0,1,55.59,45.65ZM67.23,57.31h-2.3L65.51,55a.73.73,0,0,0,0-.44L63,46.16l-.12-2.24a15.77,15.77,0,0,0,1.82.16v1.38a.78.78,0,0,0,0,.22l2.51,9.2Zm-.49-11.1a1.24,1.24,0,0,1,.37-1.51l1.47-1.1a.84.84,0,0,0,.28-1l-3.07-7.68,6.82-2.72c.43.73.9,1.44,1.41,2.14l-3.78,1.89a.84.84,0,0,0-.41,1.07l3,7.54Zm8.09-5.83a1,1,0,0,0-.24,0l-1.51.46-1.39-3.47,3.38-1.7c.54.65,1.11,1.28,1.72,1.89a.84.84,0,0,0,1.19,0c.39-.39.75-.78,1.11-1.18a11.67,11.67,0,0,0,.78,4ZM77.56,55.1a.86.86,0,0,0-.18.52v1.69h-3L74.76,56l5.83-7.5a.86.86,0,0,0,.11-.86l-2.48-5.58h2.45a12.21,12.21,0,0,0,2,2.53l.63,3.18Zm14.25-9.3,1.65,9.89v1.62H91.25l.48-1.43a.9.9,0,0,0,0-.43L90.06,47a.83.83,0,0,0-.61-.65L88.31,46a10.25,10.25,0,0,1-7.54-9.87H79.32a26.56,26.56,0,0,0,3-4.27h.21a7,7,0,0,1,6.68,7v3.24a.82.82,0,0,0,.17.5Zm.53-8.2-1.49-3.47a.84.84,0,0,0-1.11-.44l0,0-.35.17A8.43,8.43,0,0,0,88,32.4L89,31.18a2.36,2.36,0,0,1,4.19.89l1,7.7a5.06,5.06,0,0,1-1.78-2.18Z" transform="translate(-3.42 -1.12)" style="fill:#2d2a26;stroke:#2d2a26;stroke-miterlimit:10;stroke-width:0.5px"/></svg>