<svg xmlns="http://www.w3.org/2000/svg" viewBox="0 0 139.45 65.41"><title>bg</title><g style="opacity:0.1"><path d="M50.37,1.12A1.42,1.42,0,1,0,51.8,2.54,1.43,1.43,0,0,0,50.37,1.12Z" transform="translate(-3.42 -1.12)" style="fill:#c78d6b"/><path d="M78.84,1.12a1.42,1.42,0,1,0,1.42,1.42A1.42,1.42,0,0,0,78.84,1.12Z" transform="translate(-3.42 -1.12)" style="fill:#c78d6b"/><path d="M67.45,1.12a1.42,1.42,0,1,0,1.42,1.42A1.43,1.43,0,0,0,67.45,1.12Z" transform="translate(-3.42 -1.12)" style="fill:#c78d6b"/><path d="M90.22,1.12a1.42,1.42,0,1,0,1.42,1.42A1.43,1.43,0,0,0,90.22,1.12Z" transform="translate(-3.42 -1.12)" style="fill:#c78d6b"/><path d="M84.53,1.12A1.42,1.42,0,1,0,86,2.54,1.43,1.43,0,0,0,84.53,1.12Z" transform="translate(-3.42 -1.12)" style="fill:#c78d6b"/><path d="M56.07,6.81a1.42,1.42,0,1,0,1.42,1.42A1.41,1.41,0,0,0,56.07,6.81Z" transform="translate(-3.42 -1.12)" style="fill:#c78d6b"/><circle cx="41.26" cy="7.11" r="1.42" style="fill:#c78d6b"/><path d="M39,6.81a1.42,1.42,0,1,0,1.42,1.42A1.41,1.41,0,0,0,39,6.81Z" transform="translate(-3.42 -1.12)" style="fill:#c78d6b"/><circle cx="75.41" cy="7.11" r="1.42" style="fill:#c78d6b"/><path d="M73.14,6.81a1.42,1.42,0,1,0,1.43,1.42A1.42,1.42,0,0,0,73.14,6.81Z" transform="translate(-3.42 -1.12)" style="fill:#c78d6b"/><circle cx="58.34" cy="7.11" r="1.42" style="fill:#c78d6b"/><circle cx="98.18" cy="7.11" r="1.42" style="fill:#c78d6b"/><circle cx="92.49" cy="7.11" r="1.42" style="fill:#c78d6b"/><path d="M90.22,6.81a1.42,1.42,0,1,0,1.42,1.42A1.42,1.42,0,0,0,90.22,6.81Z" transform="translate(-3.42 -1.12)" style="fill:#c78d6b"/><circle cx="81.11" cy="7.11" r="1.42" style="fill:#c78d6b"/><circle cx="120.96" cy="7.11" r="1.42" style="fill:#c78d6b"/><circle cx="138.03" cy="7.11" r="1.42" style="fill:#c78d6b"/><circle cx="132.34" cy="7.11" r="1.42" style="fill:#c78d6b"/><path d="M130.07,6.81a1.42,1.42,0,1,0,1.42,1.42A1.42,1.42,0,0,0,130.07,6.81Z" transform="translate(-3.42 -1.12)" style="fill:#c78d6b"/><path d="M56.07,12.5a1.42,1.42,0,1,0,1.42,1.42A1.41,1.41,0,0,0,56.07,12.5Z" transform="translate(-3.42 -1.12)" style="fill:#c78d6b"/><path d="M44.68,12.5a1.42,1.42,0,1,0,1.42,1.42A1.42,1.42,0,0,0,44.68,12.5Z" transform="translate(-3.42 -1.12)" style="fill:#c78d6b"/><path d="M78.84,12.5a1.42,1.42,0,1,0,1.42,1.42A1.41,1.41,0,0,0,78.84,12.5Z" transform="translate(-3.42 -1.12)" style="fill:#c78d6b"/><path d="M73.14,12.5a1.42,1.42,0,1,0,1.43,1.42A1.42,1.42,0,0,0,73.14,12.5Z" transform="translate(-3.42 -1.12)" style="fill:#c78d6b"/><path d="M67.45,12.5a1.42,1.42,0,1,0,1.42,1.42A1.42,1.42,0,0,0,67.45,12.5Z" transform="translate(-3.42 -1.12)" style="fill:#c78d6b"/><path d="M61.76,12.5a1.42,1.42,0,1,0,1.42,1.42A1.41,1.41,0,0,0,61.76,12.5Z" transform="translate(-3.42 -1.12)" style="fill:#c78d6b"/><path d="M101.61,12.5A1.42,1.42,0,1,0,103,13.92,1.41,1.41,0,0,0,101.61,12.5Z" transform="translate(-3.42 -1.12)" style="fill:#c78d6b"/><path d="M95.92,12.5a1.42,1.42,0,1,0,1.42,1.42A1.42,1.42,0,0,0,95.92,12.5Z" transform="translate(-3.42 -1.12)" style="fill:#c78d6b"/><path d="M90.22,12.5a1.42,1.42,0,1,0,1.42,1.42A1.42,1.42,0,0,0,90.22,12.5Z" transform="translate(-3.42 -1.12)" style="fill:#c78d6b"/><path d="M84.53,12.5A1.42,1.42,0,1,0,86,13.92,1.42,1.42,0,0,0,84.53,12.5Z" transform="translate(-3.42 -1.12)" style="fill:#c78d6b"/><path d="M124.38,12.5a1.42,1.42,0,1,0,1.42,1.42A1.41,1.41,0,0,0,124.38,12.5Z" transform="translate(-3.42 -1.12)" style="fill:#c78d6b"/><path d="M141.46,12.5a1.42,1.42,0,1,0,1.42,1.42A1.41,1.41,0,0,0,141.46,12.5Z" transform="translate(-3.42 -1.12)" style="fill:#c78d6b"/><path d="M135.76,12.5a1.42,1.42,0,1,0,1.42,1.42A1.42,1.42,0,0,0,135.76,12.5Z" transform="translate(-3.42 -1.12)" style="fill:#c78d6b"/><path d="M130.07,12.5a1.42,1.42,0,1,0,1.42,1.42A1.42,1.42,0,0,0,130.07,12.5Z" transform="translate(-3.42 -1.12)" style="fill:#c78d6b"/><path d="M107.3,12.5a1.42,1.42,0,1,0,1.42,1.42A1.42,1.42,0,0,0,107.3,12.5Z" transform="translate(-3.42 -1.12)" style="fill:#c78d6b"/><path d="M56.07,18.19a1.42,1.42,0,1,0,1.42,1.42A1.41,1.41,0,0,0,56.07,18.19Z" transform="translate(-3.42 -1.12)" style="fill:#c78d6b"/><path d="M50.37,18.19a1.42,1.42,0,1,0,1.43,1.42A1.42,1.42,0,0,0,50.37,18.19Z" transform="translate(-3.42 -1.12)" style="fill:#c78d6b"/><circle cx="41.26" cy="18.49" r="1.42" style="fill:#c78d6b"/><path d="M39,18.19a1.42,1.42,0,1,0,1.42,1.42A1.41,1.41,0,0,0,39,18.19Z" transform="translate(-3.42 -1.12)" style="fill:#c78d6b"/><circle cx="75.41" cy="18.49" r="1.42" style="fill:#c78d6b"/><path d="M73.14,18.19a1.42,1.42,0,1,0,1.43,1.42A1.42,1.42,0,0,0,73.14,18.19Z" transform="translate(-3.42 -1.12)" style="fill:#c78d6b"/><path d="M67.45,18.19a1.42,1.42,0,1,0,1.42,1.42A1.42,1.42,0,0,0,67.45,18.19Z" transform="translate(-3.42 -1.12)" style="fill:#c78d6b"/><circle cx="98.18" cy="18.49" r="1.42" style="fill:#c78d6b"/><circle cx="92.49" cy="18.49" r="1.42" style="fill:#c78d6b"/><path d="M90.22,18.19a1.42,1.42,0,1,0,1.42,1.42A1.42,1.42,0,0,0,90.22,18.19Z" transform="translate(-3.42 -1.12)" style="fill:#c78d6b"/><circle cx="81.11" cy="18.49" r="1.42" style="fill:#c78d6b"/><circle cx="120.96" cy="18.49" r="1.42" style="fill:#c78d6b"/><circle cx="115.26" cy="18.49" r="1.42" style="fill:#c78d6b"/><path d="M113,18.19a1.42,1.42,0,1,0,1.42,1.42A1.42,1.42,0,0,0,113,18.19Z" transform="translate(-3.42 -1.12)" style="fill:#c78d6b"/><path d="M130.07,18.19a1.42,1.42,0,1,0,1.42,1.42A1.42,1.42,0,0,0,130.07,18.19Z" transform="translate(-3.42 -1.12)" style="fill:#c78d6b"/><path d="M107.3,18.19a1.42,1.42,0,1,0,1.42,1.42A1.42,1.42,0,0,0,107.3,18.19Z" transform="translate(-3.42 -1.12)" style="fill:#c78d6b"/><path d="M56.07,23.87a1.42,1.42,0,1,0,1.42,1.42A1.42,1.42,0,0,0,56.07,23.87Z" transform="translate(-3.42 -1.12)" style="fill:#c78d6b"/><path d="M50.37,23.87a1.42,1.42,0,1,0,1.43,1.42A1.43,1.43,0,0,0,50.37,23.87Z" transform="translate(-3.42 -1.12)" style="fill:#c78d6b"/><path d="M39,23.87a1.42,1.42,0,1,0,1.42,1.42A1.42,1.42,0,0,0,39,23.87Z" transform="translate(-3.42 -1.12)" style="fill:#c78d6b"/><path d="M78.84,23.87a1.42,1.42,0,1,0,1.42,1.42A1.42,1.42,0,0,0,78.84,23.87Z" transform="translate(-3.42 -1.12)" style="fill:#c78d6b"/><path d="M73.14,23.87a1.42,1.42,0,1,0,1.43,1.42A1.43,1.43,0,0,0,73.14,23.87Z" transform="translate(-3.42 -1.12)" style="fill:#c78d6b"/><path d="M67.45,23.87a1.42,1.42,0,1,0,1.42,1.42A1.43,1.43,0,0,0,67.45,23.87Z" transform="translate(-3.42 -1.12)" style="fill:#c78d6b"/><path d="M61.76,23.87a1.42,1.42,0,1,0,1.42,1.42A1.42,1.42,0,0,0,61.76,23.87Z" transform="translate(-3.42 -1.12)" style="fill:#c78d6b"/><path d="M101.61,23.87A1.42,1.42,0,1,0,103,25.29,1.42,1.42,0,0,0,101.61,23.87Z" transform="translate(-3.42 -1.12)" style="fill:#c78d6b"/><path d="M95.92,23.87a1.42,1.42,0,1,0,1.42,1.42A1.43,1.43,0,0,0,95.92,23.87Z" transform="translate(-3.42 -1.12)" style="fill:#c78d6b"/><path d="M90.22,23.87a1.42,1.42,0,1,0,1.42,1.42A1.43,1.43,0,0,0,90.22,23.87Z" transform="translate(-3.42 -1.12)" style="fill:#c78d6b"/><path d="M84.53,23.87A1.42,1.42,0,1,0,86,25.29,1.43,1.43,0,0,0,84.53,23.87Z" transform="translate(-3.42 -1.12)" style="fill:#c78d6b"/><path d="M124.38,23.87a1.42,1.42,0,1,0,1.42,1.42A1.42,1.42,0,0,0,124.38,23.87Z" transform="translate(-3.42 -1.12)" style="fill:#c78d6b"/><path d="M118.69,23.87a1.42,1.42,0,1,0,1.42,1.42A1.42,1.42,0,0,0,118.69,23.87Z" transform="translate(-3.42 -1.12)" style="fill:#c78d6b"/><path d="M113,23.87a1.42,1.42,0,1,0,1.42,1.42A1.43,1.43,0,0,0,113,23.87Z" transform="translate(-3.42 -1.12)" style="fill:#c78d6b"/><path d="M130.07,23.87a1.42,1.42,0,1,0,1.42,1.42A1.43,1.43,0,0,0,130.07,23.87Z" transform="translate(-3.42 -1.12)" style="fill:#c78d6b"/><path d="M107.3,23.87a1.42,1.42,0,1,0,1.42,1.42A1.43,1.43,0,0,0,107.3,23.87Z" transform="translate(-3.42 -1.12)" style="fill:#c78d6b"/><path d="M50.37,29.56A1.42,1.42,0,1,0,51.8,31,1.43,1.43,0,0,0,50.37,29.56Z" transform="translate(-3.42 -1.12)" style="fill:#c78d6b"/><circle cx="41.26" cy="29.86" r="1.42" style="fill:#c78d6b"/><circle cx="75.41" cy="29.86" r="1.42" style="fill:#c78d6b"/><path d="M73.14,29.56A1.42,1.42,0,1,0,74.57,31,1.43,1.43,0,0,0,73.14,29.56Z" transform="translate(-3.42 -1.12)" style="fill:#c78d6b"/><path d="M67.45,29.56A1.42,1.42,0,1,0,68.87,31,1.43,1.43,0,0,0,67.45,29.56Z" transform="translate(-3.42 -1.12)" style="fill:#c78d6b"/><circle cx="58.34" cy="29.86" r="1.42" style="fill:#c78d6b"/><circle cx="98.18" cy="29.86" r="1.42" style="fill:#c78d6b"/><circle cx="92.49" cy="29.86" r="1.42" style="fill:#c78d6b"/><path d="M90.22,29.56A1.42,1.42,0,1,0,91.64,31,1.43,1.43,0,0,0,90.22,29.56Z" transform="translate(-3.42 -1.12)" style="fill:#c78d6b"/><circle cx="81.11" cy="29.86" r="1.42" style="fill:#c78d6b"/><circle cx="120.96" cy="29.86" r="1.42" style="fill:#c78d6b"/><circle cx="115.26" cy="29.86" r="1.42" style="fill:#c78d6b"/><path d="M113,29.56A1.42,1.42,0,1,0,114.41,31,1.43,1.43,0,0,0,113,29.56Z" transform="translate(-3.42 -1.12)" style="fill:#c78d6b"/><path d="M107.3,29.56A1.42,1.42,0,1,0,108.72,31,1.43,1.43,0,0,0,107.3,29.56Z" transform="translate(-3.42 -1.12)" style="fill:#c78d6b"/><path d="M56.07,35.25a1.42,1.42,0,1,0,1.42,1.42A1.42,1.42,0,0,0,56.07,35.25Z" transform="translate(-3.42 -1.12)" style="fill:#c78d6b"/><path d="M50.37,35.25a1.42,1.42,0,1,0,1.43,1.42A1.43,1.43,0,0,0,50.37,35.25Z" transform="translate(-3.42 -1.12)" style="fill:#c78d6b"/><path d="M44.68,35.25a1.42,1.42,0,1,0,1.42,1.42A1.43,1.43,0,0,0,44.68,35.25Z" transform="translate(-3.42 -1.12)" style="fill:#c78d6b"/><path d="M16.22,18.19a1.42,1.42,0,1,0,1.42,1.42A1.41,1.41,0,0,0,16.22,18.19Z" transform="translate(-3.42 -1.12)" style="fill:#c78d6b"/><path d="M10.53,23.87A1.42,1.42,0,1,0,12,25.29,1.42,1.42,0,0,0,10.53,23.87Z" transform="translate(-3.42 -1.12)" style="fill:#c78d6b"/><path d="M16.22,29.56A1.42,1.42,0,1,0,17.64,31,1.42,1.42,0,0,0,16.22,29.56Z" transform="translate(-3.42 -1.12)" style="fill:#c78d6b"/><path d="M16.22,35.25a1.42,1.42,0,1,0,1.42,1.42A1.42,1.42,0,0,0,16.22,35.25Z" transform="translate(-3.42 -1.12)" style="fill:#c78d6b"/><path d="M78.84,35.25a1.42,1.42,0,1,0,1.42,1.42A1.42,1.42,0,0,0,78.84,35.25Z" transform="translate(-3.42 -1.12)" style="fill:#c78d6b"/><path d="M73.14,35.25a1.42,1.42,0,1,0,1.43,1.42A1.43,1.43,0,0,0,73.14,35.25Z" transform="translate(-3.42 -1.12)" style="fill:#c78d6b"/><path d="M67.45,35.25a1.42,1.42,0,1,0,1.42,1.42A1.43,1.43,0,0,0,67.45,35.25Z" transform="translate(-3.42 -1.12)" style="fill:#c78d6b"/><path d="M61.76,35.25a1.42,1.42,0,1,0,1.42,1.42A1.42,1.42,0,0,0,61.76,35.25Z" transform="translate(-3.42 -1.12)" style="fill:#c78d6b"/><path d="M101.61,35.25A1.42,1.42,0,1,0,103,36.67,1.42,1.42,0,0,0,101.61,35.25Z" transform="translate(-3.42 -1.12)" style="fill:#c78d6b"/><path d="M95.92,35.25a1.42,1.42,0,1,0,1.42,1.42A1.43,1.43,0,0,0,95.92,35.25Z" transform="translate(-3.42 -1.12)" style="fill:#c78d6b"/><path d="M90.22,35.25a1.42,1.42,0,1,0,1.42,1.42A1.43,1.43,0,0,0,90.22,35.25Z" transform="translate(-3.42 -1.12)" style="fill:#c78d6b"/><path d="M84.53,35.25A1.42,1.42,0,1,0,86,36.67,1.43,1.43,0,0,0,84.53,35.25Z" transform="translate(-3.42 -1.12)" style="fill:#c78d6b"/><path d="M113,35.25a1.42,1.42,0,1,0,1.42,1.42A1.43,1.43,0,0,0,113,35.25Z" transform="translate(-3.42 -1.12)" style="fill:#c78d6b"/><path d="M107.3,35.25a1.42,1.42,0,1,0,1.42,1.42A1.43,1.43,0,0,0,107.3,35.25Z" transform="translate(-3.42 -1.12)" style="fill:#c78d6b"/><path d="M50.37,40.94a1.42,1.42,0,1,0,1.43,1.42A1.42,1.42,0,0,0,50.37,40.94Z" transform="translate(-3.42 -1.12)" style="fill:#c78d6b"/><path d="M39,40.94a1.42,1.42,0,1,0,1.42,1.42A1.41,1.41,0,0,0,39,40.94Z" transform="translate(-3.42 -1.12)" style="fill:#c78d6b"/><circle cx="75.41" cy="41.24" r="1.42" style="fill:#c78d6b"/><path d="M73.14,40.94a1.42,1.42,0,1,0,1.43,1.42A1.42,1.42,0,0,0,73.14,40.94Z" transform="translate(-3.42 -1.12)" style="fill:#c78d6b"/><path d="M67.45,40.94a1.42,1.42,0,1,0,1.42,1.42A1.42,1.42,0,0,0,67.45,40.94Z" transform="translate(-3.42 -1.12)" style="fill:#c78d6b"/><circle cx="58.34" cy="41.24" r="1.42" style="fill:#c78d6b"/><path d="M56.07,40.94a1.42,1.42,0,1,0,1.42,1.42A1.41,1.41,0,0,0,56.07,40.94Z" transform="translate(-3.42 -1.12)" style="fill:#c78d6b"/><circle cx="98.18" cy="41.24" r="1.42" style="fill:#c78d6b"/><circle cx="92.49" cy="41.24" r="1.42" style="fill:#c78d6b"/><circle cx="115.26" cy="41.24" r="1.42" style="fill:#c78d6b"/><path d="M113,40.94a1.42,1.42,0,1,0,1.42,1.42A1.42,1.42,0,0,0,113,40.94Z" transform="translate(-3.42 -1.12)" style="fill:#c78d6b"/><path d="M107.3,40.94a1.42,1.42,0,1,0,1.42,1.42A1.42,1.42,0,0,0,107.3,40.94Z" transform="translate(-3.42 -1.12)" style="fill:#c78d6b"/><path d="M56.07,46.63a1.42,1.42,0,1,0,1.42,1.42A1.41,1.41,0,0,0,56.07,46.63Z" transform="translate(-3.42 -1.12)" style="fill:#c78d6b"/><path d="M44.68,46.63a1.42,1.42,0,1,0,1.42,1.42A1.42,1.42,0,0,0,44.68,46.63Z" transform="translate(-3.42 -1.12)" style="fill:#c78d6b"/><path d="M39,46.63a1.42,1.42,0,1,0,1.42,1.42A1.41,1.41,0,0,0,39,46.63Z" transform="translate(-3.42 -1.12)" style="fill:#c78d6b"/><path d="M78.84,46.63a1.42,1.42,0,1,0,1.42,1.42A1.41,1.41,0,0,0,78.84,46.63Z" transform="translate(-3.42 -1.12)" style="fill:#c78d6b"/><path d="M73.14,46.63a1.42,1.42,0,1,0,1.43,1.42A1.42,1.42,0,0,0,73.14,46.63Z" transform="translate(-3.42 -1.12)" style="fill:#c78d6b"/><path d="M61.76,46.63a1.42,1.42,0,1,0,1.42,1.42A1.41,1.41,0,0,0,61.76,46.63Z" transform="translate(-3.42 -1.12)" style="fill:#c78d6b"/><path d="M101.61,46.63A1.42,1.42,0,1,0,103,48.05,1.41,1.41,0,0,0,101.61,46.63Z" transform="translate(-3.42 -1.12)" style="fill:#c78d6b"/><path d="M95.92,46.63a1.42,1.42,0,1,0,1.42,1.42A1.42,1.42,0,0,0,95.92,46.63Z" transform="translate(-3.42 -1.12)" style="fill:#c78d6b"/><path d="M118.69,46.63a1.42,1.42,0,1,0,1.42,1.42A1.41,1.41,0,0,0,118.69,46.63Z" transform="translate(-3.42 -1.12)" style="fill:#c78d6b"/><path d="M113,46.63a1.42,1.42,0,1,0,1.42,1.42A1.42,1.42,0,0,0,113,46.63Z" transform="translate(-3.42 -1.12)" style="fill:#c78d6b"/><path d="M56.07,52.32a1.42,1.42,0,1,0,1.42,1.42A1.41,1.41,0,0,0,56.07,52.32Z" transform="translate(-3.42 -1.12)" style="fill:#c78d6b"/><path d="M50.37,52.32a1.42,1.42,0,1,0,1.43,1.42A1.42,1.42,0,0,0,50.37,52.32Z" transform="translate(-3.42 -1.12)" style="fill:#c78d6b"/><path d="M39,52.32a1.42,1.42,0,1,0,1.42,1.42A1.41,1.41,0,0,0,39,52.32Z" transform="translate(-3.42 -1.12)" style="fill:#c78d6b"/><circle cx="75.41" cy="52.62" r="1.42" style="fill:#c78d6b"/><path d="M73.14,52.32a1.42,1.42,0,1,0,1.43,1.42A1.42,1.42,0,0,0,73.14,52.32Z" transform="translate(-3.42 -1.12)" style="fill:#c78d6b"/><circle cx="58.34" cy="52.62" r="1.42" style="fill:#c78d6b"/><circle cx="98.18" cy="52.62" r="1.42" style="fill:#c78d6b"/><circle cx="92.49" cy="52.62" r="1.42" style="fill:#c78d6b"/><circle cx="115.26" cy="52.62" r="1.42" style="fill:#c78d6b"/><path d="M113,52.32a1.42,1.42,0,1,0,1.42,1.42A1.42,1.42,0,0,0,113,52.32Z" transform="translate(-3.42 -1.12)" style="fill:#c78d6b"/><path d="M56.07,58a1.43,1.43,0,1,0,1.42,1.42A1.42,1.42,0,0,0,56.07,58Z" transform="translate(-3.42 -1.12)" style="fill:#c78d6b"/><path d="M44.68,58a1.43,1.43,0,1,0,1.42,1.42A1.43,1.43,0,0,0,44.68,58Z" transform="translate(-3.42 -1.12)" style="fill:#c78d6b"/><path d="M73.14,58a1.43,1.43,0,1,0,1.43,1.42A1.43,1.43,0,0,0,73.14,58Z" transform="translate(-3.42 -1.12)" style="fill:#c78d6b"/><path d="M61.76,58a1.43,1.43,0,1,0,1.42,1.42A1.42,1.42,0,0,0,61.76,58Z" transform="translate(-3.42 -1.12)" style="fill:#c78d6b"/><path d="M101.61,58A1.43,1.43,0,1,0,103,59.42,1.42,1.42,0,0,0,101.61,58Z" transform="translate(-3.42 -1.12)" style="fill:#c78d6b"/><path d="M95.92,58a1.43,1.43,0,1,0,1.42,1.42A1.43,1.43,0,0,0,95.92,58Z" transform="translate(-3.42 -1.12)" style="fill:#c78d6b"/><path d="M78.84,58a1.43,1.43,0,1,0,1.42,1.42A1.42,1.42,0,0,0,78.84,58Z" transform="translate(-3.42 -1.12)" style="fill:#c78d6b"/><path d="M118.69,58a1.43,1.43,0,1,0,1.42,1.42A1.42,1.42,0,0,0,118.69,58Z" transform="translate(-3.42 -1.12)" style="fill:#c78d6b"/><path d="M113,58a1.43,1.43,0,1,0,1.42,1.42A1.43,1.43,0,0,0,113,58Z" transform="translate(-3.42 -1.12)" style="fill:#c78d6b"/><path d="M56.07,63.69a1.42,1.42,0,1,0,1.42,1.42A1.42,1.42,0,0,0,56.07,63.69Z" transform="translate(-3.42 -1.12)" style="fill:#c78d6b"/><circle cx="41.26" cy="63.99" r="1.42" style="fill:#c78d6b"/><path d="M33.3,1.12a1.42,1.42,0,1,0,1.42,1.42A1.42,1.42,0,0,0,33.3,1.12Z" transform="translate(-3.42 -1.12)" style="fill:#c78d6b"/><path d="M21.91,1.12a1.42,1.42,0,1,0,1.42,1.42A1.43,1.43,0,0,0,21.91,1.12Z" transform="translate(-3.42 -1.12)" style="fill:#c78d6b"/><circle cx="24.18" cy="7.11" r="1.42" style="fill:#c78d6b"/><circle cx="7.1" cy="7.11" r="1.42" style="fill:#c78d6b"/><path d="M21.91,6.81a1.42,1.42,0,1,0,1.42,1.42A1.42,1.42,0,0,0,21.91,6.81Z" transform="translate(-3.42 -1.12)" style="fill:#c78d6b"/><path d="M33.3,12.5a1.42,1.42,0,1,0,1.42,1.42A1.41,1.41,0,0,0,33.3,12.5Z" transform="translate(-3.42 -1.12)" style="fill:#c78d6b"/><circle cx="24.18" cy="18.49" r="1.42" style="fill:#c78d6b"/><path d="M33.3,23.87a1.42,1.42,0,1,0,1.42,1.42A1.42,1.42,0,0,0,33.3,23.87Z" transform="translate(-3.42 -1.12)" style="fill:#c78d6b"/><path d="M21.91,23.87a1.42,1.42,0,1,0,1.42,1.42A1.43,1.43,0,0,0,21.91,23.87Z" transform="translate(-3.42 -1.12)" style="fill:#c78d6b"/><path d="M33.3,29.56A1.42,1.42,0,1,0,34.72,31,1.42,1.42,0,0,0,33.3,29.56Z" transform="translate(-3.42 -1.12)" style="fill:#c78d6b"/><circle cx="24.18" cy="29.86" r="1.42" style="fill:#c78d6b"/><path d="M33.3,35.25a1.42,1.42,0,1,0,1.42,1.42A1.42,1.42,0,0,0,33.3,35.25Z" transform="translate(-3.42 -1.12)" style="fill:#c78d6b"/><path d="M21.91,35.25a1.42,1.42,0,1,0,1.42,1.42A1.43,1.43,0,0,0,21.91,35.25Z" transform="translate(-3.42 -1.12)" style="fill:#c78d6b"/><circle cx="24.18" cy="41.24" r="1.42" style="fill:#c78d6b"/><path d="M27.6,46.63A1.42,1.42,0,1,0,29,48.05,1.42,1.42,0,0,0,27.6,46.63Z" transform="translate(-3.42 -1.12)" style="fill:#c78d6b"/><path d="M16.22,46.63a1.42,1.42,0,1,0,1.42,1.42A1.41,1.41,0,0,0,16.22,46.63Z" transform="translate(-3.42 -1.12)" style="fill:#c78d6b"/><path d="M4.84,46.63a1.42,1.42,0,1,0,1.42,1.42A1.42,1.42,0,0,0,4.84,46.63Z" transform="translate(-3.42 -1.12)" style="fill:#c78d6b"/><path d="M33.3,52.32a1.42,1.42,0,1,0,1.42,1.42A1.41,1.41,0,0,0,33.3,52.32Z" transform="translate(-3.42 -1.12)" style="fill:#c78d6b"/><path d="M21.91,52.32a1.42,1.42,0,1,0,1.42,1.42A1.42,1.42,0,0,0,21.91,52.32Z" transform="translate(-3.42 -1.12)" style="fill:#c78d6b"/><path d="M33.3,58a1.43,1.43,0,1,0,1.42,1.42A1.42,1.42,0,0,0,33.3,58Z" transform="translate(-3.42 -1.12)" style="fill:#c78d6b"/><path d="M27.6,58A1.43,1.43,0,1,0,29,59.42,1.43,1.43,0,0,0,27.6,58Z" transform="translate(-3.42 -1.12)" style="fill:#c78d6b"/><path d="M10.53,58A1.43,1.43,0,1,0,12,59.42,1.42,1.42,0,0,0,10.53,58Z" transform="translate(-3.42 -1.12)" style="fill:#c78d6b"/><path d="M33.3,63.69a1.42,1.42,0,1,0,1.42,1.42A1.42,1.42,0,0,0,33.3,63.69Z" transform="translate(-3.42 -1.12)" style="fill:#c78d6b"/><path d="M21.91,63.69a1.42,1.42,0,1,0,1.42,1.42A1.43,1.43,0,0,0,21.91,63.69Z" transform="translate(-3.42 -1.12)" style="fill:#c78d6b"/><circle cx="58.34" cy="63.99" r="1.42" style="fill:#c78d6b"/><circle cx="98.18" cy="63.99" r="1.42" style="fill:#c78d6b"/><circle cx="92.49" cy="63.99" r="1.42" style="fill:#c78d6b"/><circle cx="81.11" cy="63.99" r="1.42" style="fill:#c78d6b"/><circle cx="75.41" cy="63.99" r="1.42" style="fill:#c78d6b"/><path d="M113,63.69a1.42,1.42,0,1,0,1.42,1.42A1.43,1.43,0,0,0,113,63.69Z" transform="translate(-3.42 -1.12)" style="fill:#c78d6b"/></g></svg>